<svg width="72" height="72" viewBox="0 0 72 72" fill="none" xmlns="http://www.w3.org/2000/svg">
<g clip-path="url(#clip0_111335_16272)">
<path d="M68 4H4V68H68V4Z" fill="#444DF2"/>
<path d="M55.1746 42.0288C55.789 43.4368 56.7746 44.6528 57.5298 45.984C58.285 47.3152 58.797 48.9152 58.3746 50.3872C58.7458 50.4768 59.0402 50.0544 59.181 49.696C60.0002 47.5072 59.117 43.936 58.3234 41.8112C57.3122 39.0848 55.1362 36.7296 55.021 33.824C54.0482 36.4096 54.0482 39.4816 55.1746 42.0288Z" fill="#797EF3"/>
<path d="M53.5614 13.4336C55.3022 15.5456 56.659 18.1312 56.6078 20.8704C56.5822 21.8304 56.3902 22.7648 56.1982 23.6992C55.8014 25.6192 55.4046 27.5264 55.0078 29.4464C54.9054 29.92 54.8158 30.3936 54.5598 30.8032C53.971 31.7632 52.627 32.0704 51.5774 31.6864C50.5278 31.3024 49.747 30.3424 49.3374 29.3056C48.6974 27.7184 48.7742 25.9008 49.2478 24.2624C49.7214 22.6112 50.5662 21.1008 51.4366 19.6288C52.0894 18.528 52.7806 17.4144 53.8046 16.6464L53.5614 13.4336Z" fill="#797EF3"/>
<path d="M43.5394 68H29.8178C29.805 68 29.805 68 29.7922 68C27.4754 67.8848 25.133 67.9616 22.8034 67.9872C22.3426 67.9872 21.8818 68 21.4082 68C21.4978 67.6928 21.5874 67.3984 21.6642 67.104C23.1234 62.048 23.8274 57.1456 24.0834 51.9616C24.1346 50.9632 24.1602 49.952 24.1858 48.9408C24.5314 49.0432 24.877 49.1328 25.2354 49.2224C25.3122 49.248 25.3762 49.2608 25.453 49.2736C26.0418 49.4144 26.6306 49.5424 27.2322 49.632C32.4546 50.528 37.8434 49.9648 43.1554 49.9008C45.2546 49.8752 44.2946 53.984 43.4626 57.1968C43.4626 57.2096 43.4498 57.2224 43.4498 57.2352C43.0786 58.6304 42.7458 59.8592 42.6946 60.4992C42.5026 63.0208 42.6946 65.632 43.5394 68Z" fill="#E8C5AA"/>
<path d="M48.224 15.2512C47.008 14.3808 45.5488 13.8304 44 13.2928C37.1136 10.8992 28.6144 11.616 23.2512 16.9664C21.2032 19.0016 19.7312 21.5872 18.9504 24.3776C18.1056 27.3856 18.5408 30.048 18.7328 33.0816C19.0272 37.8944 19.7824 42.9888 22.9056 46.6624C28.192 52.8832 36.512 56.7872 44.6144 57.312C47.136 57.4784 49.9392 57.1456 52.1152 55.7888C53.4208 54.9696 54.496 53.7152 55.008 52.2432C55.3536 51.2448 55.2 50.1056 55.3792 49.056C55.7248 46.9824 56.4416 44.9984 56.6976 42.912C56.9664 40.7104 56.9152 38.4832 56.7232 36.2816C56.608 34.9248 56.5696 33.5296 56.2112 32.2112C55.8528 30.88 55.1744 29.6896 54.7648 28.3584C53.9456 25.6832 53.1776 22.752 51.9104 20.256C51.0144 18.5024 49.8368 16.3904 48.224 15.2512Z" fill="#F4D3B8"/>
<path d="M45.4507 34.0588C46.449 33.826 46.9394 32.2699 46.5461 30.5831C46.1527 28.8963 45.0246 27.7177 44.0263 27.9505C43.028 28.1832 42.5376 29.7393 42.9309 31.4261C43.3243 33.1129 44.4524 34.2915 45.4507 34.0588Z" fill="#1B1464"/>
<path d="M52.9099 30.8006C53.6946 30.6176 54.0824 29.4028 53.7765 28.0883C53.4706 26.7737 52.5848 25.856 51.8002 26.039C51.0155 26.222 50.6277 27.4368 50.9349 28.7513C51.2408 30.0659 52.1253 30.9836 52.9099 30.8006Z" fill="#1B1464"/>
<path d="M54.6725 35.8759C54.8658 36.1076 54.9054 36.5274 54.6277 37.2378C54.3666 37.906 53.9173 38.5818 53.5819 39.0707L54.7442 39.8656C55.0744 39.3831 55.612 38.5869 55.9384 37.7498C56.2494 36.9562 56.4798 35.84 55.7528 34.9709L54.6725 35.8759ZM51.9742 34.7904C52.5029 35.0477 53.189 35.1949 53.628 35.3268C54.1349 35.4778 54.4677 35.6365 54.6802 35.8836L55.7477 34.9658C55.2562 34.3936 54.5842 34.1428 54.0312 33.9776C53.4104 33.792 52.9829 33.7152 52.5899 33.5245L51.9742 34.7904ZM49.0251 30.9056C49.2811 32.6541 50.4651 34.0506 51.9717 34.7891L52.5912 33.5245C51.4354 32.9575 50.597 31.922 50.4178 30.7008L49.0251 30.9056ZM53.5819 39.0707C53.3618 39.392 53.445 39.8298 53.765 40.0487C54.085 40.2676 54.524 40.1856 54.7429 39.8656L53.5819 39.0707ZM55.2126 35.424L55.7528 34.9722C55.7502 34.9696 55.749 34.9671 55.7464 34.9658L55.2126 35.424ZM52.2814 34.1568L51.9717 34.7891C51.973 34.7891 51.973 34.7904 51.9742 34.7904L52.2814 34.1568ZM50.4178 30.7008C50.3614 30.3156 50.0043 30.0506 49.619 30.1069C49.2338 30.1632 48.9688 30.5203 49.0251 30.9056L50.4178 30.7008Z" fill="#1B1464"/>
<path d="M46.2914 45.5347C48.3727 45.3837 50.8943 45.184 52.7234 43.6429L51.8159 42.5664C50.3938 43.7645 48.3586 43.9744 46.1903 44.1306L46.2914 45.5347ZM42.9135 45.4426C44.0681 45.6986 45.247 45.6103 46.2914 45.5347L46.1903 44.1306C45.11 44.2087 44.1385 44.2727 43.2194 44.0691L42.9135 45.4426ZM52.1666 46.2682C49.2841 47.4586 45.6591 46.6125 43.5919 44.288L42.5398 45.2237C45.0038 47.9936 49.2636 48.9907 52.7042 47.5699L52.1666 46.2682ZM52.7222 43.6429C53.0191 43.392 53.0575 42.9479 52.8066 42.6509C52.5558 42.3539 52.1116 42.3155 51.8146 42.5664L52.7222 43.6429ZM43.0658 44.7552L43.2182 44.0679C42.9199 44.0013 42.6127 44.1357 42.4578 44.3981C42.303 44.6618 42.3362 44.9946 42.5385 45.2224L43.0658 44.7552ZM52.7042 47.5687C53.0639 47.4202 53.2342 47.008 53.0857 46.6496C52.9372 46.2899 52.525 46.1197 52.1666 46.2682L52.7042 47.5687Z" fill="#1B1464"/>
<path d="M40.7629 25.376C39.5942 25.911 38.4589 26.839 37.9226 28.1267L39.2218 28.6681C39.5814 27.8041 40.3917 27.0937 41.3478 26.6573L40.7629 25.376ZM45.3414 24.8141C43.7146 24.4889 42.2976 24.6784 40.7654 25.376L41.3478 26.6573C42.6304 26.0736 43.7478 25.9315 45.0662 26.1952L45.3414 24.8141ZM37.9226 28.1254C37.7728 28.4838 37.943 28.896 38.3014 29.0457C38.6598 29.1955 39.072 29.0253 39.2218 28.6669L37.9226 28.1254ZM41.056 26.016L40.7642 25.3747C40.7642 25.3747 40.7629 25.3747 40.7629 25.376L41.056 26.016ZM45.065 26.1939C45.4464 26.2707 45.8176 26.0224 45.8931 25.6422C45.9699 25.2608 45.7216 24.8896 45.3414 24.8141L45.065 26.1939Z" fill="#1B1464"/>
<path d="M50.1952 23.5328C50.4 24.206 50.4 24.206 50.3987 24.206C50.3987 24.206 50.3987 24.206 50.4 24.206C50.4013 24.206 50.4051 24.2048 50.409 24.2035C50.4179 24.2009 50.4346 24.1958 50.4563 24.1907C50.4998 24.1792 50.5651 24.1638 50.6496 24.1459C50.8186 24.11 51.0566 24.0704 51.3254 24.0524C51.8861 24.014 52.4736 24.0793 52.8998 24.3545L53.664 23.1718C52.8602 22.6534 51.9053 22.6022 51.232 22.6483C50.8838 22.6713 50.5792 22.7225 50.3629 22.7686C50.2541 22.7916 50.1658 22.8134 50.1018 22.8288C50.0698 22.8364 50.0454 22.8441 50.0262 22.8492C50.0173 22.8518 50.0096 22.8544 50.0045 22.8556C50.0019 22.8569 49.9994 22.8569 49.9968 22.8582C49.9955 22.8582 49.9955 22.8582 49.9942 22.8595H49.993C49.9904 22.8595 49.9904 22.8595 50.1952 23.5328ZM52.8986 24.3545C53.225 24.5657 53.6614 24.4723 53.8714 24.1446C54.0813 23.8169 53.9891 23.3817 53.6614 23.1718L52.8986 24.3545ZM49.9904 22.8595C49.6179 22.9721 49.408 23.3651 49.5206 23.7376C49.6333 24.11 50.0262 24.32 50.3987 24.2073L49.9904 22.8595Z" fill="#1B1464"/>
<path d="M43.3985 18.6176C43.6289 18.912 43.8721 19.2064 44.1153 19.488C45.8305 21.472 48.1345 21.3952 50.5921 21.6512C52.4225 21.8304 54.3809 22.3168 55.5073 23.776C56.4289 24.9792 56.5825 26.6304 56.3521 28.128C56.2625 28.7552 56.1089 29.3696 56.0449 29.9968C55.8401 32.0064 56.5825 34.0544 57.8881 35.5776C59.1937 37.1136 61.0497 38.1376 62.9953 38.6112C61.9713 37.6896 60.9345 36.7552 60.1665 35.5904C59.2961 34.2592 58.8225 32.6848 58.8353 31.0976C58.8481 29.472 59.3473 27.8848 59.6801 26.2976C60.4225 22.752 60.1921 19.04 59.1937 15.5712C58.3617 12.704 56.9281 8.76163 54.2529 7.11043C52.0513 5.74083 49.6577 5.04963 47.0337 5.25443C44.8065 5.43363 42.5665 6.47043 41.2993 8.32643C39.1233 11.5136 41.2993 15.9168 43.3985 18.6176Z" fill="#797EF3"/>
<path d="M42.7202 12.8832C42.5282 13.024 42.3362 13.152 42.1442 13.28C41.8882 13.4464 41.6322 13.6128 41.3762 13.7664C41.2098 13.8688 41.0434 13.9712 40.877 14.0736C38.3042 15.712 35.7186 17.3504 33.3762 19.3088C31.8914 20.5504 30.509 21.8944 29.1522 23.264C28.5378 23.8784 27.7442 24.4416 27.1938 25.0944C26.6562 25.7344 26.669 26.4128 26.5794 27.2448C26.5666 27.3728 26.5538 27.5136 26.5282 27.6416C26.0418 31.8272 25.5554 36.0128 25.0562 40.1856C24.6978 43.2064 25.005 46.1248 25.2098 49.0432C25.2098 49.0944 25.2226 49.1456 25.2226 49.1968C25.325 50.8096 25.4018 52.4224 25.3122 54.0736C25.2866 54.5472 25.2482 55.0208 25.1842 55.4944C24.9794 57.2608 24.7618 59.0144 24.557 60.7808C24.2882 63.0592 24.0066 65.3888 23.0466 67.4752C22.9698 67.6416 22.8802 67.8208 22.7906 67.9872H10.6562C10.3618 67.7312 10.093 67.4752 9.90099 67.168C9.14579 65.9392 9.51699 63.712 9.97779 62.4576C10.477 61.1392 11.3474 59.9872 11.949 58.72C12.5506 57.44 12.845 55.8784 12.1666 54.6496C11.8722 54.112 11.4242 53.6896 11.053 53.2032C9.40179 50.9504 9.96499 47.8144 10.7714 45.1392C11.5778 42.464 12.5634 39.5712 11.565 36.96C11.0914 35.7312 10.2082 34.6944 9.65779 33.4912C8.16019 30.1888 9.44019 26.2464 11.4626 23.2384C12.2946 21.9968 13.2546 20.8192 13.7922 19.424C14.381 17.9008 14.4194 16.224 14.6626 14.6112C14.9058 12.9984 15.4434 11.3088 16.7362 10.2976C17.7986 9.46556 19.1554 9.26076 20.397 8.81276C21.6642 8.35196 22.701 7.57116 23.8402 6.87996C26.4898 5.27996 29.5106 4.39676 32.6082 4.34556C34.8738 4.31996 37.1394 4.70396 39.2898 5.39516C40.6466 5.83036 41.4786 6.38076 42.2722 7.18716C42.6818 7.60956 43.0914 8.10876 43.5522 8.68476C43.8978 9.11996 44.2434 9.56796 44.3458 10.1056C44.5506 11.2448 43.6802 12.1792 42.7202 12.8832Z" fill="#797EF3"/>
<path d="M21.3056 29.8432C20.4864 28.8704 19.3472 28.2304 17.7856 28.192C15.4944 28.1408 13.2928 29.7152 12.4736 31.8528C11.1424 35.296 13.3696 39.5072 16.3776 41.2736C19.0528 42.848 22.1888 41.9264 22.9696 38.816C23.3152 37.4336 23.1744 35.9744 23.0464 34.5664C22.8672 32.864 22.3552 31.0976 21.3056 29.8432Z" fill="#F4D3B8"/>
<path d="M19.8722 35.2832C19.9656 34.5856 19.9644 34.5856 19.9644 34.5856C19.9644 34.5856 19.9644 34.5856 19.9631 34.5856H19.9618C19.9605 34.5856 19.9592 34.5856 19.958 34.5856C19.9541 34.5856 19.9503 34.5843 19.9452 34.5843C19.9349 34.583 19.9208 34.5817 19.9042 34.5792C19.8696 34.5753 19.8223 34.5702 19.7621 34.5664C19.6431 34.5574 19.4767 34.5472 19.2796 34.5459C18.8892 34.5433 18.3516 34.574 17.8076 34.7149C17.2687 34.8544 16.6632 35.118 16.2127 35.6275C15.7429 36.1574 15.5087 36.8768 15.5868 37.7766L16.9896 37.655C16.9397 37.0828 17.0895 36.7616 17.2674 36.5606C17.4645 36.3379 17.7717 36.1779 18.1608 36.078C18.5448 35.9782 18.9506 35.9526 19.2732 35.9539C19.4319 35.9552 19.5624 35.9628 19.6533 35.9692C19.6981 35.9731 19.7327 35.9756 19.7544 35.9782C19.766 35.9795 19.7736 35.9808 19.7775 35.9808C19.78 35.9808 19.7813 35.9808 19.7813 35.9808C19.7788 35.9808 19.7788 35.9808 19.8722 35.2832ZM15.3922 32.5952C15.4972 33.2915 15.4972 33.2915 15.4972 33.2915C15.4972 33.2915 15.4997 33.2915 15.5023 33.2902C15.5074 33.2889 15.5164 33.2889 15.5279 33.2864C15.5522 33.2838 15.5906 33.2787 15.6418 33.2736C15.7429 33.2633 15.8914 33.2531 16.0719 33.2492C16.4354 33.2416 16.909 33.2646 17.3762 33.3747C17.846 33.4848 18.2696 33.6742 18.582 33.9686C18.8789 34.2502 19.1196 34.6675 19.172 35.3344L20.5762 35.2269C20.4994 34.231 20.1167 33.4796 19.5496 32.9446C18.998 32.4236 18.317 32.1484 17.7 32.0025C17.0792 31.8566 16.4802 31.831 16.045 31.84C15.8248 31.8438 15.6418 31.8579 15.5112 31.8694C15.446 31.8758 15.3935 31.8822 15.3564 31.886C15.3372 31.8886 15.3231 31.8899 15.3116 31.8924C15.3064 31.8937 15.3013 31.8937 15.2975 31.8937C15.2962 31.8937 15.2936 31.8937 15.2936 31.895H15.2924C15.2924 31.895 15.2924 31.895 15.2911 31.895C15.2872 31.8988 15.2872 31.8988 15.3922 32.5952ZM15.5868 37.7766C15.62 38.1645 15.9618 38.4512 16.3496 38.4166C16.7375 38.3833 17.0242 38.0416 16.9896 37.6537L15.5868 37.7766ZM19.8722 35.2832L19.7788 35.9808C19.9887 36.0089 20.2012 35.9398 20.356 35.7939C20.5109 35.648 20.5903 35.4406 20.5736 35.2281L19.8722 35.2832ZM15.2872 31.8988C14.9032 31.9577 14.6383 32.3161 14.6972 32.7001C14.756 33.0841 15.1144 33.3491 15.4984 33.2902L15.2872 31.8988Z" fill="#EABC97"/>
<path d="M22.9825 21.5232C23.7633 19.3344 25.0689 17.2608 26.4001 15.392C27.6929 13.5616 29.4465 12.064 31.4561 11.0656C33.3377 10.144 35.5137 9.65759 37.5361 10.1952C40.8385 11.0784 42.8481 15.2 41.1969 18.3232C40.5441 19.5648 39.3025 20.3712 38.1505 21.152C34.4513 23.6864 30.8289 26.9376 29.8817 31.3152C29.2929 34.016 29.8177 36.8192 29.3825 39.5328C29.0369 41.6192 28.0641 43.3856 27.4497 45.344C26.7969 47.3664 27.1425 49.7472 27.7441 51.744C28.4225 53.984 29.5361 56.0448 30.6241 58.1184C31.4305 59.6544 32.2113 61.6 31.2129 63.0208C31.6993 61.7152 31.1617 60.2176 30.2913 59.1296C29.4209 58.0416 28.2561 57.2352 27.2321 56.288C24.8641 54.0736 23.3153 51.0144 22.8673 47.8144C22.6753 46.4832 22.5217 45.0496 22.4321 43.6928C22.3297 42.0672 23.0081 40.4544 23.1873 38.8416C23.5201 35.7952 22.0993 33.4528 21.8305 30.624C21.5489 27.6544 21.9713 24.3648 22.9825 21.5232Z" fill="#797EF3"/>
<path d="M42.8481 57.312C42.8481 56.608 42.8481 56.608 42.8481 56.608C42.8468 56.608 42.8455 56.608 42.8417 56.608C42.8353 56.608 42.8251 56.608 42.8097 56.608C42.7803 56.6067 42.7342 56.6055 42.6714 56.6029C42.5473 56.5978 42.3604 56.5863 42.1159 56.5619C41.6282 56.5159 40.9153 56.4211 40.0346 56.2317C38.2721 55.8528 35.8401 55.0912 33.1879 53.5655L32.4865 54.7866C35.2858 56.3968 37.8599 57.2045 39.739 57.609C40.6785 57.8112 41.4465 57.9136 41.9828 57.9648C42.2516 57.9904 42.4628 58.0032 42.6087 58.0096C42.6817 58.0135 42.7393 58.0147 42.779 58.016C42.7994 58.016 42.8148 58.0173 42.8263 58.0173C42.8314 58.0173 42.8366 58.0173 42.8404 58.0173C42.8417 58.0173 42.8442 58.0173 42.8442 58.0173H42.8455C42.8481 58.016 42.8481 58.016 42.8481 57.312ZM33.1892 53.5655C32.8526 53.3722 32.4212 53.4874 32.2279 53.8253C32.0346 54.1632 32.1498 54.5933 32.4878 54.7866L33.1892 53.5655ZM42.8481 58.016C43.2372 58.016 43.5521 57.7011 43.5521 57.312C43.5521 56.9229 43.2372 56.608 42.8481 56.608V58.016Z" fill="#1B1464"/>
</g>
<defs>
<clipPath id="clip0_111335_16272">
<rect x="4" y="4" width="64" height="64" rx="32" fill="white"/>
</clipPath>
</defs>
</svg>
