<svg width="72" height="72" viewBox="0 0 72 72" fill="none" xmlns="http://www.w3.org/2000/svg">
<g clip-path="url(#clip0_111335_16291)">
<path d="M68 4H4V68H68V4Z" fill="#ADB0D9"/>
<path d="M51.8592 21.3824C52.1024 20.4864 52.7552 19.6288 52.5888 18.72C52.4608 18.016 52.1664 17.2864 52.256 16.5568C52.32 16.0192 53.1264 14.4064 53.8304 14.5984C54.112 14.6752 54.2528 14.9952 54.3424 15.264C54.8544 16.736 55.264 17.9904 55.4304 19.5648C55.5968 21.152 55.6352 22.752 55.5712 24.352C55.5328 25.3376 55.4432 26.336 55.0464 27.232C54.7008 28.0256 54.112 28.7168 53.3952 29.1904C53.1904 28.7424 52.7552 28.4608 52.4352 28.0896C51.9232 27.5136 51.68 26.7584 51.5392 26.0032C51.5392 24.4032 51.4368 22.9696 51.8592 21.3824Z" fill="#444DF2"/>
<path d="M50.3745 36C50.1185 34.9504 50.2209 33.8496 50.3233 32.7744C50.4513 31.4816 50.8353 30.1376 51.6289 29.1904C52.2433 28.4608 53.1137 27.9744 54.2913 27.9488C55.0721 27.936 56.1985 28.128 56.6465 28.832C57.1073 29.5744 57.2225 30.816 57.1585 31.648C57.0689 32.7744 56.6081 33.8112 56.1601 34.8224C55.6737 35.936 55.0337 38.3296 53.5489 38.432C52.0001 38.5472 50.7329 37.4464 50.3745 36Z" fill="#F5B18F"/>
<path d="M42.1314 68H13.6514C13.7538 67.5648 13.8562 67.1296 13.9586 66.6944C15.9938 57.9648 16.7874 49.5041 16.9026 40.3521C24.109 43.0145 31.6866 41.8753 39.1234 41.7601C41.8882 41.7217 40.9666 44.8577 40.9922 47.7889C41.0306 51.4497 41.1714 55.0977 41.389 58.7329C41.5682 61.8305 41.8242 64.928 42.1314 68Z" fill="#F5B18F"/>
<path d="M54.675 24.736C54.3806 28.3968 53.9326 32.0576 53.6894 35.7312C53.587 37.3568 53.523 38.9696 53.523 40.5952C53.5358 45.6128 54.1374 51.0528 51.3726 55.2384C49.3374 58.3104 45.7406 60.1152 42.0798 60.5888C39.4302 60.9344 36.7806 60.6144 34.195 60.0384C30.163 59.1552 26.0286 57.5424 22.611 55.0464C20.5118 53.5104 18.6942 51.6416 17.3502 49.3888C16.0574 47.2384 15.2894 44.8192 14.8926 42.3232C14.6878 41.0048 14.5854 39.6608 14.5726 38.3168C14.547 35.8208 14.803 33.3248 15.1614 30.8544C15.6734 27.3216 16.1726 23.584 18.1822 20.5376C20.0638 17.696 22.8542 15.4816 25.9646 14.112C31.1614 11.8336 37.0366 11.68 42.707 12.0256C44.7166 12.1536 46.739 12.3328 48.6462 12.9728C50.5534 13.6128 52.3454 14.752 53.4334 16.4288C54.9822 18.8224 54.9054 21.8944 54.675 24.736Z" fill="#FEC29B"/>
<path d="M34.883 37.3393C35.9059 37.2721 36.6432 35.8166 36.5297 34.0883C36.4163 32.36 35.4951 31.0133 34.4722 31.0805C33.4493 31.1476 32.7121 32.6031 32.8255 34.3314C32.939 36.0598 33.8601 37.4064 34.883 37.3393Z" fill="#1B1464"/>
<path d="M46.9294 35.6624C47.9523 35.5953 48.6896 34.1398 48.5761 32.4114C48.4627 30.6831 47.5415 29.3364 46.5186 29.4036C45.4957 29.4707 44.7585 30.9262 44.8719 32.6546C44.9854 34.3829 45.9065 35.7295 46.9294 35.6624Z" fill="#1B1464"/>
<path d="M31.4458 28.4122C32.05 28.0525 33.0138 27.7158 33.9815 27.6544C34.9543 27.593 35.7953 27.8131 36.329 28.3891L37.362 27.4317C36.425 26.4205 35.0823 26.1734 33.8919 26.249C32.6964 26.3245 31.5162 26.7315 30.7252 27.2026L31.4458 28.4122ZM36.329 28.3891C36.594 28.6746 37.0394 28.6912 37.3236 28.4262C37.609 28.1613 37.6257 27.7158 37.3607 27.4317L36.329 28.3891ZM30.7239 27.2038C30.3898 27.4035 30.281 27.8349 30.4794 28.169C30.6791 28.503 31.1105 28.6118 31.4445 28.4134L30.7239 27.2038Z" fill="#1B1464"/>
<path d="M46.6495 26.8864C46.9913 27.5021 46.99 27.5021 46.99 27.5021C46.99 27.5021 46.9913 27.5021 46.9926 27.5008C46.9951 27.4995 47.0015 27.4957 47.0105 27.4919C47.0271 27.4829 47.0553 27.4688 47.0924 27.4509C47.1666 27.4151 47.278 27.3651 47.4175 27.3101C47.7004 27.1987 48.087 27.0746 48.5158 27.0119C49.3734 26.8864 50.3001 27.0119 50.9938 27.8682L52.087 26.9811C50.9631 25.5962 49.445 25.4541 48.3122 25.6192C47.7465 25.7024 47.2511 25.8624 46.9017 26.0007C46.725 26.0698 46.5817 26.1351 46.4818 26.1837C46.4306 26.208 46.391 26.2285 46.3628 26.2439C46.3487 26.2515 46.3372 26.2579 46.3282 26.2618C46.3244 26.2643 46.3206 26.2656 46.318 26.2682C46.3167 26.2695 46.3154 26.2695 46.3142 26.2707C46.3142 26.2707 46.3129 26.2707 46.3129 26.272C46.309 26.2707 46.3078 26.2707 46.6495 26.8864ZM50.9926 27.8682C51.237 28.1703 51.6812 28.2163 51.9833 27.9719C52.2854 27.7274 52.3314 27.2832 52.087 26.9811L50.9926 27.8682ZM46.3078 26.2707C45.9673 26.4589 45.8444 26.8877 46.0338 27.2282C46.222 27.5687 46.6508 27.6915 46.9913 27.5021L46.3078 26.2707Z" fill="#1B1464"/>
<path d="M34.0287 48.2214C36.2047 50.3014 39.333 51.3292 42.3167 50.9708L42.149 49.5731C39.5775 49.8816 36.869 48.9894 35.0002 47.2025L34.0287 48.2214ZM42.3167 50.9708C42.7032 50.9248 42.9784 50.574 42.9323 50.1875C42.8863 49.8009 42.5355 49.5257 42.149 49.5718L42.3167 50.9708ZM35.0015 47.2025C34.7199 46.9337 34.2744 46.944 34.0056 47.2256C33.7368 47.5072 33.7471 47.9526 34.0287 48.2214L35.0015 47.2025Z" fill="#1B1464"/>
<path d="M54.5473 17.4016C53.4849 20.5888 48.5569 21.1392 45.7409 21.4464C41.4529 21.92 37.6385 20.96 33.5169 20C32.9793 19.872 26.0289 18.1696 26.0289 18.1696C25.6705 21.728 24.8641 24.8768 22.7009 27.7312C21.7665 28.96 22.5857 30.496 22.4449 32.1088C22.2785 34.1696 22.2145 36.6784 21.5745 38.6496C21.4977 38.9056 21.2545 39.1232 20.9857 39.0848C20.6145 39.0336 20.4993 38.5856 20.3585 38.24C20.0385 37.4336 19.1297 36.704 18.2337 37.088C17.3889 37.4592 16.9665 38.7776 16.5313 39.5072C16.1217 40.1984 15.4817 40.7872 15.2513 41.5552C15.1745 41.8112 15.1489 42.08 15.0337 42.3232C14.9185 42.5664 14.6881 42.784 14.4193 42.784C14.2273 42.784 14.0481 42.656 13.9073 42.528C12.5121 41.3248 12.2817 39.7376 11.8081 38.0992C11.2705 36.1792 11.0529 34.1952 10.8609 32.224C10.7457 30.944 10.6433 29.6512 10.4769 28.3712C10.3361 27.2576 10.0289 26.1568 10.0161 25.0304C9.9649 21.3952 10.7201 17.7088 12.4993 14.56C14.8289 10.464 19.5777 8.30083 23.8401 7.17443C30.8545 5.33123 37.8561 6.34243 44.6785 8.51843C47.4305 9.40163 55.8529 13.5232 54.5473 17.4016Z" fill="#444DF2"/>
<path d="M44.2818 36.8358C43.7186 36.3238 43.3192 36.0333 43.021 35.6403C42.7778 35.3178 42.6421 34.9632 42.7368 34.3859L41.3468 34.1581C41.1855 35.1424 41.4402 35.8822 41.8972 36.4877C42.3004 37.0214 42.9109 37.4925 43.3346 37.8778L44.2818 36.8358ZM45.4978 39.6058C45.5298 38.5498 45.0472 37.5232 44.2792 36.8333L43.3384 37.8803C43.8248 38.3168 44.109 38.9542 44.0911 39.5622L45.4978 39.6058ZM38.797 42.1005C39.9311 42.7571 41.4927 43.127 42.838 42.8595C43.524 42.7238 44.1858 42.4141 44.685 41.8547C45.1893 41.2902 45.4709 40.5325 45.4965 39.6032L44.0885 39.5635C44.0693 40.2214 43.8786 40.6426 43.6328 40.9178C43.3832 41.1981 43.0223 41.3875 42.5615 41.4784C41.6156 41.6666 40.3996 41.4029 39.4984 40.8806L38.797 42.1005ZM42.7368 34.3859C42.7996 34.0019 42.5397 33.6397 42.1557 33.577C41.7717 33.5142 41.4095 33.7741 41.3468 34.1581L42.7368 34.3859ZM43.8082 37.3568L43.3346 37.8778C43.3359 37.879 43.3372 37.8803 43.3384 37.8803L43.8082 37.3568ZM44.7938 39.584L44.0898 39.5622V39.5635L44.7938 39.584ZM39.501 40.8819C39.1644 40.6874 38.7343 40.8026 38.5384 41.1392C38.3439 41.4758 38.4591 41.9059 38.7957 42.1018L39.501 40.8819Z" fill="#1B1464"/>
<path d="M18.8608 29.8432C18.0416 28.8704 16.9024 28.2304 15.3408 28.192C13.0496 28.1408 10.848 29.7152 10.0288 31.8528C8.69759 35.296 10.9248 39.5072 13.9328 41.2736C16.608 42.848 19.744 41.9264 20.5248 38.816C20.8704 37.4336 20.7296 35.9744 20.6016 34.5664C20.4224 32.864 19.9104 31.0976 18.8608 29.8432Z" fill="#FEC29B"/>
<path d="M17.4142 35.2832C17.5076 34.5856 17.5064 34.5856 17.5064 34.5856C17.5064 34.5856 17.5063 34.5856 17.5051 34.5856H17.5038C17.5025 34.5856 17.5012 34.5856 17.4999 34.5856C17.4961 34.5856 17.4923 34.5843 17.4871 34.5843C17.4769 34.583 17.4628 34.5817 17.4462 34.5792C17.4116 34.5753 17.3643 34.5702 17.3041 34.5664C17.1851 34.5574 17.0187 34.5472 16.8215 34.5459C16.4311 34.5433 15.8935 34.574 15.3495 34.7149C14.8107 34.8544 14.2052 35.118 13.7547 35.6275C13.2849 36.1574 13.0507 36.8768 13.1287 37.7766L14.5316 37.655C14.4817 37.0828 14.6315 36.7616 14.8094 36.5606C15.0065 36.3379 15.3137 36.1779 15.7028 36.078C16.0868 35.9782 16.4926 35.9526 16.8151 35.9539C16.9739 35.9552 17.1044 35.9628 17.1953 35.9692C17.2401 35.9731 17.2747 35.9756 17.2964 35.9782C17.3079 35.9795 17.3156 35.9808 17.3195 35.9808C17.322 35.9808 17.3233 35.9808 17.3233 35.9808C17.3208 35.9808 17.3207 35.9808 17.4142 35.2832ZM12.9342 32.5952C13.0391 33.2915 13.0391 33.2915 13.0391 33.2915C13.0391 33.2915 13.0417 33.2915 13.0443 33.2902C13.0494 33.2889 13.0583 33.2889 13.0699 33.2864C13.0942 33.2838 13.1326 33.2787 13.1838 33.2736C13.2849 33.2633 13.4334 33.2531 13.6139 33.2492C13.9774 33.2416 14.451 33.2646 14.9182 33.3747C15.3879 33.4848 15.8116 33.6742 16.1239 33.9686C16.4209 34.2502 16.6616 34.6675 16.714 35.3344L18.1182 35.2269C18.0414 34.231 17.6587 33.4796 17.0916 32.9446C16.54 32.4236 15.859 32.1484 15.242 32.0025C14.6212 31.8566 14.0222 31.831 13.587 31.84C13.3668 31.8438 13.1838 31.8579 13.0532 31.8694C12.9879 31.8758 12.9355 31.8822 12.8984 31.886C12.8792 31.8886 12.8651 31.8899 12.8535 31.8924C12.8484 31.8937 12.8433 31.8937 12.8395 31.8937C12.8382 31.8937 12.8356 31.8937 12.8356 31.895H12.8344C12.8344 31.895 12.8343 31.895 12.8331 31.895C12.8292 31.8988 12.8292 31.8988 12.9342 32.5952ZM13.1287 37.7766C13.162 38.1645 13.5038 38.4512 13.8916 38.4166C14.2795 38.3833 14.5662 38.0416 14.5316 37.6537L13.1287 37.7766ZM17.4142 35.2832L17.3207 35.9808C17.5307 36.0089 17.7432 35.9398 17.898 35.7939C18.0529 35.648 18.1323 35.4406 18.1156 35.2281L17.4142 35.2832ZM12.8292 31.8988C12.4452 31.9577 12.1803 32.3161 12.2391 32.7001C12.298 33.0841 12.6564 33.3491 13.0404 33.2902L12.8292 31.8988Z" fill="#F4AC7D"/>
<path d="M40.6399 59.8093C35.3382 60.0461 29.0508 58.4167 24.6655 55.4855L23.8835 56.6554C28.535 59.7658 35.1244 61.4644 40.7027 61.2148L40.6399 59.8093ZM24.6668 55.4855C24.343 55.2692 23.9065 55.3562 23.6902 55.68C23.4739 56.0039 23.5609 56.4404 23.8847 56.6567L24.6668 55.4855ZM40.7039 61.2148C41.0918 61.1968 41.3926 60.8679 41.3759 60.48C41.3593 60.0922 41.0291 59.7914 40.6412 59.808L40.7039 61.2148Z" fill="#1B1464"/>
</g>
<defs>
<clipPath id="clip0_111335_16291">
<rect x="4" y="4" width="64" height="64" rx="32" fill="white"/>
</clipPath>
</defs>
</svg>
