<svg width="72" height="72" viewBox="0 0 72 72" fill="none" xmlns="http://www.w3.org/2000/svg">
<g clip-path="url(#clip0_111335_16309)">
<path d="M68 4H4V68H68V4Z" fill="#ADB0D9"/>
<path d="M43.2843 68H14.8018C14.9029 67.6992 15.0066 67.3997 15.1077 67.1002C17.1403 61.0778 17.9326 55.2474 18.0491 48.9344C25.2606 50.77 32.8344 49.9828 40.275 49.906C43.0437 49.8778 42.1131 52.0449 42.149 54.0609C42.1925 56.5812 42.323 59.1002 42.5406 61.6116C42.725 63.7479 42.9733 65.8791 43.2843 68Z" fill="#ADB0D9"/>
<path d="M43.2843 68H14.8018C14.9029 67.6992 15.0066 67.3997 15.1077 67.1002C17.1403 61.0778 17.9326 55.2474 18.0491 48.9344C25.2606 50.77 32.8344 49.9828 40.275 49.906C43.0437 49.8778 42.1131 52.0449 42.149 54.0609C42.1925 56.5812 42.323 59.1002 42.5406 61.6116C42.725 63.7479 42.9733 65.8791 43.2843 68Z" fill="#E8AE8E"/>
<path d="M23.0847 54.089C23.1308 54.144 23.1781 54.1991 23.2242 54.2528C23.8181 54.9517 24.4159 55.6544 25.1148 56.2496C28.7589 59.3498 34.4306 59.7056 38.9196 60.5811C41.646 61.1123 44.3749 61.2032 47.0617 60.3802C50.1593 59.4304 52.9381 57.3363 54.4946 54.4947C56.4325 50.9543 56.3545 46.697 56.2265 42.6624C56.1535 40.3725 56.0805 38.0839 56.0076 35.7939C55.9615 34.3578 55.9167 32.9203 55.9897 31.4855C56.1689 27.9488 57.093 24.3213 56.3301 20.7962C55.6965 17.8701 53.2492 14.816 50.5177 13.5757C46.2066 11.6186 41.0418 11.1027 36.3775 11.6301C33.0021 12.0115 29.5679 12.416 26.4652 13.7946C23.6773 15.0336 20.0639 16.6144 18.5753 19.3805C16.6873 22.8877 15.6133 26.9427 15.1564 30.8826C14.7788 34.1389 14.8466 37.4477 15.3625 40.6861C15.8501 43.7491 16.6655 46.5357 18.6905 48.9178C20.1535 50.6419 21.6191 52.3648 23.0847 54.089Z" fill="#F4C19F"/>
<path d="M43.3385 44.1344C42.957 44.1344 42.6434 43.8298 42.6345 43.447C42.6255 43.0579 42.9327 42.7354 43.3218 42.7264C45.0767 42.6854 45.7769 42.1773 46.9685 41.0816C45.6066 38.039 44.8054 34.8109 44.5839 31.4778C44.5583 31.0899 44.8514 30.7546 45.2393 30.729C45.6246 30.7046 45.9625 30.9965 45.9881 31.3843C46.2057 34.6662 47.0594 37.975 48.4572 40.9523C48.5877 41.2288 48.5237 41.5578 48.2997 41.7664C46.669 43.2845 45.709 44.0794 43.3538 44.1331C43.35 44.1344 43.3449 44.1344 43.3385 44.1344Z" fill="#1B1464"/>
<path d="M37.6878 37.3341C38.7142 37.2668 39.4544 35.8128 39.3411 34.0866C39.2278 32.3604 38.3039 31.0156 37.2774 31.083C36.251 31.1503 35.5108 32.6043 35.6241 34.3305C35.7374 36.0567 36.6613 37.4015 37.6878 37.3341Z" fill="#1B1464"/>
<path d="M51.9089 36.9347C52.9354 36.8673 53.6756 35.4134 53.5623 33.6871C53.449 31.9609 52.525 30.6162 51.4986 30.6836C50.4722 30.7509 49.732 32.2049 49.8453 33.9311C49.9586 35.6573 50.8825 37.0021 51.9089 36.9347Z" fill="#1B1464"/>
<path d="M55.1103 31.1167C54.9106 31.1167 54.7109 31.0322 54.5727 30.8671C52.092 27.9334 49.1762 27.991 49.148 27.9897C48.7551 28.0038 48.4351 27.6966 48.4223 27.3074C48.4095 26.9183 48.7154 26.5945 49.1045 26.5817C49.2504 26.5778 52.7333 26.5087 55.6491 29.957C55.9 30.254 55.8629 30.6982 55.5659 30.949C55.4315 31.0617 55.2703 31.1167 55.1103 31.1167Z" fill="#1B1464"/>
<path d="M30.9875 32.2765C30.9388 32.2765 30.8902 32.2713 30.8403 32.2611C30.4601 32.1817 30.2169 31.8029 30.2963 31.4227C30.327 31.2742 31.1423 27.7504 38.3385 25.7472C38.7135 25.6435 39.1014 25.8624 39.2051 26.2361C39.3087 26.6112 39.0899 26.999 38.7161 27.1027C32.4467 28.8486 31.6799 31.6928 31.6723 31.7209C31.6019 32.0537 31.3126 32.2765 30.9875 32.2765Z" fill="#1B1464"/>
<path d="M43.4842 51.3767C42.9274 51.3767 42.3489 51.2947 41.7677 51.1283C40.4148 50.7405 39.2039 49.9687 38.1364 49.2877C37.8087 49.0791 37.7127 48.6426 37.9213 48.3162C38.13 47.9885 38.5652 47.8925 38.8928 48.1011C39.9271 48.7616 40.9972 49.4451 42.153 49.7754C43.3524 50.1184 44.5018 50.0058 45.3069 49.4669C45.6295 49.2506 46.0672 49.3376 46.2836 49.6602C46.4999 49.9827 46.4128 50.4205 46.0903 50.6368C45.3607 51.1258 44.457 51.3767 43.4842 51.3767Z" fill="#1B1464"/>
<path d="M17.934 42.6739C17.4463 40.5209 17.9852 38.0864 18.0914 35.8924C18.1055 35.6147 18.1298 35.3088 18.3142 35.1129C18.6879 34.7148 19.2985 35.0707 19.8028 35.2371C20.7372 35.5443 21.7855 35.0502 22.4038 34.2425C23.1334 33.2902 23.3446 32.0025 23.3766 30.7724C23.3945 30.0761 23.3382 29.4822 23.0655 28.8588C22.9004 28.4838 22.5382 27.4163 22.1362 27.2768C23.7836 27.8451 25.783 27.7504 27.0079 26.4473C27.374 26.0582 27.6505 25.5833 27.886 25.0931C28.5119 23.7875 29.1276 21.4694 27.9462 20.3251C29.0866 21.4732 30.7161 22.3027 32.311 21.9084C33.9379 21.5052 35.1731 19.4227 34.3897 17.8508C35.2025 19.5673 36.2188 21.4643 37.9699 21.9238C39.918 22.4358 42.0543 20.4544 41.847 18.327C42.7046 20.4825 44.0191 22.6355 46.0774 23.4547C48.1343 24.2739 50.9542 23.0425 51.1654 20.7116C51.1091 21.3235 50.8684 21.9776 50.8991 22.5856C51.0143 24.8512 53.0559 26.5945 54.7673 27.6006C56.4057 28.5632 58.3295 29.6294 60.2956 29.3004C62.1555 28.9907 63.0771 27.424 63.351 25.5462C63.5302 24.3161 63.4508 22.9248 62.6444 22.0236C61.7382 23.4496 60.0537 24.2649 58.4499 24.0563C59.3727 23.5123 60.0601 22.4051 59.9052 21.294C59.7209 19.959 58.4294 19.4355 57.3593 19.6915C58.4243 18.327 59.8246 17.312 59.7452 15.287C59.6569 13.0406 57.847 10.7507 56.0716 9.74204C55.1462 9.21596 54.062 8.91132 53.0406 9.16348C52.0191 9.41564 51.1014 10.327 51.0207 11.4419C50.7532 9.25308 49.3567 7.34716 47.6134 6.15804C45.87 4.96892 43.8066 4.41852 41.7535 4.1318C40.4402 3.94748 39.0438 3.87708 37.8534 4.49532C36.663 5.11356 35.7887 6.63036 36.2419 7.95644C34.7097 5.559 31.9539 4.28028 29.2377 4.0998C26.5215 3.91932 23.8284 4.71292 21.2889 5.7574C20.3225 6.15548 19.3164 6.63548 18.7353 7.5494C17.4796 9.52572 18.8556 12.1561 20.2905 13.9865C19.4355 12.1075 17.1327 11.6748 15.1743 11.6326C13.1327 11.5891 10.6854 11.982 9.83034 13.9584C8.90234 16.1011 10.5049 18.4588 11.9986 20.1984C9.79065 19.2115 6.92857 21.1212 6.79673 23.6697C6.66489 26.2182 9.31192 28.4531 11.6095 27.7299C11.0527 26.976 9.81242 27.2704 9.31962 28.0742C8.82682 28.8768 8.89593 29.9289 9.10073 30.8633C9.43225 32.3827 10.0761 33.824 10.9721 35.0579C11.662 36.0076 13.1852 36.7692 13.7484 35.7286C12.1203 35.8873 10.6444 37.1916 10.1964 38.8684C9.74841 40.544 10.359 42.4832 11.6646 43.5315C12.2444 43.9974 12.9932 44.2982 13.6985 44.1164C14.4038 43.9347 14.9874 43.1488 14.8095 42.3987C14.1017 42.0825 13.2582 42.6841 13.0226 43.4624C12.7871 44.2406 13.0111 45.0944 13.3401 45.8329C13.9327 47.1654 14.8748 48.3174 16.0306 49.1264C16.293 49.3094 16.5926 49.4822 16.9023 49.4348C17.3747 49.3632 17.646 48.832 17.8047 48.3532C18.437 46.4512 18.3654 44.5964 17.934 42.6739Z" fill="#444DF2"/>
<path d="M18.8583 29.8496C18.0403 28.8832 16.8973 28.2394 15.337 28.2035C13.0445 28.1511 10.8493 29.7306 10.0199 31.8695C8.68483 35.3139 10.9172 39.5175 13.9264 41.2941C16.5991 42.8711 19.7364 41.952 20.5159 38.8327C20.8615 37.449 20.7258 35.9975 20.5863 34.5779C20.4199 32.8679 19.9079 31.0912 18.8583 29.8496Z" fill="#F4C19F"/>
<path d="M13.8341 38.4154C13.4731 38.4154 13.1659 38.1389 13.1339 37.7729C13.0302 36.5799 13.4975 35.8631 13.9071 35.4714C14.6533 34.7585 15.7426 34.5729 16.5323 34.5434C16.4133 34.2733 16.2392 34.0481 16.0075 33.8637C14.9554 33.0266 13.0635 33.2852 13.0443 33.2877C12.6603 33.3479 12.3007 33.0817 12.2431 32.6977C12.1842 32.3137 12.4491 31.954 12.8331 31.8964C12.9343 31.881 15.3381 31.5341 16.8831 32.7617C17.6229 33.3505 18.0402 34.1799 18.1208 35.2257C18.1374 35.4369 18.0568 35.6455 17.9032 35.7914C17.7483 35.9373 17.5371 36.0052 17.3259 35.9783C16.8574 35.9181 15.5019 35.8925 14.8773 36.4916C14.6034 36.7553 14.492 37.1341 14.5368 37.6513C14.5701 38.0391 14.2834 38.3796 13.8968 38.4141C13.875 38.4141 13.8546 38.4154 13.8341 38.4154Z" fill="#EAAA7F"/>
<path d="M41.6881 61.321C41.4897 61.321 38.1848 61.3031 33.9492 60.2061C29.9812 59.1783 24.4337 56.9639 20.5451 52.256C20.298 51.9565 20.3403 51.5123 20.6398 51.2653C20.9393 51.0183 21.3835 51.0605 21.6305 51.36C25.2708 55.7671 30.5112 57.856 34.2654 58.8339C38.3704 59.9027 41.6497 59.913 41.6907 59.913C42.0798 59.913 42.3947 60.2279 42.3947 60.6157C42.3947 61.0048 42.0811 61.3197 41.692 61.321C41.692 61.321 41.6907 61.321 41.6881 61.321Z" fill="#1B1464"/>
</g>
<defs>
<clipPath id="clip0_111335_16309">
<rect x="4" y="4" width="64" height="64" rx="32" fill="white"/>
</clipPath>
</defs>
</svg>
