<svg width="72" height="72" viewBox="0 0 72 72" fill="none" xmlns="http://www.w3.org/2000/svg">
<g clip-path="url(#clip0_111335_16333)">
<path d="M68 4H4V68H68V4Z" fill="#797EF3"/>
<path d="M53.2798 33.2352C52.883 32.2368 52.8446 31.1232 52.8062 30.048C52.7678 28.7424 52.9726 27.36 53.6382 26.3232C54.1502 25.5168 54.9566 24.9152 56.1214 24.736C56.8894 24.6208 58.0414 24.672 58.5662 25.2992C59.1294 25.9648 59.3982 27.1808 59.4366 28.0256C59.4878 29.152 59.1678 30.24 58.8606 31.3024C58.515 32.4672 58.195 34.9248 56.7486 35.2192C55.2254 35.552 53.8174 34.6176 53.2798 33.2352Z" fill="#D9A48E"/>
<path d="M48.0703 68H19.5903C19.6927 67.5648 19.7951 67.1296 19.8975 66.6944C21.9327 57.9648 22.7263 49.5041 22.8415 40.3521C30.0479 43.0145 37.6255 41.8753 45.0623 41.7601C47.8271 41.7217 46.9055 44.8577 46.9311 47.7889C46.9695 51.4497 47.1103 55.0977 47.3279 58.7329C47.5199 61.8305 47.7631 64.928 48.0703 68Z" fill="#D9A48E"/>
<path d="M55.7506 21.5616C56.4802 25.0816 56.2754 28.7936 56.5186 32.5184C56.621 34.144 56.7746 35.7568 56.9922 37.3696C57.6706 42.336 58.9634 47.6608 56.7746 52.1664C55.1618 55.4816 51.8338 57.7344 48.2626 58.6816C45.677 59.3728 43.0146 59.3984 40.365 59.168C36.2562 58.8096 31.9426 57.7728 28.2306 55.7376C25.9522 54.496 23.9042 52.8704 22.2658 50.8224C20.1154 48.1088 19.5266 45.728 19.1426 42.4384C17.8498 31.392 11.2322 18.8096 23.4306 11.1936C32.3778 5.59996 47.2514 6.77756 53.4338 15.9424C54.6626 17.7344 55.3538 19.616 55.7506 21.5616Z" fill="#E5B69E"/>
<path d="M37.9527 36.5756C38.958 36.3751 39.4983 34.8357 39.1595 33.1371C38.8208 31.4386 37.7312 30.2242 36.7259 30.4247C35.7207 30.6252 35.1804 32.1647 35.5192 33.8632C35.8579 35.5617 36.9475 36.7761 37.9527 36.5756Z" fill="#1B1464"/>
<path d="M49.6764 33.3231C50.6816 33.1226 51.2219 31.5831 50.8832 29.8846C50.5444 28.186 49.4548 26.9716 48.4496 27.1721C47.4443 27.3726 46.904 28.9121 47.2428 30.6106C47.5816 32.3092 48.6711 33.5236 49.6764 33.3231Z" fill="#1B1464"/>
<path d="M33.3863 28.1843C33.9418 27.7504 34.8557 27.2934 35.8081 27.1053C36.7655 26.9171 37.6321 27.0221 38.2426 27.5213L39.1335 26.4307C38.0673 25.5603 36.7066 25.4938 35.5367 25.7242C34.3617 25.9558 33.2455 26.5088 32.521 27.0746L33.3863 28.1843ZM38.2426 27.5213C38.5434 27.767 38.9876 27.7222 39.2333 27.4214C39.4791 27.1206 39.4343 26.6765 39.1335 26.4307L38.2426 27.5213ZM32.521 27.0733C32.2138 27.3126 32.1601 27.7542 32.3994 28.0614C32.6388 28.3686 33.0804 28.4224 33.3876 28.183L32.521 27.0733Z" fill="#1B1464"/>
<path d="M45.0624 23.1488C45.4796 23.7158 45.4796 23.7158 45.4796 23.7158C45.4796 23.7158 45.4809 23.7145 45.4822 23.7145C45.4847 23.712 45.4899 23.7081 45.4988 23.703C45.5142 23.6915 45.5398 23.6748 45.5744 23.6518C45.6435 23.607 45.7472 23.5417 45.879 23.4688C46.1452 23.3216 46.5126 23.1475 46.9299 23.0297C47.7644 22.7942 48.6976 22.7993 49.4937 23.5558L50.464 22.5356C49.1724 21.3081 47.6492 21.3644 46.5472 21.6755C45.9968 21.8316 45.527 22.0544 45.198 22.2374C45.0316 22.3296 44.8985 22.4115 44.8051 22.4729C44.7577 22.5036 44.7206 22.5292 44.6937 22.5472C44.6809 22.5561 44.6694 22.5638 44.6617 22.5702C44.6579 22.5728 44.654 22.5753 44.6515 22.5779C44.6502 22.5792 44.6489 22.5792 44.6476 22.5804L44.6464 22.5817C44.6451 22.5817 44.6451 22.5817 45.0624 23.1488ZM49.4924 23.5571C49.774 23.8246 50.2195 23.8144 50.4883 23.5315C50.7558 23.2499 50.7456 22.8044 50.4627 22.5356L49.4924 23.5571ZM44.6451 22.5817C44.3328 22.8121 44.2662 23.2537 44.4966 23.566C44.727 23.8784 45.1686 23.9449 45.4809 23.7145L44.6451 22.5817Z" fill="#1B1464"/>
<path d="M38.5421 47.4868C40.9779 49.2621 44.2023 49.8791 47.1207 49.1226L46.7674 47.7594C44.2586 48.4109 41.4669 47.8759 39.3715 46.3488L38.5421 47.4868ZM47.1207 49.1226C47.497 49.0253 47.7235 48.6413 47.625 48.265C47.5277 47.8887 47.1437 47.6621 46.7674 47.7607L47.1207 49.1226ZM39.3715 46.3501C39.0579 46.121 38.6163 46.1901 38.3885 46.505C38.1607 46.8199 38.2285 47.2602 38.5434 47.488L39.3715 46.3501Z" fill="#1B1464"/>
<path d="M45.6244 31.8387C45.4938 31.2064 45.5335 30.5485 45.586 29.7766L44.1818 29.6819C44.1319 30.4205 44.0692 31.2729 44.2458 32.1254L45.6244 31.8387ZM47.6685 35.4726C46.6701 34.4371 45.9098 33.2339 45.6244 31.84L44.2445 32.1229C44.5991 33.8509 45.5297 35.2845 46.6548 36.4518L47.6685 35.4726ZM48.2458 39.9885C48.8909 39.1923 49.0727 38.3424 48.8845 37.5155C48.7066 36.7334 48.2138 36.0461 47.6711 35.4765L46.6509 36.4467C47.1194 36.9382 47.4151 37.4041 47.5111 37.8278C47.5981 38.2067 47.5431 38.6189 47.1514 39.1014L48.2458 39.9885ZM42.5908 40.7974C43.4036 41.1354 44.4455 41.3465 45.4541 41.2838C46.4602 41.2211 47.529 40.8742 48.2458 39.9898L47.1527 39.1027C46.77 39.575 46.1415 39.8297 45.3658 39.8784C44.5927 39.927 43.7658 39.7606 43.1309 39.497L42.5908 40.7974ZM45.586 29.7753C45.6129 29.3875 45.3197 29.0521 44.9306 29.0253C44.5428 28.9984 44.2074 29.2915 44.1805 29.6806L45.586 29.7753ZM44.9345 31.9808L45.6244 31.84V31.8387L44.9345 31.9808ZM47.1617 35.9616L47.6711 35.4765C47.6698 35.4752 47.6685 35.4739 47.6673 35.4726L47.1617 35.9616ZM43.1309 39.497C42.7725 39.3472 42.3604 39.5174 42.2106 39.8771C42.0609 40.2355 42.2311 40.6477 42.5908 40.7974L43.1309 39.497Z" fill="#1B1464"/>
<path d="M48.1474 48.672C48.1474 48.6976 48.1346 48.7232 48.1346 48.7488C48.0578 49.248 47.8018 49.696 47.4818 50.08C46.3938 51.3856 44.589 51.9872 42.9122 51.7824C41.2354 51.5776 39.6866 50.6304 38.573 49.3504C38.0098 48.6976 37.549 47.9424 37.421 47.0976C37.3698 46.752 37.3954 46.3552 37.6642 46.1376C37.7666 46.048 37.8946 45.9968 38.0226 45.9584C39.5586 45.4592 41.197 46.0992 42.7586 46.496C43.6802 46.7264 44.6274 46.88 45.5746 46.9824C46.829 47.1232 48.3778 46.8544 48.1474 48.672ZM56.5314 32.5184C56.365 32.9536 56.2626 33.4016 56.173 33.8496C55.8018 35.8208 55.981 37.8816 55.3666 39.8144C54.8162 41.5424 53.3698 43.104 52.0002 44.2432C51.693 44.4992 51.3602 44.7552 50.9762 44.896C49.5554 45.4208 48.1602 44.6272 46.765 44.6016C45.8178 44.576 44.8706 44.704 43.9234 44.6528C41.8882 44.5376 39.9298 43.5648 37.8818 43.6544C35.9106 43.744 34.349 45.0496 32.5058 45.6256C31.2898 46.0096 29.933 45.792 28.8066 45.1904C27.8338 44.6784 26.797 43.8592 26.2722 42.8736C25.6706 41.7344 25.5426 40.2624 25.0946 39.0464C24.8258 38.304 23.3666 35.2064 23.021 37.472C22.8034 38.8672 22.7394 40.2368 22.2274 41.5808C21.933 42.3616 21.5362 43.104 21.2802 43.8976C19.5266 49.4016 23.8274 53.344 28.2178 55.7504C31.9298 57.7728 36.2434 58.8224 40.3522 59.1808C42.989 59.4112 45.6642 59.3728 48.2498 58.6944C51.8082 57.7472 55.149 55.4816 56.7618 52.1792C58.9506 47.6736 57.6578 42.3488 56.9794 37.3824C56.7874 35.7568 56.6338 34.144 56.5314 32.5184Z" fill="#1B1464"/>
<path d="M21.2288 31.264C20.2944 30.4064 19.0784 29.92 17.5168 30.0992C15.2384 30.3424 13.2672 32.1984 12.7296 34.4256C11.8592 38.0096 14.624 41.888 17.8368 43.2576C20.6912 44.4736 23.6864 43.1552 24.0448 39.9552C24.2112 38.5344 23.8785 37.1136 23.5585 35.7312C23.1745 34.0544 22.432 32.352 21.2288 31.264Z" fill="#E5B69E"/>
<path d="M20.4991 36.832C20.4991 36.128 20.4991 36.128 20.4991 36.128C20.4991 36.128 20.4991 36.128 20.4978 36.128H20.4965C20.4953 36.128 20.494 36.128 20.4927 36.128C20.4889 36.128 20.485 36.128 20.4799 36.128C20.4697 36.128 20.4556 36.128 20.439 36.1292C20.4044 36.1305 20.3557 36.1318 20.2969 36.1344C20.1778 36.1408 20.0114 36.1536 19.8156 36.1779C19.4278 36.2278 18.8978 36.3276 18.3769 36.5388C17.8597 36.7475 17.2953 37.088 16.9138 37.6524C16.517 38.24 16.3775 38.9824 16.5733 39.8643L17.9481 39.5584C17.8239 39.0003 17.9301 38.6636 18.0799 38.4396C18.2463 38.1939 18.5305 37.9942 18.9042 37.8432C19.2729 37.6934 19.6722 37.614 19.9922 37.5744C20.1497 37.5539 20.2815 37.5449 20.3711 37.5398C20.4159 37.5372 20.4505 37.536 20.4735 37.536C20.485 37.536 20.4927 37.536 20.4965 37.536C20.4991 37.536 20.5004 37.536 20.5004 37.536C20.4991 37.536 20.4991 37.536 20.4991 36.832ZM15.7119 34.7584C15.9077 35.4342 15.9078 35.4342 15.9078 35.4342C15.9078 35.4342 15.9103 35.4342 15.9129 35.4329C15.918 35.4316 15.9257 35.4291 15.9385 35.4265C15.9628 35.4201 15.9999 35.4112 16.0498 35.3996C16.1497 35.3766 16.2956 35.3472 16.4735 35.319C16.8345 35.264 17.3055 35.2243 17.7842 35.2716C18.2655 35.319 18.7084 35.4508 19.0553 35.7017C19.3855 35.9398 19.6761 36.3212 19.813 36.9753L21.1916 36.6886C20.9881 35.7107 20.5119 35.0169 19.8809 34.56C19.2665 34.1158 18.5561 33.9328 17.9238 33.87C17.2902 33.8073 16.6924 33.8611 16.261 33.9264C16.0434 33.9596 15.863 33.9968 15.735 34.0262C15.671 34.0416 15.6197 34.0544 15.5826 34.0633C15.5647 34.0684 15.5494 34.0723 15.5391 34.0748C15.534 34.0761 15.5289 34.0774 15.5263 34.0787C15.525 34.0787 15.5238 34.08 15.5225 34.08H15.5212C15.5212 34.08 15.5212 34.08 15.5199 34.08C15.5161 34.0825 15.5161 34.0825 15.7119 34.7584ZM16.5733 39.8643C16.6578 40.2444 17.0342 40.4825 17.413 40.3993C17.7919 40.3161 18.0313 39.9385 17.9481 39.5596L16.5733 39.8643ZM20.4991 36.832V37.536C20.7116 37.536 20.9113 37.44 21.0457 37.2761C21.1788 37.1123 21.2326 36.896 21.189 36.6886L20.4991 36.832ZM15.5161 34.0825C15.1423 34.1913 14.9273 34.5817 15.0361 34.9542C15.1449 35.328 15.5353 35.543 15.9078 35.4342L15.5161 34.0825Z" fill="#DB9F7F"/>
<path d="M19.6159 18.8352C18.7967 18.8352 18.7967 20.1152 19.6159 20.1152C20.4479 20.1152 20.4479 18.8352 19.6159 18.8352Z" fill="#DB9F7F"/>
<path d="M20.7042 16.5824C19.885 16.5824 19.885 17.8624 20.7042 17.8624C21.5234 17.8624 21.5234 16.5824 20.7042 16.5824Z" fill="#DB9F7F"/>
<path d="M22.0353 18.7456C21.2161 18.7456 21.2161 20.0256 22.0353 20.0256C22.8545 20.0256 22.8545 18.7456 22.0353 18.7456Z" fill="#DB9F7F"/>
</g>
<defs>
<clipPath id="clip0_111335_16333">
<rect x="4" y="4" width="64" height="64" rx="32" fill="white"/>
</clipPath>
</defs>
</svg>
