<svg width="50" height="50" viewBox="0 0 50 50" fill="none" xmlns="http://www.w3.org/2000/svg">
<g clip-path="url(#clip0_83803_11048)">
<rect width="50" height="50" rx="25" fill="white"/>
<path d="M50 0H0V50H50V0Z" fill="#444DF2"/>
<path d="M39.98 29.71C40.46 30.81 41.23 31.76 41.82 32.8C42.41 33.84 42.81 35.09 42.48 36.24C42.77 36.31 43 35.98 43.11 35.7C43.75 33.99 43.06 31.2 42.44 29.54C41.65 27.41 39.95 25.57 39.86 23.3C39.1 25.32 39.1 27.72 39.98 29.71Z" fill="#797EF3"/>
<path d="M38.7201 7.37C40.0801 9.01999 41.1401 11.04 41.1001 13.18C41.0801 13.93 40.9301 14.66 40.7801 15.39C40.4701 16.89 40.1601 18.38 39.8501 19.88C39.7701 20.25 39.7001 20.62 39.5001 20.94C39.0401 21.69 37.9901 21.93 37.1701 21.63C36.3501 21.33 35.7401 20.58 35.4201 19.77C34.9201 18.53 34.9801 17.11 35.3501 15.83C35.7201 14.54 36.3801 13.36 37.0601 12.21C37.5701 11.35 38.1101 10.48 38.9101 9.88L38.7201 7.37Z" fill="#797EF3"/>
<path d="M30.8901 50H20.1701C20.1601 50 20.1601 50 20.1501 50C18.3401 49.91 16.5101 49.97 14.6901 49.99C14.3301 49.99 13.9701 50 13.6001 50C13.6701 49.76 13.7401 49.53 13.8001 49.3C14.9401 45.35 15.4901 41.52 15.6901 37.47C15.7301 36.69 15.7501 35.9 15.7701 35.11C16.0401 35.19 16.3101 35.26 16.5901 35.33C16.6501 35.35 16.7001 35.36 16.7601 35.37C17.2201 35.48 17.6801 35.58 18.1501 35.65C22.2301 36.35 26.4401 35.91 30.5901 35.86C32.2301 35.84 31.4801 39.05 30.8301 41.56C30.8301 41.57 30.8201 41.58 30.8201 41.59C30.5301 42.68 30.2701 43.64 30.2301 44.14C30.0801 46.11 30.2301 48.15 30.8901 50Z" fill="#E8C5AA"/>
<path d="M34.55 8.79001C33.6 8.11001 32.46 7.68001 31.25 7.26001C25.87 5.39001 19.23 5.95001 15.04 10.13C13.44 11.72 12.29 13.74 11.68 15.92C11.02 18.27 11.36 20.35 11.51 22.72C11.74 26.48 12.33 30.46 14.77 33.33C18.9 38.19 25.4 41.24 31.73 41.65C33.7 41.78 35.89 41.52 37.59 40.46C38.61 39.82 39.45 38.84 39.85 37.69C40.12 36.91 40 36.02 40.14 35.2C40.41 33.58 40.97 32.03 41.17 30.4C41.38 28.68 41.34 26.94 41.19 25.22C41.1 24.16 41.07 23.07 40.79 22.04C40.51 21 39.98 20.07 39.66 19.03C39.02 16.94 38.42 14.65 37.43 12.7C36.73 11.33 35.81 9.68001 34.55 8.79001Z" fill="#F4D3B8"/>
<path d="M32.3833 23.4835C33.1633 23.3016 33.5464 22.0859 33.2391 20.7681C32.9318 19.4503 32.0505 18.5295 31.2706 18.7114C30.4906 18.8932 30.1075 20.1089 30.4148 21.4267C30.7221 22.7445 31.6034 23.6653 32.3833 23.4835Z" fill="#1B1464"/>
<path d="M38.211 20.938C38.824 20.795 39.127 19.846 38.888 18.819C38.649 17.792 37.957 17.075 37.344 17.218C36.731 17.361 36.428 18.31 36.668 19.337C36.907 20.364 37.598 21.081 38.211 20.938Z" fill="#1B1464"/>
<path d="M39.5881 24.903C39.7391 25.084 39.7701 25.412 39.5531 25.967C39.3491 26.489 38.9981 27.017 38.7361 27.399L39.6441 28.02C39.9021 27.643 40.3221 27.021 40.5771 26.367C40.8201 25.747 41.0001 24.875 40.4321 24.196L39.5881 24.903ZM37.4801 24.055C37.8931 24.256 38.4291 24.371 38.7721 24.474C39.1681 24.592 39.4281 24.716 39.5941 24.909L40.4281 24.192C40.0441 23.745 39.5191 23.549 39.0871 23.42C38.6021 23.275 38.2681 23.215 37.9611 23.066L37.4801 24.055ZM35.1761 21.02C35.3761 22.386 36.3011 23.477 37.4781 24.054L37.9621 23.066C37.0591 22.623 36.4041 21.814 36.2641 20.86L35.1761 21.02ZM38.7361 27.399C38.5641 27.65 38.6291 27.992 38.8791 28.163C39.1291 28.334 39.4721 28.27 39.6431 28.02L38.7361 27.399ZM40.0101 24.55L40.4321 24.197C40.4301 24.195 40.4291 24.193 40.4271 24.192L40.0101 24.55ZM37.7201 23.56L37.4781 24.054C37.4791 24.054 37.4791 24.055 37.4801 24.055L37.7201 23.56ZM36.2641 20.86C36.2201 20.559 35.9411 20.352 35.6401 20.396C35.3391 20.44 35.1321 20.719 35.1761 21.02L36.2641 20.86Z" fill="#1B1464"/>
<path d="M33.04 32.449C34.666 32.331 36.636 32.175 38.065 30.971L37.356 30.13C36.245 31.066 34.655 31.23 32.961 31.352L33.04 32.449ZM30.401 32.377C31.303 32.577 32.224 32.508 33.04 32.449L32.961 31.352C32.117 31.413 31.358 31.463 30.64 31.304L30.401 32.377ZM37.63 33.022C35.378 33.952 32.546 33.291 30.931 31.475L30.109 32.206C32.034 34.37 35.362 35.149 38.05 34.039L37.63 33.022ZM38.064 30.971C38.296 30.775 38.326 30.428 38.13 30.196C37.934 29.964 37.587 29.934 37.355 30.13L38.064 30.971ZM30.52 31.84L30.639 31.303C30.406 31.251 30.166 31.356 30.045 31.561C29.924 31.767 29.95 32.027 30.108 32.205L30.52 31.84ZM38.05 34.038C38.331 33.922 38.464 33.6 38.348 33.32C38.232 33.039 37.91 32.906 37.63 33.022L38.05 34.038Z" fill="#1B1464"/>
<path d="M28.721 16.7C27.808 17.118 26.921 17.843 26.502 18.849L27.517 19.272C27.798 18.597 28.431 18.042 29.178 17.701L28.721 16.7ZM32.298 16.261C31.027 16.007 29.92 16.155 28.723 16.7L29.178 17.701C30.18 17.245 31.053 17.134 32.083 17.34L32.298 16.261ZM26.502 18.848C26.385 19.128 26.518 19.45 26.798 19.567C27.078 19.684 27.4 19.551 27.517 19.271L26.502 18.848ZM28.95 17.2L28.722 16.699C28.722 16.699 28.721 16.699 28.721 16.7L28.95 17.2ZM32.082 17.339C32.38 17.399 32.67 17.205 32.729 16.908C32.789 16.61 32.595 16.32 32.298 16.261L32.082 17.339Z" fill="#1B1464"/>
<path d="M36.0901 15.26C36.2501 15.786 36.2501 15.786 36.2491 15.786C36.2491 15.786 36.2491 15.786 36.2501 15.786C36.2511 15.786 36.2541 15.785 36.2571 15.784C36.2641 15.782 36.2771 15.778 36.2941 15.774C36.3281 15.765 36.3791 15.753 36.4451 15.739C36.5771 15.711 36.7631 15.68 36.9731 15.666C37.4111 15.636 37.8701 15.687 38.2031 15.902L38.8001 14.978C38.1721 14.573 37.4261 14.533 36.9001 14.569C36.6281 14.587 36.3901 14.627 36.2211 14.663C36.1361 14.681 36.0671 14.698 36.0171 14.71C35.9921 14.716 35.9731 14.722 35.9581 14.726C35.9511 14.728 35.9451 14.73 35.9411 14.731C35.9391 14.732 35.9371 14.732 35.9351 14.733C35.9341 14.733 35.9341 14.733 35.9331 14.734H35.9321C35.9301 14.734 35.9301 14.734 36.0901 15.26ZM38.2021 15.902C38.4571 16.067 38.7981 15.994 38.9621 15.738C39.1261 15.482 39.0541 15.142 38.7981 14.978L38.2021 15.902ZM35.9301 14.734C35.6391 14.822 35.4751 15.129 35.5631 15.42C35.6511 15.711 35.9581 15.875 36.2491 15.787L35.9301 14.734Z" fill="#1B1464"/>
<path d="M30.78 11.42C30.96 11.65 31.15 11.88 31.34 12.1C32.68 13.65 34.48 13.59 36.4 13.79C37.83 13.93 39.36 14.31 40.24 15.45C40.96 16.39 41.08 17.68 40.9 18.85C40.83 19.34 40.71 19.82 40.66 20.31C40.5 21.88 41.08 23.48 42.1 24.67C43.12 25.87 44.57 26.67 46.09 27.04C45.29 26.32 44.48 25.59 43.88 24.68C43.2 23.64 42.83 22.41 42.84 21.17C42.85 19.9 43.24 18.66 43.5 17.42C44.08 14.65 43.9 11.75 43.12 9.04002C42.47 6.80002 41.35 3.72002 39.26 2.43002C37.54 1.36002 35.67 0.820019 33.62 0.980019C31.88 1.12002 30.13 1.93002 29.14 3.38002C27.44 5.87002 29.14 9.31002 30.78 11.42Z" fill="#797EF3"/>
<path d="M30.25 6.93998C30.1 7.04998 29.95 7.14998 29.8 7.24998C29.6 7.37998 29.4 7.50998 29.2 7.62998C29.07 7.70998 28.94 7.78998 28.81 7.86998C26.8 9.14998 24.78 10.43 22.95 11.96C21.79 12.93 20.71 13.98 19.65 15.05C19.17 15.53 18.55 15.97 18.12 16.48C17.7 16.98 17.71 17.51 17.64 18.16C17.63 18.26 17.62 18.37 17.6 18.47C17.22 21.74 16.84 25.01 16.45 28.27C16.17 30.63 16.41 32.91 16.57 35.19C16.57 35.23 16.58 35.27 16.58 35.31C16.66 36.57 16.72 37.83 16.65 39.12C16.63 39.49 16.6 39.86 16.55 40.23C16.39 41.61 16.22 42.98 16.06 44.36C15.85 46.14 15.63 47.96 14.88 49.59C14.82 49.72 14.75 49.86 14.68 49.99H5.2C4.97 49.79 4.76 49.59 4.61 49.35C4.02 48.39 4.31 46.65 4.67 45.67C5.06 44.64 5.74 43.74 6.21 42.75C6.68 41.75 6.91 40.53 6.38 39.57C6.15 39.15 5.8 38.82 5.51 38.44C4.22 36.68 4.66 34.23 5.29 32.14C5.92 30.05 6.69 27.79 5.91 25.75C5.54 24.79 4.85 23.98 4.42 23.04C3.25 20.46 4.25 17.38 5.83 15.03C6.48 14.06 7.23 13.14 7.65 12.05C8.11 10.86 8.14 9.54998 8.33 8.28998C8.52 7.02998 8.94 5.70998 9.95 4.91998C10.78 4.26998 11.84 4.10998 12.81 3.75998C13.8 3.39998 14.61 2.78998 15.5 2.24998C17.57 0.999983 19.93 0.309983 22.35 0.269983C24.12 0.249983 25.89 0.549983 27.57 1.08998C28.63 1.42998 29.28 1.85998 29.9 2.48998C30.22 2.81998 30.54 3.20998 30.9 3.65998C31.17 3.99998 31.44 4.34998 31.52 4.76998C31.68 5.65998 31 6.38998 30.25 6.93998Z" fill="#797EF3"/>
<path d="M13.5201 20.19C12.8801 19.43 11.9901 18.93 10.7701 18.9C8.98009 18.86 7.26009 20.09 6.62009 21.76C5.58009 24.45 7.32009 27.74 9.67009 29.12C11.7601 30.35 14.2101 29.63 14.8201 27.2C15.0901 26.12 14.9801 24.98 14.8801 23.88C14.7401 22.55 14.3401 21.17 13.5201 20.19Z" fill="#F4D3B8"/>
<path d="M12.4 24.44C12.473 23.895 12.472 23.895 12.472 23.895C12.472 23.895 12.472 23.895 12.471 23.895H12.47C12.469 23.895 12.468 23.895 12.467 23.895C12.464 23.895 12.461 23.894 12.457 23.894C12.449 23.893 12.438 23.892 12.425 23.89C12.398 23.887 12.361 23.883 12.314 23.88C12.221 23.873 12.091 23.865 11.937 23.864C11.632 23.862 11.212 23.886 10.787 23.996C10.366 24.105 9.89298 24.311 9.54098 24.709C9.17398 25.123 8.99098 25.685 9.05198 26.388L10.148 26.293C10.109 25.846 10.226 25.595 10.365 25.438C10.519 25.264 10.759 25.139 11.063 25.061C11.363 24.983 11.68 24.963 11.932 24.964C12.056 24.965 12.158 24.971 12.229 24.976C12.264 24.979 12.291 24.981 12.308 24.983C12.317 24.984 12.323 24.985 12.326 24.985C12.328 24.985 12.329 24.985 12.329 24.985C12.327 24.985 12.327 24.985 12.4 24.44ZM8.89998 22.34C8.98198 22.884 8.98198 22.884 8.98198 22.884C8.98198 22.884 8.98398 22.884 8.98598 22.883C8.98998 22.882 8.99698 22.882 9.00598 22.88C9.02498 22.878 9.05498 22.874 9.09498 22.87C9.17398 22.862 9.28998 22.854 9.43098 22.851C9.71498 22.845 10.085 22.863 10.45 22.949C10.817 23.035 11.148 23.183 11.392 23.413C11.624 23.633 11.812 23.959 11.853 24.48L12.95 24.396C12.89 23.618 12.591 23.031 12.148 22.613C11.717 22.206 11.185 21.991 10.703 21.877C10.218 21.763 9.74998 21.743 9.40998 21.75C9.23798 21.753 9.09498 21.764 8.99298 21.773C8.94198 21.778 8.90098 21.783 8.87198 21.786C8.85698 21.788 8.84598 21.789 8.83698 21.791C8.83298 21.792 8.82898 21.792 8.82598 21.792C8.82498 21.792 8.82298 21.792 8.82298 21.793H8.82198C8.82198 21.793 8.82198 21.793 8.82098 21.793C8.81798 21.796 8.81798 21.796 8.89998 22.34ZM9.05198 26.388C9.07798 26.691 9.34498 26.915 9.64798 26.888C9.95098 26.862 10.175 26.595 10.148 26.292L9.05198 26.388ZM12.4 24.44L12.327 24.985C12.491 25.007 12.657 24.953 12.778 24.839C12.899 24.725 12.961 24.563 12.948 24.397L12.4 24.44ZM8.81798 21.796C8.51798 21.842 8.31098 22.122 8.35698 22.422C8.40298 22.722 8.68298 22.929 8.98298 22.883L8.81798 21.796Z" fill="#EABC97"/>
<path d="M14.83 13.69C15.44 11.98 16.46 10.36 17.5 8.89997C18.51 7.46997 19.88 6.29997 21.45 5.51997C22.92 4.79997 24.62 4.41997 26.2 4.83997C28.78 5.52997 30.35 8.74997 29.06 11.19C28.55 12.16 27.58 12.79 26.68 13.4C23.79 15.38 20.96 17.92 20.22 21.34C19.76 23.45 20.17 25.64 19.83 27.76C19.56 29.39 18.8 30.77 18.32 32.3C17.81 33.88 18.08 35.74 18.55 37.3C19.08 39.05 19.95 40.66 20.8 42.28C21.43 43.48 22.04 45 21.26 46.11C21.64 45.09 21.22 43.92 20.54 43.07C19.86 42.22 18.95 41.59 18.15 40.85C16.3 39.12 15.09 36.73 14.74 34.23C14.59 33.19 14.47 32.07 14.4 31.01C14.32 29.74 14.85 28.48 14.99 27.22C15.25 24.84 14.14 23.01 13.93 20.8C13.71 18.48 14.04 15.91 14.83 13.69Z" fill="#797EF3"/>
<path d="M30.3499 41.65C30.3499 41.1 30.3499 41.1 30.3499 41.1C30.3489 41.1 30.3479 41.1 30.3449 41.1C30.3399 41.1 30.3319 41.1 30.3199 41.1C30.2969 41.099 30.2609 41.098 30.2119 41.096C30.1149 41.092 29.9689 41.083 29.7779 41.064C29.3969 41.028 28.8399 40.954 28.1519 40.806C26.7749 40.51 24.8749 39.915 22.8029 38.723L22.2549 39.677C24.4419 40.935 26.4529 41.566 27.9209 41.882C28.6549 42.04 29.2549 42.12 29.6739 42.16C29.8839 42.18 30.0489 42.19 30.1629 42.195C30.2199 42.198 30.2649 42.199 30.2959 42.2C30.3119 42.2 30.3239 42.201 30.3329 42.201C30.3369 42.201 30.3409 42.201 30.3439 42.201C30.3449 42.201 30.3469 42.201 30.3469 42.201H30.3479C30.3499 42.2 30.3499 42.2 30.3499 41.65ZM22.8039 38.723C22.5409 38.572 22.2039 38.662 22.0529 38.926C21.9019 39.19 21.9919 39.526 22.2559 39.677L22.8039 38.723ZM30.3499 42.2C30.6539 42.2 30.8999 41.954 30.8999 41.65C30.8999 41.346 30.6539 41.1 30.3499 41.1V42.2Z" fill="#1B1464"/>
</g>
<circle cx="43" cy="43" r="6" fill="#686868" stroke="white" stroke-width="2"/>
<defs>
<clipPath id="clip0_83803_11048">
<rect width="50" height="50" rx="25" fill="white"/>
</clipPath>
</defs>
</svg>
