<svg width="50" height="50" viewBox="0 0 50 50" fill="none" xmlns="http://www.w3.org/2000/svg">
<g clip-path="url(#clip0_83803_11095)">
<rect width="50" height="50" rx="25" fill="white"/>
<path d="M50 0H0V50H50V0Z" fill="#797EF3"/>
<path d="M38.4999 22.84C38.1899 22.06 38.1599 21.19 38.1299 20.35C38.0999 19.33 38.2599 18.25 38.7799 17.44C39.1799 16.81 39.8099 16.34 40.7199 16.2C41.3199 16.11 42.2199 16.15 42.6299 16.64C43.0699 17.16 43.2799 18.11 43.3099 18.77C43.3499 19.65 43.0999 20.5 42.8599 21.33C42.5899 22.24 42.3399 24.16 41.2099 24.39C40.0199 24.65 38.9199 23.92 38.4999 22.84Z" fill="#D9A48E"/>
<path d="M34.4299 50H12.1799C12.2599 49.66 12.3399 49.32 12.4199 48.98C14.0099 42.16 14.6299 35.55 14.7199 28.4C20.3499 30.48 26.2699 29.59 32.0799 29.5C34.2399 29.47 33.5199 31.92 33.5399 34.21C33.5699 37.07 33.6799 39.92 33.8499 42.76C33.9999 45.18 34.1899 47.6 34.4299 50Z" fill="#D9A48E"/>
<path d="M40.43 13.72C41 16.47 40.84 19.37 41.03 22.28C41.11 23.55 41.23 24.81 41.4 26.07C41.93 29.95 42.94 34.11 41.23 37.63C39.97 40.22 37.37 41.98 34.58 42.72C32.56 43.26 30.48 43.28 28.41 43.1C25.2 42.82 21.83 42.01 18.93 40.42C17.15 39.45 15.55 38.18 14.27 36.58C12.59 34.46 12.13 32.6 11.83 30.03C10.82 21.4 5.65001 11.57 15.18 5.61998C22.17 1.24998 33.79 2.16998 38.62 9.32998C39.58 10.73 40.12 12.2 40.43 13.72Z" fill="#E5B69E"/>
<path d="M26.5255 25.4497C27.3108 25.293 27.7329 24.0903 27.4683 22.7633C27.2036 21.4363 26.3524 20.4876 25.567 20.6442C24.7817 20.8009 24.3596 22.0036 24.6242 23.3306C24.8889 24.6576 25.7401 25.6063 26.5255 25.4497Z" fill="#1B1464"/>
<path d="M35.6847 22.9087C36.47 22.752 36.8921 21.5493 36.6275 20.2223C36.3628 18.8953 35.5116 17.9466 34.7262 18.1032C33.9409 18.2599 33.5188 19.4626 33.7834 20.7896C34.0481 22.1165 34.8993 23.0653 35.6847 22.9087Z" fill="#1B1464"/>
<path d="M22.958 18.894C23.392 18.555 24.106 18.198 24.85 18.051C25.598 17.904 26.275 17.986 26.752 18.376L27.448 17.524C26.615 16.844 25.552 16.792 24.638 16.972C23.72 17.153 22.848 17.585 22.282 18.027L22.958 18.894ZM26.752 18.376C26.987 18.568 27.334 18.533 27.526 18.298C27.718 18.063 27.683 17.716 27.448 17.524L26.752 18.376ZM22.282 18.026C22.042 18.213 22 18.558 22.187 18.798C22.374 19.038 22.719 19.08 22.959 18.893L22.282 18.026Z" fill="#1B1464"/>
<path d="M32.08 14.96C32.406 15.403 32.406 15.403 32.406 15.403C32.406 15.403 32.407 15.402 32.408 15.402C32.41 15.4 32.414 15.397 32.421 15.393C32.433 15.384 32.453 15.371 32.48 15.353C32.534 15.318 32.615 15.267 32.718 15.21C32.926 15.095 33.213 14.959 33.539 14.867C34.191 14.683 34.92 14.687 35.542 15.278L36.3 14.481C35.291 13.522 34.101 13.566 33.24 13.809C32.81 13.931 32.443 14.105 32.186 14.248C32.056 14.32 31.952 14.384 31.879 14.432C31.842 14.456 31.813 14.476 31.792 14.49C31.782 14.497 31.773 14.503 31.767 14.508C31.764 14.51 31.761 14.512 31.759 14.514C31.758 14.515 31.757 14.515 31.756 14.516L31.755 14.517C31.754 14.517 31.754 14.517 32.08 14.96ZM35.541 15.279C35.761 15.488 36.109 15.48 36.319 15.259C36.528 15.039 36.52 14.691 36.299 14.481L35.541 15.279ZM31.754 14.517C31.51 14.697 31.458 15.042 31.638 15.286C31.818 15.53 32.163 15.582 32.407 15.402L31.754 14.517Z" fill="#1B1464"/>
<path d="M26.9859 33.9741C28.8889 35.3611 31.4079 35.8431 33.6879 35.2521L33.4119 34.1871C31.4519 34.6961 29.2709 34.2781 27.6339 33.0851L26.9859 33.9741ZM33.6879 35.2521C33.9819 35.1761 34.1589 34.8761 34.0819 34.5821C34.0059 34.2881 33.7059 34.1111 33.4119 34.1881L33.6879 35.2521ZM27.6339 33.0861C27.3889 32.9071 27.0439 32.9611 26.8659 33.2071C26.6879 33.4531 26.7409 33.7971 26.9869 33.9751L27.6339 33.0861Z" fill="#1B1464"/>
<path d="M32.519 21.749C32.417 21.255 32.448 20.741 32.489 20.138L31.3921 20.064C31.3531 20.641 31.3041 21.307 31.4421 21.973L32.519 21.749ZM34.1161 24.588C33.3361 23.779 32.742 22.839 32.519 21.75L31.4411 21.971C31.7181 23.321 32.445 24.441 33.324 25.353L34.1161 24.588ZM34.5671 28.116C35.0711 27.494 35.2131 26.83 35.0661 26.184C34.9271 25.573 34.5421 25.036 34.1181 24.591L33.321 25.349C33.687 25.733 33.9181 26.097 33.9931 26.428C34.0611 26.724 34.018 27.046 33.712 27.423L34.5671 28.116ZM30.149 28.748C30.784 29.012 31.598 29.177 32.386 29.128C33.172 29.079 34.0071 28.808 34.5671 28.117L33.713 27.424C33.414 27.793 32.9231 27.992 32.3171 28.03C31.7131 28.068 31.067 27.938 30.571 27.732L30.149 28.748ZM32.489 20.137C32.51 19.834 32.281 19.572 31.977 19.551C31.674 19.53 31.4121 19.759 31.391 20.063L32.489 20.137ZM31.9801 21.86L32.519 21.75V21.749L31.9801 21.86ZM33.72 24.97L34.1181 24.591C34.1171 24.59 34.116 24.589 34.115 24.588L33.72 24.97ZM30.571 27.732C30.291 27.615 29.969 27.748 29.852 28.029C29.735 28.309 29.868 28.631 30.149 28.748L30.571 27.732Z" fill="#1B1464"/>
<path d="M34.4901 34.9C34.4901 34.92 34.4801 34.94 34.4801 34.96C34.4201 35.35 34.2201 35.7 33.9701 36C33.1201 37.02 31.7101 37.49 30.4001 37.33C29.0901 37.17 27.8801 36.43 27.0101 35.43C26.5701 34.92 26.2101 34.33 26.1101 33.67C26.0701 33.4 26.0901 33.09 26.3001 32.92C26.3801 32.85 26.4801 32.81 26.5801 32.78C27.7801 32.39 29.0601 32.89 30.2801 33.2C31.0001 33.38 31.7401 33.5 32.4801 33.58C33.4601 33.69 34.6701 33.48 34.4901 34.9ZM41.0401 22.28C40.9101 22.62 40.8301 22.97 40.7601 23.32C40.4701 24.86 40.6101 26.47 40.1301 27.98C39.7001 29.33 38.5701 30.55 37.5001 31.44C37.2601 31.64 37.0001 31.84 36.7001 31.95C35.5901 32.36 34.5001 31.74 33.4101 31.72C32.6701 31.7 31.9301 31.8 31.1901 31.76C29.6001 31.67 28.0701 30.91 26.4701 30.98C24.9301 31.05 23.7101 32.07 22.2701 32.52C21.3201 32.82 20.2601 32.65 19.3801 32.18C18.6201 31.78 17.8101 31.14 17.4001 30.37C16.9301 29.48 16.8301 28.33 16.4801 27.38C16.2701 26.8 15.1301 24.38 14.8601 26.15C14.6901 27.24 14.6401 28.31 14.2401 29.36C14.0101 29.97 13.7001 30.55 13.5001 31.17C12.1301 35.47 15.4901 38.55 18.9201 40.43C21.8201 42.01 25.1901 42.83 28.4001 43.11C30.4601 43.29 32.5501 43.26 34.5701 42.73C37.3501 41.99 39.9601 40.22 41.2201 37.64C42.9301 34.12 41.9201 29.96 41.3901 26.08C41.2401 24.81 41.1201 23.55 41.0401 22.28Z" fill="#1B1464"/>
<path d="M13.4601 21.2999C12.7301 20.6299 11.7801 20.2499 10.5601 20.3899C8.78012 20.5799 7.24012 22.0299 6.82012 23.7699C6.14012 26.5699 8.30012 29.5999 10.8101 30.6699C13.0401 31.6199 15.3801 30.5899 15.6601 28.0899C15.7901 26.9799 15.5301 25.8699 15.2801 24.7899C14.9801 23.4799 14.4001 22.1499 13.4601 21.2999Z" fill="#E5B69E"/>
<path d="M12.8899 25.65C12.8899 25.1 12.8899 25.1 12.8899 25.1C12.8899 25.1 12.8899 25.1 12.8889 25.1H12.8879C12.8869 25.1 12.8859 25.1 12.8849 25.1C12.8819 25.1 12.8789 25.1 12.8749 25.1C12.8669 25.1 12.8559 25.1 12.8429 25.101C12.8159 25.102 12.7779 25.103 12.7319 25.105C12.6389 25.11 12.5089 25.12 12.3559 25.139C12.0529 25.178 11.6389 25.256 11.2319 25.421C10.8279 25.584 10.3869 25.85 10.0889 26.291C9.77893 26.75 9.66993 27.33 9.82293 28.019L10.8969 27.78C10.7999 27.344 10.8829 27.081 10.9999 26.906C11.1299 26.714 11.3519 26.558 11.6439 26.44C11.9319 26.323 12.2439 26.261 12.4939 26.23C12.6169 26.214 12.7199 26.207 12.7899 26.203C12.8249 26.201 12.8519 26.2 12.8699 26.2C12.8789 26.2 12.8849 26.2 12.8879 26.2C12.8899 26.2 12.8909 26.2 12.8909 26.2C12.8899 26.2 12.8899 26.2 12.8899 25.65ZM9.14993 24.03C9.30293 24.558 9.30293 24.558 9.30293 24.558C9.30293 24.558 9.30492 24.558 9.30692 24.557C9.31092 24.556 9.31693 24.554 9.32693 24.552C9.34593 24.547 9.37493 24.54 9.41393 24.531C9.49193 24.513 9.60592 24.49 9.74492 24.468C10.0269 24.425 10.3949 24.394 10.7689 24.431C11.1449 24.468 11.4909 24.571 11.7619 24.767C12.0199 24.953 12.2469 25.251 12.3539 25.762L13.4309 25.538C13.2719 24.774 12.8999 24.232 12.4069 23.875C11.9269 23.528 11.3719 23.385 10.8779 23.336C10.3829 23.287 9.91593 23.329 9.57893 23.38C9.40893 23.406 9.26793 23.435 9.16793 23.458C9.11793 23.47 9.07793 23.48 9.04893 23.487C9.03493 23.491 9.02293 23.494 9.01493 23.496C9.01093 23.497 9.00693 23.498 9.00493 23.499C9.00393 23.499 9.00293 23.5 9.00193 23.5H9.00093C9.00093 23.5 9.00093 23.5 8.99993 23.5C8.99693 23.502 8.99693 23.502 9.14993 24.03ZM9.82293 28.019C9.88893 28.316 10.1829 28.502 10.4789 28.437C10.7749 28.372 10.9619 28.077 10.8969 27.781L9.82293 28.019ZM12.8899 25.65V26.2C13.0559 26.2 13.2119 26.125 13.3169 25.997C13.4209 25.869 13.4629 25.7 13.4289 25.538L12.8899 25.65ZM8.99693 23.502C8.70493 23.587 8.53693 23.892 8.62193 24.183C8.70693 24.475 9.01193 24.643 9.30293 24.558L8.99693 23.502Z" fill="#DB9F7F"/>
<path d="M12.2 11.59C11.56 11.59 11.56 12.59 12.2 12.59C12.85 12.59 12.85 11.59 12.2 11.59Z" fill="#DB9F7F"/>
<path d="M13.0501 9.82996C12.4101 9.82996 12.4101 10.83 13.0501 10.83C13.6901 10.83 13.6901 9.82996 13.0501 9.82996Z" fill="#DB9F7F"/>
<path d="M14.0901 11.52C13.4501 11.52 13.4501 12.52 14.0901 12.52C14.7301 12.52 14.7301 11.52 14.0901 11.52Z" fill="#DB9F7F"/>
</g>
<circle cx="43" cy="43" r="6" fill="#92C83E" stroke="white" stroke-width="2"/>
<defs>
<clipPath id="clip0_83803_11095">
<rect width="50" height="50" rx="25" fill="white"/>
</clipPath>
</defs>
</svg>
