<svg width="72" height="72" viewBox="0 0 72 72" fill="none" xmlns="http://www.w3.org/2000/svg">
<g clip-path="url(#clip0_111335_16377)">
<path d="M68 4.00146H4V68H68V4.00146Z" fill="#444DF2"/>
<path d="M41.6514 57.2099C41.2073 60.7746 40.781 64.3969 40.6389 68H10.7676C11.1605 67.3972 11.6265 66.7597 12.1487 66.0647C14.7125 62.6587 16.79 58.8879 18.3093 54.9047C19.0684 52.9143 19.6892 50.8689 20.1589 48.7902C20.4866 47.3477 21.5797 44.2156 21.0895 42.7936C21.3698 43.6076 21.7653 44.3603 22.2505 45.0553C23.7852 47.253 26.2185 48.8542 28.7477 49.8654C32.077 51.1953 35.6687 51.7086 39.1145 52.698C39.8351 52.9053 40.5852 53.1562 41.0882 53.713C41.9049 54.6192 41.8025 55.999 41.6514 57.2099Z" fill="#444DF2"/>
<path d="M41.6514 57.2099C41.2073 60.7746 40.781 64.3969 40.6389 68H10.7676C11.1605 67.3972 11.6265 66.7597 12.1487 66.0647C14.7125 62.6587 16.79 58.8879 18.3093 54.9047C19.0684 52.9143 19.6892 50.8689 20.1589 48.7902C20.4866 47.3477 21.5797 44.2156 21.0895 42.7936C21.3698 43.6076 21.7653 44.3603 22.2505 45.0553C23.7852 47.253 26.2185 48.8542 28.7477 49.8654C32.077 51.1953 35.6687 51.7086 39.1145 52.698C39.8351 52.9053 40.5852 53.1562 41.0882 53.713C41.9049 54.6192 41.8025 55.999 41.6514 57.2099Z" fill="#EAAA7F"/>
<path d="M17.5514 27.3008C17.5105 24.5002 17.8074 21.6638 19.1015 19.1487C21.321 14.8313 26.1902 12.1549 31.1374 11.218C36.0858 10.2811 41.1738 10.8289 46.1569 11.4177C49.1508 11.7722 53.6154 12.3124 55.2218 15.0553C57.3454 18.6777 57.5514 23.9063 57.9738 27.96C58.3962 32.0137 58.9121 36.0571 59.3166 40.1133C59.6711 43.6704 59.5342 47.4463 58.0954 50.828C56.3764 54.8701 52.6132 58.1571 48.1511 59.2438C41.8036 60.7887 33.1354 58.7779 29.051 53.9613C26.0519 50.4248 22.6906 46.5695 20.7054 42.4198C18.6638 38.1524 17.833 33.4268 17.6001 28.7497C17.5758 28.2685 17.5578 27.7846 17.5514 27.3008Z" fill="#F7C9A4"/>
<path d="M22.1131 44.6111C21.203 44.7135 20.3096 44.6265 19.4917 44.2015C18.4907 43.6818 17.7931 42.7359 17.1518 41.8092C13.5589 36.6241 10.8133 30.3868 10.2475 24.0458C10.0312 21.6151 10.5982 19.0002 12.3058 17.2556C12.741 16.8114 13.2453 16.4261 13.5909 15.909C14.0466 15.2281 14.1822 14.3897 14.4741 13.623C15.4354 11.0925 17.9826 9.30567 20.4376 8.16778C31.7336 2.9327 45.6587 2.1468 56.3058 8.60169C57.2094 9.14951 58.1029 10.0186 58.7275 10.8698C61.3515 14.4473 58.7928 19.4379 55.5224 21.404C50.8696 24.202 46.0261 25.3591 40.595 24.7319C36.0357 24.2045 31.6606 22.6814 27.3278 21.1672C29.0213 25.3079 28.9573 29.9836 27.3931 34.1486C26.6674 36.0827 26.8466 37.1374 26.8274 39.1533C26.8158 40.327 26.8619 43.0905 25.4808 43.6383C24.4094 44.0633 23.2485 44.4844 22.1131 44.6111Z" fill="#1B1464"/>
<path d="M23.3766 32.2479C26.807 34.6273 27.8643 40.5638 27.9514 44.4524C27.9552 44.6341 27.9578 44.8236 28.0384 44.9874C28.2982 45.5237 24.6362 45.7106 24.3392 45.7132C22.8941 45.7272 21.4477 45.5749 20.0371 45.2575C18.5062 44.9132 18.0403 44.51 17.1302 43.1929C16.3661 42.087 15.7683 40.8608 15.4458 39.5539C14.9222 37.433 15.1693 35.0779 16.3635 33.2501C16.759 32.6447 17.2595 32.0968 17.8765 31.7205C19.5405 30.7081 21.7754 31.1369 23.3766 32.2479Z" fill="#F7C9A4"/>
<path d="M26.0261 44.7096C23.0885 46.7077 19.4277 45.5275 18.3896 44.6482C16.8779 43.3669 15.9128 41.4559 15.4443 39.5552C14.9208 37.4343 15.1678 35.0791 16.3621 33.2513C16.7576 32.6459 17.2581 32.0981 17.875 31.7218C19.539 30.708 21.7739 31.1381 23.3765 32.2478C25.1262 33.4612 26.3243 35.4388 26.5905 37.552" fill="#F7C9A4"/>
<path d="M44.6116 37.5242C45.5534 37.4624 46.2325 36.1279 46.1285 34.5435C46.0245 32.9591 45.1768 31.7248 44.235 31.7866C43.2932 31.8484 42.6141 33.183 42.7181 34.7673C42.8221 36.3517 43.6698 37.586 44.6116 37.5242Z" fill="#1B1464"/>
<path d="M54.6111 34.4546C55.5529 34.3928 56.232 33.0583 56.128 31.4739C56.024 29.8895 55.1763 28.6552 54.2345 28.7171C53.2927 28.7789 52.6136 30.1134 52.7176 31.6978C52.8216 33.2821 53.6694 34.5164 54.6111 34.4546Z" fill="#1B1464"/>
<path d="M50.7481 45.7271C49.317 45.7271 47.886 45.3035 46.9426 44.9515C46.6085 44.826 46.4383 44.4548 46.5637 44.1195C46.6892 43.7854 47.0617 43.6152 47.3957 43.7406C48.4812 44.1464 51.1794 44.9758 52.7781 43.9185C52.9061 43.8341 52.9458 43.788 52.9573 43.7713C52.9612 43.7099 52.9125 43.5473 52.8908 43.4757C52.4837 42.1227 51.9692 40.7775 51.4725 39.477C50.7071 37.4739 49.9161 35.4016 49.4693 33.2077C49.3977 32.8583 49.6242 32.5166 49.9737 32.4449C50.3231 32.3732 50.6649 32.5998 50.7365 32.9492C51.1628 35.0394 51.9346 37.0605 52.6809 39.0163C53.1865 40.3385 53.7087 41.7067 54.1298 43.1032C54.2041 43.3477 54.3269 43.756 54.1848 44.1809C54.0479 44.5918 53.724 44.8427 53.4924 44.9963C52.677 45.5339 51.7132 45.7271 50.7481 45.7271Z" fill="#1B1464"/>
<path d="M37.765 34.425C37.4527 34.425 37.1775 34.1972 37.1276 33.8785C36.6937 31.1099 38.4089 28.1686 41.0329 27.1843C41.367 27.0588 41.7394 27.2278 41.8649 27.5618C41.9903 27.8959 41.8213 28.2684 41.4873 28.3938C39.4162 29.1708 38.062 31.4926 38.405 33.6775C38.4601 34.0295 38.2194 34.361 37.8661 34.4161C37.8316 34.4225 37.7983 34.425 37.765 34.425Z" fill="#1B1464"/>
<path d="M56.4327 26.7261C56.1716 26.7261 55.9258 26.5661 55.8285 26.3075C55.6839 25.9222 55.3485 25.601 54.9108 25.4256C54.473 25.2502 54.0084 25.2515 53.6372 25.4282C53.3159 25.583 52.9293 25.4461 52.7757 25.1248C52.6209 24.8035 52.7578 24.417 53.0791 24.2621C53.7754 23.928 54.6189 23.9152 55.3921 24.225C56.1652 24.5347 56.7655 25.1274 57.0381 25.8506C57.1636 26.1846 56.9959 26.5571 56.6618 26.6838C56.5863 26.712 56.5082 26.7261 56.4327 26.7261Z" fill="#1B1464"/>
<path d="M48.1228 52.4074C46.4882 52.4074 44.8524 51.9453 43.5071 51.0276C43.2127 50.8266 43.1359 50.4247 43.3381 50.129C43.5391 49.8346 43.941 49.7578 44.2367 49.9588C46.4127 51.4436 49.4975 51.5114 51.7375 50.1213C52.0409 49.9332 52.4389 50.0266 52.6271 50.33C52.8153 50.6333 52.7218 51.0314 52.4185 51.2196C51.141 52.0132 49.6319 52.4074 48.1228 52.4074Z" fill="#1B1464"/>
<path d="M40.8321 60.6978C40.7924 60.6978 40.7527 60.694 40.7118 60.6863C35.7646 59.7558 30.8007 56.7337 26.7367 52.1771C26.4986 51.9108 26.523 51.5025 26.7892 51.2644C27.0554 51.0264 27.4638 51.0507 27.7018 51.3169C31.5777 55.6611 36.283 58.5385 40.9511 59.4153C41.3018 59.4818 41.5322 59.8185 41.467 60.1692C41.4081 60.4815 41.1367 60.6978 40.8321 60.6978Z" fill="#1B1464"/>
<path d="M19.8565 41.3024C19.525 41.3024 19.2421 41.049 19.2139 40.7123C19.1192 39.6167 19.5467 38.9588 19.923 38.5991C20.6078 37.945 21.6075 37.7735 22.3333 37.7466C22.2245 37.4996 22.0658 37.2935 21.8546 37.1258C20.8818 36.3489 19.1474 36.5921 19.1307 36.5947C18.7787 36.6459 18.4498 36.4027 18.3973 36.0507C18.3448 35.6987 18.5867 35.3697 18.9387 35.316C19.0322 35.3019 21.2389 34.9832 22.6571 36.1108C23.3368 36.651 23.7195 37.4126 23.7925 38.3725C23.8078 38.5671 23.7336 38.7578 23.5928 38.8922C23.4507 39.0266 23.2562 39.088 23.0629 39.0637C22.6328 39.0087 21.3886 38.9844 20.8152 39.5347C20.563 39.7767 20.4606 40.1248 20.5029 40.5997C20.5336 40.9555 20.2712 41.2691 19.9154 41.2998C19.8949 41.3011 19.8757 41.3024 19.8565 41.3024Z" fill="#EAAA7F"/>
</g>
<defs>
<clipPath id="clip0_111335_16377">
<rect x="4" y="4" width="64" height="64" rx="32" fill="white"/>
</clipPath>
</defs>
</svg>
