<svg width="40" height="40" viewBox="0 0 40 40" fill="none" xmlns="http://www.w3.org/2000/svg">
  <!-- Runder Hintergrund -->
  <rect width="40" height="40" rx="20" fill="transparent" />
  
  <!-- X-Symbol -->
  <path d="M20 22.4L15.1 27.3C14.9167 27.4833 14.6834 27.575 14.4 27.575C14.1167 27.575 13.8834 27.4833 13.7 27.3C13.5167 27.1167 13.425 26.8833 13.425 26.6C13.425 26.3167 13.5167 26.0833 13.7 25.9L18.6 21L13.7 16.1C13.5167 15.9167 13.425 15.6833 13.425 15.4C13.425 15.1167 13.5167 14.8833 13.7 14.7C13.8834 14.5167 14.1167 14.425 14.4 14.425C14.6834 14.425 14.9167 14.5167 15.1 14.7L20 19.6L24.9 14.7C25.0834 14.5167 25.3167 14.425 25.6 14.425C25.8834 14.425 26.1167 14.5167 26.3 14.7C26.4834 14.8833 26.575 15.1167 26.575 15.4C26.575 15.6833 26.4834 15.9167 26.3 16.1L21.4 21L26.3 25.9C26.4834 26.0833 26.575 26.3167 26.575 26.6C26.575 26.8833 26.4834 27.1167 26.3 27.3C26.1167 27.4833 25.8834 27.575 25.6 27.575C25.3167 27.575 25.0834 27.4833 24.9 27.3L20 22.4Z" fill="black"/>
</svg>

