<svg width="50" height="50" viewBox="0 0 50 50" fill="none" xmlns="http://www.w3.org/2000/svg">
<g clip-path="url(#clip0_83803_10987)">
<rect width="50" height="50" rx="25" fill="white"/>
<path d="M50 0H0V50H50V0Z" fill="#797EF3"/>
<path d="M30.9909 50H12.6289C13.0739 48.369 13.4349 46.924 13.5019 46.621C14.0869 43.94 14.4569 41.22 14.6049 38.491C14.6819 37.076 14.6999 35.658 14.6579 34.242C14.6289 33.261 14.1819 31.693 14.6269 30.758C15.4789 28.965 19.4399 31.07 21.1989 31.299C24.2199 31.693 27.2919 31.508 30.3229 31.324C29.8619 37.549 30.0879 43.815 30.9909 50Z" fill="#797EF3"/>
<path d="M43.7649 27.989C44.0479 29.27 44.5919 30.512 44.6019 31.825C44.3299 31.891 44.0769 31.674 43.8899 31.466C41.9129 29.263 41.2849 26.188 40.8699 23.257C40.6139 21.447 39.9569 18.441 40.8149 16.727C41.2519 15.854 42.8339 14.839 43.7379 15.679C44.8069 16.674 43.9449 20.182 43.8029 21.459C43.5619 23.625 43.2879 25.833 43.7649 27.989Z" fill="#444DF2"/>
<path d="M28.172 3.34399C27.329 2.86499 26.454 2.44199 25.547 2.08599C21.674 0.567988 17.125 0.413988 13.457 2.37899C10.23 4.10799 7.97004 7.30699 6.75304 10.76C5.53604 14.213 5.26803 17.926 5.24903 21.586C5.22503 26.036 5.55403 30.483 6.10203 34.898C6.45203 37.722 7.32603 44.982 11.105 45.132C15.744 45.315 20.4 45.085 24.999 44.449C28.916 43.908 35.37 46.89 38.5 44.2C40.369 42.593 39.687 36.818 40.489 34.487C41.464 31.655 42.191 28.71 42.278 25.716C42.393 21.769 41.366 17.794 39.353 14.397C38.282 12.59 36.945 10.952 35.519 9.40999C33.356 7.07199 30.929 4.90999 28.172 3.34399Z" fill="#444DF2"/>
<path d="M30.9909 50H12.6289C13.0739 48.369 13.4349 46.924 13.5019 46.621C14.0869 43.94 14.4569 41.22 14.6049 38.491C14.6819 37.076 14.6999 35.658 14.6579 34.242C14.6289 33.261 14.1819 31.693 14.6269 30.758C15.4789 28.965 19.4399 31.07 21.1989 31.299C24.2199 31.693 27.2919 31.508 30.3229 31.324C29.8619 37.549 30.0879 43.815 30.9909 50Z" fill="#E8AE8E"/>
<path d="M14.8729 37.419C17.9289 40.701 22.1369 42.782 26.6539 43.948C30.9539 45.058 36.0169 45.189 39.3089 42.208C42.0749 39.704 42.8289 35.696 43.1129 31.975C43.4529 27.517 43.3449 23.037 43.1499 18.571C43.0649 16.629 42.9619 14.674 42.4959 12.788C41.7909 9.93601 40.0299 6.14601 37.2419 4.88001C33.8739 3.35101 29.8389 2.94801 26.1949 3.36001C23.5579 3.65801 20.8749 3.97401 18.4509 5.05101C16.2729 6.01901 13.4499 7.25401 12.2869 9.41501C10.8119 12.155 9.97289 15.323 9.61589 18.401C9.07389 23.069 9.70689 27.887 11.5219 32.227C12.3529 34.22 13.4959 35.941 14.8729 37.419Z" fill="#F4C19F"/>
<path d="M12.3081 19.195C11.6691 18.44 10.7761 17.937 9.55711 17.909C7.76611 17.868 6.05111 19.102 5.40311 20.773C4.36011 23.464 6.10411 26.748 8.45511 28.136C10.5431 29.368 12.9941 28.65 13.6031 26.213C13.8731 25.132 13.7671 23.998 13.6581 22.889C13.5281 21.553 13.1281 20.165 12.3081 19.195Z" fill="#F4C19F"/>
<path d="M8.38319 25.887C8.10119 25.887 7.86118 25.671 7.83618 25.385C7.75518 24.453 8.12019 23.893 8.44019 23.587C9.02319 23.03 9.87418 22.885 10.4912 22.862C10.3982 22.651 10.2622 22.475 10.0812 22.331C9.25918 21.677 7.78118 21.879 7.76618 21.881C7.46618 21.927 7.18519 21.72 7.14019 21.42C7.09419 21.12 7.30119 20.839 7.60119 20.794C7.68019 20.782 9.55819 20.511 10.7652 21.47C11.3432 21.93 11.6692 22.578 11.7322 23.395C11.7452 23.56 11.6822 23.723 11.5622 23.837C11.4412 23.951 11.2762 24.004 11.1112 23.983C10.7452 23.936 9.68618 23.916 9.19818 24.384C8.98418 24.59 8.89719 24.886 8.93219 25.29C8.95819 25.593 8.73419 25.859 8.43219 25.886C8.41519 25.886 8.39919 25.887 8.38319 25.887Z" fill="#EAAA7F"/>
<path d="M21.3441 16.666C21.3411 16.67 21.3391 16.674 21.3361 16.678C21.0061 17.161 19.8391 17.113 19.3351 17.177C18.9161 17.23 12.9741 17.756 12.9461 17.477C13.1731 19.792 13.4001 22.108 13.6271 24.423C13.9151 27.365 14.1601 30.525 12.6921 33.091C13.2291 29.178 12.5251 25.104 10.7061 21.598C10.1271 20.481 9.42811 19.395 9.18211 18.161C8.97111 17.099 9.11211 15.999 9.33611 14.94C9.89611 12.302 10.9771 9.77599 12.4991 7.54999C15.2941 3.46399 20.3661 1.37799 25.1811 1.03599C27.3211 0.883988 29.4731 0.905988 31.6091 1.10199C34.6691 1.38299 38.1541 2.37899 40.1741 4.84799C41.3631 6.30199 42.1241 8.04999 42.8701 9.77399C43.0401 10.167 45.4061 17.406 44.8071 17.275C43.5891 17.01 42.3721 16.745 41.1541 16.48C39.8471 16.196 38.5391 15.911 37.2131 15.736C34.5041 15.379 31.7651 15.489 29.0511 15.727C28.3401 15.789 23.9071 16.802 23.5531 15.781C22.9671 14.091 22.3801 12.401 21.7941 10.711C21.6981 10.435 21.2951 10.141 21.2021 10.418C21.2041 11.579 21.9101 15.791 21.3441 16.666Z" fill="#444DF2"/>
<path d="M31.633 31.355C31.33 31.355 31.084 31.11 31.083 30.807C31.082 30.503 31.327 30.256 31.63 30.255C31.666 30.255 35.18 30.211 35.38 28.263C35.459 27.489 35.227 27.22 34.806 26.733C34.114 25.933 33.167 24.837 33.23 21.289C33.235 20.989 33.48 20.749 33.78 20.749C33.783 20.749 33.787 20.749 33.79 20.749C34.094 20.754 34.336 21.005 34.33 21.309C34.274 24.437 35.03 25.311 35.638 26.014C36.112 26.562 36.602 27.13 36.474 28.376C36.173 31.304 31.82 31.355 31.635 31.356C31.635 31.355 31.634 31.355 31.633 31.355Z" fill="#1B1464"/>
<path d="M27.2161 26.0426C28.018 25.99 28.5963 24.8541 28.5078 23.5055C28.4193 22.1569 27.6974 21.1063 26.8956 21.1589C26.0937 21.2115 25.5154 22.3475 25.6039 23.6961C25.6924 25.0447 26.4142 26.0953 27.2161 26.0426Z" fill="#1B1464"/>
<path d="M38.3267 25.7306C39.1286 25.6779 39.7069 24.542 39.6184 23.1934C39.5298 21.8448 38.808 20.7942 38.0061 20.8468C37.2043 20.8995 36.626 22.0354 36.7145 23.384C36.803 24.7326 37.5248 25.7832 38.3267 25.7306Z" fill="#1B1464"/>
<path d="M41.064 20.601C40.951 20.601 40.838 20.567 40.74 20.495C38.339 18.74 36.18 19.286 36.089 19.31C35.796 19.388 35.495 19.215 35.416 18.922C35.337 18.63 35.508 18.329 35.799 18.248C35.91 18.218 38.541 17.525 41.389 19.606C41.634 19.785 41.688 20.129 41.509 20.375C41.401 20.523 41.234 20.601 41.064 20.601Z" fill="#1B1464"/>
<path d="M21.542 21.198C21.456 21.198 21.368 21.178 21.286 21.134C21.017 20.992 20.914 20.66 21.056 20.391C21.111 20.287 22.458 17.858 28.165 17.858C28.215 17.858 28.265 17.858 28.316 17.859C28.62 17.861 28.864 18.109 28.862 18.413C28.86 18.715 28.614 18.959 28.312 18.959C28.311 18.959 28.309 18.959 28.308 18.959C23.22 18.922 22.039 20.884 22.029 20.904C21.931 21.091 21.74 21.198 21.542 21.198Z" fill="#1B1464"/>
<path d="M30.7179 36.0211C26.3649 36.0211 23.4689 32.4961 23.3389 32.3361C23.1479 32.1001 23.1849 31.7531 23.4219 31.5631C23.6579 31.3721 24.0039 31.4091 24.1949 31.6461C24.2399 31.7011 27.2949 35.3901 31.5669 34.8701C31.8689 34.8341 32.1429 35.0481 32.1789 35.3501C32.2159 35.6511 32.0009 35.9261 31.6989 35.9621C31.3649 36.0021 31.0369 36.0211 30.7179 36.0211Z" fill="#1B1464"/>
<path d="M30.081 45.1C23.67 45.1 17.124 40.197 16.849 39.988C16.607 39.805 16.559 39.46 16.743 39.218C16.926 38.976 17.271 38.928 17.514 39.111C17.579 39.16 24.044 43.999 30.082 43.999C30.386 43.999 30.632 44.245 30.632 44.549C30.632 44.853 30.385 45.1 30.081 45.1Z" fill="#1B1464"/>
</g>
<circle cx="43" cy="43" r="6" fill="#92C83E" stroke="white" stroke-width="2"/>
<defs>
<clipPath id="clip0_83803_10987">
<rect width="50" height="50" rx="25" fill="white"/>
</clipPath>
</defs>
</svg>
