<svg width="50" height="50" viewBox="0 0 50 50" fill="none" xmlns="http://www.w3.org/2000/svg">
<g clip-path="url(#clip0_83803_11018)">
<rect width="50" height="50" rx="25" fill="white"/>
<path d="M50 0.00115967H0V50H50V0.00115967Z" fill="#444DF2"/>
<path d="M29.4151 41.5702C29.0681 44.3551 28.7351 47.185 28.6241 50H5.28711C5.59411 49.529 5.95811 49.031 6.36611 48.488C8.36911 45.8271 9.99211 42.8811 11.1791 39.7692C11.7721 38.2143 12.2571 36.6163 12.6241 34.9923C12.8801 33.8654 13.7341 31.4184 13.3511 30.3074C13.5701 30.9434 13.8791 31.5314 14.2581 32.0744C15.4571 33.7914 17.3581 35.0423 19.3341 35.8323C21.9351 36.8713 24.7411 37.2723 27.4331 38.0453C27.9961 38.2073 28.5821 38.4032 28.9751 38.8382C29.6131 39.5462 29.5331 40.6242 29.4151 41.5702Z" fill="#444DF2"/>
<path d="M29.4151 41.5702C29.0681 44.3551 28.7351 47.185 28.6241 50H5.28711C5.59411 49.529 5.95811 49.031 6.36611 48.488C8.36911 45.8271 9.99211 42.8811 11.1791 39.7692C11.7721 38.2143 12.2571 36.6163 12.6241 34.9923C12.8801 33.8654 13.7341 31.4184 13.3511 30.3074C13.5701 30.9434 13.8791 31.5314 14.2581 32.0744C15.4571 33.7914 17.3581 35.0423 19.3341 35.8323C21.9351 36.8713 24.7411 37.2723 27.4331 38.0453C27.9961 38.2073 28.5821 38.4032 28.9751 38.8382C29.6131 39.5462 29.5331 40.6242 29.4151 41.5702Z" fill="#EAAA7F"/>
<path d="M10.587 18.2037C10.555 16.0158 10.787 13.7998 11.798 11.8349C13.532 8.46197 17.336 6.37101 21.201 5.63903C25.067 4.90705 29.042 5.33504 32.935 5.79503C35.274 6.07202 38.762 6.49401 40.017 8.63696C41.676 11.4669 41.837 15.5518 42.167 18.7187C42.497 21.8857 42.9 25.0446 43.216 28.2135C43.493 30.9924 43.386 33.9424 42.262 36.5843C40.919 39.7422 37.979 42.3102 34.493 43.1592C29.534 44.3661 22.762 42.7952 19.571 39.0323C17.228 36.2693 14.602 33.2574 13.051 30.0155C11.456 26.6815 10.807 22.9896 10.625 19.3357C10.606 18.9597 10.592 18.5817 10.587 18.2037Z" fill="#F7C9A4"/>
<path d="M14.151 31.7274C13.44 31.8074 12.742 31.7394 12.103 31.4074C11.321 31.0014 10.776 30.2625 10.275 29.5385C7.46798 25.4876 5.32298 20.6147 4.88098 15.6608C4.71198 13.7618 5.15498 11.7189 6.48898 10.3559C6.82898 10.0089 7.22298 9.70793 7.49298 9.30394C7.84898 8.77195 7.95498 8.11696 8.18298 7.51798C8.93398 5.54102 10.924 4.14506 12.842 3.25608C21.667 -0.833831 32.546 -1.44782 40.864 3.59507C41.57 4.02306 42.268 4.70204 42.756 5.36703C44.806 8.16196 42.807 12.0609 40.252 13.5968C36.617 15.7828 32.833 16.6868 28.59 16.1968C25.028 15.7848 21.61 14.5948 18.225 13.4118C19.548 16.6468 19.498 20.2997 18.276 23.5536C17.709 25.0646 17.849 25.8886 17.834 27.4635C17.825 28.3805 17.861 30.5394 16.782 30.9674C15.945 31.2994 15.038 31.6284 14.151 31.7274Z" fill="#1B1464"/>
<path d="M15.1381 22.0686C17.8181 23.9276 18.6441 28.5655 18.7121 31.6034C18.7151 31.7454 18.7171 31.8934 18.7801 32.0214C18.9831 32.4404 16.1221 32.5864 15.8901 32.5884C14.7611 32.5994 13.6311 32.4804 12.5291 32.2324C11.3331 31.9634 10.9691 31.6484 10.2581 30.6194C9.66106 29.7554 9.19406 28.7975 8.94206 27.7765C8.53306 26.1195 8.72606 24.2796 9.65906 22.8516C9.96806 22.3786 10.3591 21.9506 10.8411 21.6566C12.1411 20.8656 13.8871 21.2006 15.1381 22.0686Z" fill="#F7C9A4"/>
<path d="M17.2081 31.8044C14.9131 33.3654 12.0531 32.4434 11.2421 31.7564C10.0611 30.7555 9.30708 29.2625 8.94108 27.7775C8.53208 26.1206 8.72508 24.2806 9.65808 22.8526C9.96708 22.3797 10.3581 21.9517 10.8401 21.6577C12.1401 20.8657 13.8861 21.2017 15.1381 22.0687C16.5051 23.0166 17.4411 24.5616 17.6491 26.2126" fill="#F7C9A4"/>
<path d="M31.7277 26.1909C32.4635 26.1426 32.9941 25.1 32.9128 23.8622C32.8316 22.6244 32.1693 21.6601 31.4335 21.7084C30.6978 21.7567 30.1672 22.7993 30.2484 24.0371C30.3297 25.2749 30.992 26.2392 31.7277 26.1909Z" fill="#1B1464"/>
<path d="M39.54 23.7927C40.2758 23.7444 40.8063 22.7019 40.7251 21.4641C40.6438 20.2263 39.9815 19.262 39.2458 19.3103C38.51 19.3586 37.9794 20.4011 38.0607 21.6389C38.1419 22.8767 38.8042 23.841 39.54 23.7927Z" fill="#1B1464"/>
<path d="M36.5219 32.5994C35.4039 32.5994 34.2859 32.2685 33.5489 31.9935C33.2879 31.8955 33.1549 31.6055 33.2529 31.3435C33.3509 31.0825 33.6419 30.9495 33.9029 31.0475C34.7509 31.3645 36.8589 32.0125 38.1079 31.1865C38.2079 31.1205 38.2389 31.0845 38.2479 31.0715C38.2509 31.0235 38.2129 30.8965 38.1959 30.8405C37.8779 29.7835 37.4759 28.7325 37.0879 27.7166C36.4899 26.1516 35.8719 24.5326 35.5229 22.8187C35.4669 22.5457 35.6439 22.2787 35.9169 22.2227C36.1899 22.1667 36.4569 22.3437 36.5129 22.6167C36.8459 24.2496 37.4489 25.8286 38.0319 27.3566C38.4269 28.3895 38.8349 29.4585 39.1639 30.5495C39.2219 30.7405 39.3179 31.0595 39.2069 31.3915C39.0999 31.7125 38.8469 31.9085 38.6659 32.0285C38.0289 32.4485 37.2759 32.5994 36.5219 32.5994Z" fill="#1B1464"/>
<path d="M26.379 23.7696C26.135 23.7696 25.92 23.5916 25.881 23.3426C25.542 21.1797 26.882 18.8817 28.932 18.1128C29.193 18.0148 29.484 18.1468 29.582 18.4077C29.68 18.6687 29.548 18.9597 29.287 19.0577C27.669 19.6647 26.611 21.4787 26.879 23.1856C26.922 23.4606 26.734 23.7196 26.458 23.7626C26.431 23.7676 26.405 23.7696 26.379 23.7696Z" fill="#1B1464"/>
<path d="M40.963 17.7548C40.759 17.7548 40.567 17.6298 40.491 17.4278C40.378 17.1268 40.116 16.8758 39.774 16.7388C39.432 16.6018 39.069 16.6028 38.779 16.7408C38.528 16.8618 38.226 16.7548 38.106 16.5038C37.985 16.2528 38.092 15.9508 38.343 15.8298C38.887 15.5688 39.546 15.5588 40.15 15.8008C40.754 16.0428 41.223 16.5058 41.436 17.0708C41.534 17.3318 41.403 17.6228 41.142 17.7218C41.083 17.7438 41.022 17.7548 40.963 17.7548Z" fill="#1B1464"/>
<path d="M34.4711 37.8184C33.1941 37.8184 31.9161 37.4574 30.8651 36.7404C30.6351 36.5834 30.5751 36.2694 30.7331 36.0384C30.8901 35.8084 31.2041 35.7484 31.4351 35.9054C33.1351 37.0654 35.5451 37.1184 37.2951 36.0324C37.5321 35.8854 37.8431 35.9584 37.9901 36.1954C38.1371 36.4324 38.0641 36.7434 37.8271 36.8904C36.8291 37.5104 35.6501 37.8184 34.4711 37.8184Z" fill="#1B1464"/>
<path d="M28.7751 44.2951C28.7441 44.2951 28.7131 44.2921 28.6811 44.2861C24.8161 43.5591 20.9381 41.1982 17.7631 37.6383C17.5771 37.4303 17.5961 37.1113 17.8041 36.9253C18.0121 36.7393 18.3311 36.7583 18.5171 36.9663C21.5451 40.3602 25.2211 42.6082 28.8681 43.2931C29.1421 43.3451 29.3221 43.6081 29.2711 43.8821C29.2251 44.1261 29.0131 44.2951 28.7751 44.2951Z" fill="#1B1464"/>
<path d="M12.388 29.1425C12.129 29.1425 11.908 28.9445 11.886 28.6815C11.812 27.8255 12.146 27.3115 12.44 27.0305C12.975 26.5195 13.756 26.3855 14.323 26.3645C14.238 26.1716 14.114 26.0106 13.949 25.8796C13.189 25.2726 11.834 25.4626 11.821 25.4646C11.546 25.5046 11.289 25.3146 11.248 25.0396C11.207 24.7646 11.396 24.5076 11.671 24.4656C11.744 24.4546 13.468 24.2056 14.576 25.0866C15.107 25.5086 15.406 26.1036 15.463 26.8535C15.475 27.0055 15.417 27.1545 15.307 27.2595C15.196 27.3645 15.044 27.4125 14.893 27.3935C14.557 27.3505 13.585 27.3315 13.137 27.7615C12.94 27.9505 12.86 28.2225 12.893 28.5935C12.917 28.8715 12.712 29.1165 12.434 29.1405C12.418 29.1415 12.403 29.1425 12.388 29.1425Z" fill="#EAAA7F"/>
</g>
<circle cx="43" cy="43" r="6" fill="#92C83E" stroke="white" stroke-width="2"/>
<defs>
<clipPath id="clip0_83803_11018">
<rect width="50" height="50" rx="25" fill="white"/>
</clipPath>
</defs>
</svg>
