<svg width="50" height="50" viewBox="0 0 50 50" fill="none" xmlns="http://www.w3.org/2000/svg">
<g clip-path="url(#clip0_83803_11072)">
<rect width="50" height="50" rx="25" fill="white"/>
<path d="M50 0H0V50H50V0Z" fill="#ADB0D9"/>
<path d="M37.3899 13.58C37.5799 12.88 38.0899 12.21 37.9599 11.5C37.8599 10.95 37.6299 10.38 37.6999 9.81003C37.7499 9.39003 38.3799 8.13003 38.9299 8.28003C39.1499 8.34003 39.2599 8.59003 39.3299 8.80003C39.7299 9.95003 40.0499 10.93 40.1799 12.16C40.3099 13.4 40.3399 14.65 40.2899 15.9C40.2599 16.67 40.1899 17.45 39.8799 18.15C39.6099 18.77 39.1499 19.31 38.5899 19.68C38.4299 19.33 38.0899 19.11 37.8399 18.82C37.4399 18.37 37.2499 17.78 37.1399 17.19C37.1399 15.94 37.0599 14.82 37.3899 13.58Z" fill="#444DF2"/>
<path d="M36.23 25.0001C36.03 24.1801 36.11 23.3201 36.19 22.4801C36.29 21.4701 36.59 20.4201 37.21 19.6801C37.69 19.1101 38.37 18.7301 39.29 18.7101C39.9 18.7001 40.78 18.8501 41.13 19.4001C41.49 19.9801 41.58 20.9501 41.53 21.6001C41.46 22.4801 41.1 23.2901 40.75 24.0801C40.37 24.9501 39.87 26.8201 38.71 26.9001C37.5 26.9901 36.51 26.1301 36.23 25.0001Z" fill="#F5B18F"/>
<path d="M29.79 50H7.54004C7.62004 49.66 7.70004 49.32 7.78004 48.98C9.37004 42.16 9.99004 35.55 10.08 28.4C15.71 30.48 21.63 29.59 27.44 29.5C29.6 29.47 28.88 31.92 28.9 34.21C28.93 37.07 29.04 39.92 29.21 42.76C29.35 45.18 29.55 47.6 29.79 50Z" fill="#F5B18F"/>
<path d="M39.5899 16.2C39.3599 19.06 39.0099 21.92 38.8199 24.79C38.7399 26.06 38.6899 27.32 38.6899 28.59C38.6999 32.51 39.1699 36.76 37.0099 40.0299C35.4199 42.43 32.6099 43.84 29.7499 44.21C27.6799 44.48 25.6099 44.2299 23.5899 43.7799C20.4399 43.09 17.2099 41.83 14.5399 39.88C12.8999 38.68 11.4799 37.22 10.4299 35.46C9.41992 33.78 8.81992 31.89 8.50992 29.94C8.34992 28.91 8.26992 27.86 8.25992 26.81C8.23992 24.86 8.43993 22.91 8.71993 20.98C9.11993 18.22 9.50992 15.3 11.0799 12.92C12.5499 10.7 14.7299 8.96995 17.1599 7.89995C21.2199 6.11995 25.8099 5.99995 30.2399 6.26995C31.8099 6.36995 33.3899 6.50995 34.8799 7.00995C36.3699 7.50995 37.7699 8.39995 38.6199 9.70995C39.8299 11.58 39.7699 13.98 39.5899 16.2Z" fill="#FEC29B"/>
<path d="M24.1273 26.0463C24.9264 25.9939 25.5024 24.8567 25.4138 23.5065C25.3251 22.1562 24.6055 21.1042 23.8063 21.1566C23.0072 21.2091 22.4312 22.3462 22.5199 23.6964C22.6085 25.0467 23.3281 26.0988 24.1273 26.0463Z" fill="#1B1464"/>
<path d="M33.5387 24.7363C34.3378 24.6838 34.9138 23.5467 34.8251 22.1964C34.7365 20.8462 34.0168 19.7941 33.2177 19.8466C32.4186 19.899 31.8426 21.0361 31.9312 22.3864C32.0199 23.7366 32.7395 24.7887 33.5387 24.7363Z" fill="#1B1464"/>
<path d="M21.442 19.0721C21.914 18.7911 22.667 18.5281 23.423 18.4801C24.183 18.4321 24.84 18.6041 25.257 19.0541L26.064 18.3061C25.332 17.5161 24.283 17.3231 23.353 17.3821C22.419 17.4411 21.497 17.7591 20.879 18.1271L21.442 19.0721ZM25.257 19.0541C25.464 19.2771 25.812 19.2901 26.034 19.0831C26.257 18.8761 26.27 18.5281 26.063 18.3061L25.257 19.0541ZM20.878 18.1281C20.617 18.2841 20.532 18.6211 20.687 18.8821C20.843 19.1431 21.18 19.2281 21.441 19.0731L20.878 18.1281Z" fill="#1B1464"/>
<path d="M33.3201 17.8799C33.5871 18.3609 33.5861 18.3609 33.5861 18.3609C33.5861 18.3609 33.5871 18.3609 33.5881 18.3599C33.5901 18.3589 33.5951 18.3559 33.6021 18.3529C33.6151 18.3459 33.6371 18.3349 33.6661 18.3209C33.7241 18.2929 33.8111 18.2539 33.9201 18.2109C34.1411 18.1239 34.4431 18.0269 34.7781 17.9779C35.4481 17.8799 36.1721 17.9779 36.7141 18.6469L37.5681 17.9539C36.6901 16.8719 35.5041 16.7609 34.6191 16.8899C34.1771 16.9549 33.7901 17.0799 33.5171 17.1879C33.3791 17.2419 33.2671 17.2929 33.1891 17.3309C33.1491 17.3499 33.1181 17.3659 33.0961 17.3779C33.0851 17.3839 33.0761 17.3889 33.0691 17.3919C33.0661 17.3939 33.0631 17.3949 33.0611 17.3969C33.0601 17.3979 33.0591 17.3979 33.0581 17.3989C33.0581 17.3989 33.0571 17.3989 33.0571 17.3999C33.0541 17.3989 33.0531 17.3989 33.3201 17.8799ZM36.7131 18.6469C36.9041 18.8829 37.2511 18.9189 37.4871 18.7279C37.7231 18.5369 37.7591 18.1899 37.5681 17.9539L36.7131 18.6469ZM33.0531 17.3989C32.7871 17.5459 32.6911 17.8809 32.8391 18.1469C32.9861 18.4129 33.3211 18.5089 33.5871 18.3609L33.0531 17.3989Z" fill="#1B1464"/>
<path d="M23.4599 34.548C25.1599 36.173 27.6039 36.976 29.9349 36.696L29.8039 35.604C27.7949 35.845 25.679 35.148 24.219 33.752L23.4599 34.548ZM29.9349 36.696C30.2369 36.66 30.4519 36.386 30.4159 36.084C30.3799 35.782 30.1059 35.567 29.8039 35.603L29.9349 36.696ZM24.22 33.752C24 33.542 23.6519 33.55 23.4419 33.77C23.2319 33.99 23.2399 34.338 23.4599 34.548L24.22 33.752Z" fill="#1B1464"/>
<path d="M39.4899 10.47C38.6599 12.96 34.8099 13.39 32.6099 13.63C29.2599 14 26.2799 13.25 23.0599 12.5C22.6399 12.4 17.2099 11.07 17.2099 11.07C16.9299 13.85 16.2999 16.31 14.6099 18.54C13.8799 19.5 14.5199 20.7 14.4099 21.96C14.2799 23.57 14.2299 25.53 13.7299 27.07C13.6699 27.27 13.4799 27.44 13.2699 27.41C12.9799 27.37 12.8899 27.02 12.7799 26.75C12.5299 26.12 11.8199 25.55 11.1199 25.85C10.4599 26.14 10.1299 27.17 9.7899 27.74C9.4699 28.28 8.9699 28.74 8.7899 29.34C8.7299 29.54 8.7099 29.75 8.6199 29.94C8.5299 30.13 8.3499 30.3 8.1399 30.3C7.9899 30.3 7.8499 30.2 7.7399 30.1C6.6499 29.16 6.4699 27.92 6.0999 26.64C5.6799 25.14 5.50989 23.59 5.35989 22.05C5.26989 21.05 5.18989 20.04 5.05989 19.04C4.94989 18.17 4.7099 17.31 4.6999 16.43C4.6599 13.59 5.2499 10.71 6.6399 8.25C8.4599 5.05 12.1699 3.36 15.4999 2.48C20.9799 1.04 26.4499 1.83 31.7799 3.53C33.9299 4.22 40.5099 7.44 39.4899 10.47Z" fill="#444DF2"/>
<path d="M31.4701 25.653C31.0301 25.253 30.7181 25.026 30.4851 24.719C30.2951 24.467 30.1891 24.19 30.2631 23.739L29.1771 23.561C29.0511 24.33 29.2501 24.908 29.6071 25.381C29.9221 25.798 30.3991 26.166 30.7301 26.467L31.4701 25.653ZM32.4201 27.817C32.4451 26.992 32.0681 26.19 31.4681 25.651L30.7331 26.469C31.1131 26.81 31.3351 27.308 31.3211 27.783L32.4201 27.817ZM27.1851 29.766C28.0711 30.279 29.2911 30.568 30.3421 30.359C30.8781 30.253 31.3951 30.011 31.7851 29.574C32.1791 29.133 32.3991 28.541 32.4191 27.815L31.3191 27.784C31.3041 28.298 31.1551 28.627 30.9631 28.842C30.7681 29.061 30.4861 29.209 30.1261 29.28C29.3871 29.427 28.4371 29.221 27.7331 28.813L27.1851 29.766ZM30.2631 23.739C30.3121 23.439 30.1091 23.156 29.8091 23.107C29.5091 23.058 29.2261 23.261 29.1771 23.561L30.2631 23.739ZM31.1001 26.06L30.7301 26.467C30.7311 26.468 30.7321 26.469 30.7331 26.469L31.1001 26.06ZM31.8701 27.8L31.3201 27.783V27.784L31.8701 27.8ZM27.7351 28.814C27.4721 28.662 27.1361 28.752 26.9831 29.015C26.8311 29.278 26.9211 29.614 27.1841 29.767L27.7351 28.814Z" fill="#1B1464"/>
<path d="M11.6099 20.19C10.9699 19.43 10.0799 18.93 8.85993 18.9C7.06993 18.86 5.34993 20.09 4.70993 21.76C3.66993 24.45 5.40993 27.74 7.75993 29.12C9.84993 30.35 12.2999 29.63 12.9099 27.2C13.1799 26.12 13.0699 24.98 12.9699 23.88C12.8299 22.55 12.4299 21.17 11.6099 20.19Z" fill="#FEC29B"/>
<path d="M10.4801 24.44C10.5531 23.895 10.5521 23.895 10.5521 23.895C10.5521 23.895 10.5521 23.895 10.5511 23.895H10.5501C10.5491 23.895 10.5481 23.895 10.5471 23.895C10.5441 23.895 10.5411 23.894 10.5371 23.894C10.5291 23.893 10.5181 23.892 10.5051 23.89C10.4781 23.887 10.4411 23.883 10.3941 23.88C10.3011 23.873 10.1711 23.865 10.0171 23.864C9.71206 23.862 9.29206 23.886 8.86706 23.996C8.44606 24.105 7.97307 24.311 7.62107 24.709C7.25407 25.123 7.07106 25.685 7.13206 26.388L8.22807 26.293C8.18907 25.846 8.30606 25.595 8.44506 25.438C8.59906 25.264 8.83906 25.139 9.14306 25.061C9.44306 24.983 9.76006 24.963 10.0121 24.964C10.1361 24.965 10.2381 24.971 10.3091 24.976C10.3441 24.979 10.3711 24.981 10.3881 24.983C10.3971 24.984 10.4031 24.985 10.4061 24.985C10.4081 24.985 10.4091 24.985 10.4091 24.985C10.4071 24.985 10.4071 24.985 10.4801 24.44ZM6.98006 22.34C7.06206 22.884 7.06206 22.884 7.06206 22.884C7.06206 22.884 7.06406 22.884 7.06606 22.883C7.07006 22.882 7.07706 22.882 7.08606 22.88C7.10506 22.878 7.13506 22.874 7.17506 22.87C7.25406 22.862 7.37006 22.854 7.51106 22.851C7.79506 22.845 8.16506 22.863 8.53006 22.949C8.89706 23.035 9.22806 23.183 9.47206 23.413C9.70406 23.633 9.89206 23.959 9.93306 24.48L11.0301 24.396C10.9701 23.618 10.6711 23.031 10.2281 22.613C9.79707 22.206 9.26506 21.991 8.78306 21.877C8.29806 21.763 7.83007 21.743 7.49007 21.75C7.31807 21.753 7.17506 21.764 7.07306 21.773C7.02206 21.778 6.98106 21.783 6.95206 21.786C6.93707 21.788 6.92606 21.789 6.91706 21.791C6.91306 21.792 6.90906 21.792 6.90606 21.792C6.90506 21.792 6.90307 21.792 6.90307 21.793H6.90207C6.90207 21.793 6.90206 21.793 6.90106 21.793C6.89806 21.796 6.89806 21.796 6.98006 22.34ZM7.13206 26.388C7.15806 26.691 7.42507 26.915 7.72807 26.888C8.03107 26.862 8.25507 26.595 8.22807 26.292L7.13206 26.388ZM10.4801 24.44L10.4071 24.985C10.5711 25.007 10.7371 24.953 10.8581 24.839C10.9791 24.725 11.0411 24.563 11.0281 24.397L10.4801 24.44ZM6.89806 21.796C6.59806 21.842 6.39106 22.122 6.43706 22.422C6.48306 22.722 6.76306 22.929 7.06306 22.883L6.89806 21.796Z" fill="#F4AC7D"/>
<path d="M28.6249 43.601C24.4829 43.786 19.5709 42.513 16.1449 40.223L15.5339 41.137C19.1679 43.567 24.3159 44.894 28.6739 44.699L28.6249 43.601ZM16.1459 40.223C15.8929 40.054 15.5519 40.122 15.3829 40.375C15.2139 40.628 15.2819 40.969 15.5349 41.138L16.1459 40.223ZM28.6749 44.699C28.9779 44.685 29.2129 44.428 29.1999 44.125C29.1869 43.822 28.9289 43.587 28.6259 43.6L28.6749 44.699Z" fill="#1B1464"/>
</g>
<circle cx="43" cy="43" r="6" fill="#92C83E" stroke="white" stroke-width="2"/>
<defs>
<clipPath id="clip0_83803_11072">
<rect width="50" height="50" rx="25" fill="white"/>
</clipPath>
</defs>
</svg>
