<svg width="74" height="320" viewBox="0 0 74 320" fill="none" xmlns="http://www.w3.org/2000/svg">
<g filter="url(#filter0_d_1854_19299)">
<path d="M3 3H33C49.5685 3 63 16.4315 63 33V279C63 295.569 49.5685 309 33 309H3V3Z" fill="white"/>
<rect x="25" y="37" width="16" height="16" rx="1" stroke="#444DF2" stroke-width="2.5"/>
<path d="M30.7144 37V53" stroke="#444DF2" stroke-width="2.5"/>
<path d="M34.143 47.2856L36.0752 45.3535C36.2704 45.1582 36.2704 44.8416 36.0752 44.6464L34.143 42.7142" stroke="#444DF2" stroke-width="2.5" stroke-linecap="round"/>
<path d="M40.16 279.5C40.16 279.86 40.0733 280.153 39.9 280.38C39.7267 280.593 39.4533 280.767 39.08 280.9L27.26 285.08C26.8333 285.227 26.4733 285.2 26.18 285C25.8867 284.787 25.74 284.433 25.74 283.94C25.74 283.58 25.8267 283.3 26 283.1C26.16 282.9 26.42 282.74 26.78 282.62L37.46 279.02L37.46 279.82L26.8 276.06C26.44 275.927 26.1733 275.76 26 275.56C25.8267 275.36 25.74 275.1 25.74 274.78C25.74 274.46 25.8267 274.207 26 274.02C26.1733 273.833 26.4467 273.673 26.82 273.54L37.46 269.9L37.46 270.6L26.78 266.94C26.4333 266.82 26.1733 266.66 26 266.46C25.8267 266.26 25.74 265.987 25.74 265.64C25.74 265.213 25.8867 264.9 26.18 264.7C26.4733 264.5 26.8333 264.473 27.26 264.62L39.1 268.84C39.46 268.973 39.7267 269.147 39.9 269.36C40.0733 269.573 40.16 269.86 40.16 270.22C40.16 270.58 40.0733 270.867 39.9 271.08C39.7267 271.293 39.4533 271.467 39.08 271.6L29.16 275.08L29.16 274.62L39.1 278.14C39.46 278.273 39.7267 278.447 39.9 278.66C40.0733 278.86 40.16 279.14 40.16 279.5ZM40.2 259.224C40.2 260.238 39.9933 261.118 39.58 261.864C39.1667 262.611 38.58 263.191 37.82 263.604C37.0467 264.018 36.14 264.224 35.1 264.224C34.3133 264.224 33.6133 264.111 33 263.884C32.3733 263.644 31.84 263.304 31.4 262.864C30.9467 262.424 30.6067 261.898 30.38 261.284C30.14 260.671 30.02 259.984 30.02 259.224C30.02 258.211 30.2267 257.331 30.64 256.584C31.0533 255.838 31.64 255.258 32.4 254.844C33.16 254.431 34.06 254.224 35.1 254.224C35.8867 254.224 36.5933 254.344 37.22 254.584C37.8467 254.811 38.3867 255.144 38.84 255.584C39.28 256.024 39.62 256.551 39.86 257.164C40.0867 257.778 40.2 258.464 40.2 259.224ZM38.3 259.224C38.3 258.731 38.18 258.298 37.94 257.924C37.7 257.551 37.3467 257.264 36.88 257.064C36.4 256.851 35.8067 256.744 35.1 256.744C34.0333 256.744 33.24 256.971 32.72 257.424C32.1867 257.878 31.92 258.478 31.92 259.224C31.92 259.718 32.04 260.151 32.28 260.524C32.5067 260.898 32.86 261.191 33.34 261.404C33.8067 261.604 34.3933 261.704 35.1 261.704C36.1533 261.704 36.9533 261.478 37.5 261.024C38.0333 260.571 38.3 259.971 38.3 259.224ZM40.16 250.881C40.16 251.294 40.0533 251.614 39.84 251.841C39.6133 252.054 39.2933 252.161 38.88 252.161L31.32 252.161C30.9067 252.161 30.5933 252.054 30.38 251.841C30.1667 251.628 30.06 251.328 30.06 250.941C30.06 250.554 30.1667 250.254 30.38 250.041C30.5933 249.828 30.9067 249.721 31.32 249.721L32.58 249.721L32.58 249.921C31.78 249.734 31.1733 249.368 30.76 248.821C30.3467 248.274 30.1 247.548 30.02 246.641C29.9933 246.361 30.0667 246.141 30.24 245.981C30.4 245.808 30.6533 245.708 31 245.681C31.3333 245.654 31.6067 245.734 31.82 245.921C32.02 246.094 32.14 246.361 32.18 246.721L32.22 247.161C32.3 247.974 32.5533 248.588 32.98 249.001C33.3933 249.414 33.98 249.621 34.74 249.621L38.88 249.621C39.2933 249.621 39.6133 249.728 39.84 249.941C40.0533 250.154 40.16 250.468 40.16 250.881ZM40.16 243.089C40.16 243.489 40.0533 243.796 39.84 244.009C39.6133 244.222 39.2933 244.329 38.88 244.329L27 244.329C26.5867 244.329 26.2733 244.222 26.06 244.009C25.8467 243.796 25.74 243.489 25.74 243.089C25.74 242.689 25.8467 242.382 26.06 242.169C26.2733 241.942 26.5867 241.829 27 241.829L34.38 241.829L34.38 241.789L30.9 238.489C30.6333 238.222 30.4267 237.989 30.28 237.789C30.1333 237.589 30.06 237.316 30.06 236.969C30.06 236.622 30.1533 236.362 30.34 236.189C30.5133 236.002 30.7267 235.909 30.98 235.909C31.2333 235.909 31.4867 236.029 31.74 236.269L35.42 239.749L34.38 239.749L38.5 235.929C38.7533 235.689 39.0133 235.582 39.28 235.609C39.5333 235.622 39.7467 235.729 39.92 235.929C40.08 236.129 40.16 236.382 40.16 236.689C40.16 237.062 40.0867 237.362 39.94 237.589C39.7933 237.802 39.5733 238.042 39.28 238.309L35.64 241.789L35.64 241.829L38.88 241.829C39.7333 241.829 40.16 242.249 40.16 243.089ZM40.2 230.182C40.2 230.756 40.14 231.362 40.02 232.002C39.9 232.642 39.6933 233.216 39.4 233.722C39.2667 233.936 39.1133 234.089 38.94 234.182C38.7533 234.262 38.5733 234.296 38.4 234.282C38.2133 234.256 38.0533 234.189 37.92 234.082C37.7867 233.962 37.7 233.816 37.66 233.642C37.62 233.456 37.6533 233.256 37.76 233.042C38.0133 232.509 38.1933 232.009 38.3 231.542C38.3933 231.076 38.44 230.616 38.44 230.162C38.44 229.522 38.3333 229.049 38.12 228.742C37.8933 228.422 37.6 228.262 37.24 228.262C36.9333 228.262 36.7 228.369 36.54 228.582C36.3667 228.782 36.24 229.089 36.16 229.502L35.78 231.502C35.62 232.329 35.32 232.962 34.88 233.402C34.4267 233.829 33.8467 234.042 33.14 234.042C32.5 234.042 31.9467 233.869 31.48 233.522C31.0133 233.162 30.6533 232.669 30.4 232.042C30.1467 231.416 30.02 230.696 30.02 229.882C30.02 229.296 30.0867 228.749 30.22 228.242C30.34 227.722 30.5333 227.222 30.8 226.742C30.9067 226.542 31.0467 226.409 31.22 226.342C31.3933 226.262 31.5733 226.242 31.76 226.282C31.9333 226.322 32.0933 226.402 32.24 226.522C32.3733 226.642 32.46 226.796 32.5 226.982C32.5267 227.156 32.4867 227.356 32.38 227.582C32.1667 227.996 32.0133 228.396 31.92 228.782C31.8267 229.156 31.78 229.516 31.78 229.862C31.78 230.516 31.8933 231.002 32.12 231.322C32.3467 231.629 32.6467 231.782 33.02 231.782C33.3 231.782 33.5333 231.689 33.72 231.502C33.9067 231.316 34.0333 231.029 34.1 230.642L34.48 228.642C34.64 227.776 34.9333 227.122 35.36 226.682C35.7867 226.229 36.36 226.002 37.08 226.002C38.0533 226.002 38.82 226.382 39.38 227.142C39.9267 227.902 40.2 228.916 40.2 230.182ZM43.76 222.757C43.76 223.157 43.6533 223.464 43.44 223.677C43.2267 223.89 42.9133 223.997 42.5 223.997L31.32 223.997C30.9067 223.997 30.5933 223.89 30.38 223.677C30.1667 223.464 30.06 223.164 30.06 222.777C30.06 222.377 30.1667 222.07 30.38 221.857C30.5933 221.644 30.9067 221.537 31.32 221.537L32.88 221.537L32.28 221.757C31.6 221.557 31.0533 221.15 30.64 220.537C30.2267 219.91 30.02 219.184 30.02 218.357C30.02 217.504 30.2267 216.757 30.64 216.117C31.0533 215.464 31.64 214.957 32.4 214.597C33.1467 214.237 34.0467 214.057 35.1 214.057C36.14 214.057 37.0467 214.237 37.82 214.597C38.58 214.957 39.1667 215.457 39.58 216.097C39.9933 216.737 40.2 217.49 40.2 218.357C40.2 219.17 40 219.884 39.6 220.497C39.1867 221.11 38.6533 221.524 38 221.737L38 221.497L42.5 221.497C42.9133 221.497 43.2267 221.61 43.44 221.837C43.6533 222.05 43.76 222.357 43.76 222.757ZM38.3 219.057C38.3 218.564 38.18 218.13 37.94 217.757C37.7 217.384 37.3467 217.097 36.88 216.897C36.4 216.684 35.8067 216.577 35.1 216.577C34.0333 216.577 33.24 216.804 32.72 217.257C32.1867 217.71 31.92 218.31 31.92 219.057C31.92 219.55 32.04 219.984 32.28 220.357C32.5067 220.73 32.86 221.024 33.34 221.237C33.8067 221.437 34.3933 221.537 35.1 221.537C36.1533 221.537 36.9533 221.31 37.5 220.857C38.0333 220.404 38.3 219.804 38.3 219.057ZM40.2 208.785C40.2 209.491 40.0667 210.125 39.8 210.685C39.52 211.231 39.1467 211.665 38.68 211.985C38.2133 212.291 37.6867 212.445 37.1 212.445C36.38 212.445 35.8133 212.258 35.4 211.885C34.9733 211.511 34.6667 210.905 34.48 210.065C34.2933 209.225 34.2 208.098 34.2 206.685L34.2 205.685L35.64 205.685L35.64 206.665C35.64 207.491 35.68 208.151 35.76 208.645C35.84 209.138 35.98 209.491 36.18 209.705C36.3667 209.905 36.6333 210.005 36.98 210.005C37.42 210.005 37.78 209.851 38.06 209.545C38.34 209.238 38.48 208.811 38.48 208.265C38.48 207.825 38.38 207.438 38.18 207.105C37.9667 206.758 37.68 206.485 37.32 206.285C36.96 206.085 36.5467 205.985 36.08 205.985L33.78 205.985C33.1133 205.985 32.6333 206.131 32.34 206.425C32.0467 206.718 31.9 207.211 31.9 207.905C31.9 208.291 31.9467 208.711 32.04 209.165C32.1333 209.605 32.2933 210.071 32.52 210.565C32.64 210.818 32.6733 211.045 32.62 211.245C32.5667 211.431 32.46 211.578 32.3 211.685C32.1267 211.791 31.94 211.845 31.74 211.845C31.54 211.845 31.3467 211.791 31.16 211.685C30.96 211.578 30.8133 211.398 30.72 211.145C30.4667 210.531 30.2867 209.945 30.18 209.385C30.0733 208.811 30.02 208.291 30.02 207.825C30.02 206.865 30.1667 206.078 30.46 205.465C30.7533 204.838 31.2 204.371 31.8 204.065C32.3867 203.758 33.1467 203.605 34.08 203.605L38.88 203.605C39.2933 203.605 39.6133 203.705 39.84 203.905C40.0533 204.105 40.16 204.391 40.16 204.765C40.16 205.138 40.0533 205.431 39.84 205.645C39.6133 205.845 39.2933 205.945 38.88 205.945L37.92 205.945L37.92 205.785C38.3867 205.878 38.7933 206.065 39.14 206.345C39.4733 206.611 39.7333 206.951 39.92 207.365C40.1067 207.778 40.2 208.251 40.2 208.785ZM40.2 196.547C40.2 197.574 39.9933 198.467 39.58 199.227C39.1533 199.987 38.5533 200.574 37.78 200.987C37.0067 201.401 36.1 201.607 35.06 201.607C34.2733 201.607 33.5733 201.494 32.96 201.267C32.3333 201.027 31.8067 200.687 31.38 200.247C30.94 199.807 30.6067 199.274 30.38 198.647C30.14 198.021 30.02 197.321 30.02 196.547C30.02 196.107 30.08 195.634 30.2 195.127C30.32 194.607 30.52 194.121 30.8 193.667C30.9333 193.454 31.0933 193.314 31.28 193.247C31.4667 193.181 31.66 193.167 31.86 193.207C32.0467 193.247 32.2133 193.334 32.36 193.467C32.4933 193.587 32.58 193.741 32.62 193.927C32.6467 194.114 32.6 194.321 32.48 194.547C32.3067 194.841 32.18 195.141 32.1 195.447C32.0067 195.754 31.96 196.047 31.96 196.327C31.96 196.767 32.0333 197.154 32.18 197.487C32.3133 197.821 32.5133 198.107 32.78 198.347C33.0333 198.574 33.3533 198.747 33.74 198.867C34.1267 198.987 34.5733 199.047 35.08 199.047C36.0667 199.047 36.8467 198.814 37.42 198.347C37.98 197.867 38.26 197.194 38.26 196.327C38.26 196.047 38.22 195.761 38.14 195.467C38.06 195.161 37.9333 194.854 37.76 194.547C37.64 194.321 37.6 194.121 37.64 193.947C37.68 193.761 37.7733 193.607 37.92 193.487C38.0533 193.367 38.22 193.294 38.42 193.267C38.6067 193.241 38.7933 193.267 38.98 193.347C39.1667 193.414 39.32 193.547 39.44 193.747C39.7067 194.187 39.9 194.654 40.02 195.147C40.14 195.641 40.2 196.107 40.2 196.547ZM40.2 187.009C40.2 188.116 39.9933 189.069 39.58 189.869C39.1667 190.669 38.58 191.289 37.82 191.729C37.06 192.156 36.16 192.369 35.12 192.369C34.1067 192.369 33.22 192.162 32.46 191.749C31.7 191.322 31.1067 190.742 30.68 190.009C30.24 189.262 30.02 188.416 30.02 187.469C30.02 186.776 30.1333 186.156 30.36 185.609C30.5867 185.049 30.9133 184.576 31.34 184.189C31.7667 183.789 32.2867 183.489 32.9 183.289C33.5 183.076 34.18 182.969 34.94 182.969C35.18 182.969 35.3667 183.056 35.5 183.229C35.62 183.389 35.68 183.622 35.68 183.929L35.68 190.349L34.24 190.349L34.24 184.729L34.54 185.049C33.9267 185.049 33.4133 185.142 33 185.329C32.5867 185.502 32.2733 185.762 32.06 186.109C31.8333 186.442 31.72 186.862 31.72 187.369C31.72 187.929 31.8533 188.409 32.12 188.809C32.3733 189.196 32.74 189.496 33.22 189.709C33.6867 189.909 34.2467 190.009 34.9 190.009L35.04 190.009C36.1333 190.009 36.9533 189.756 37.5 189.249C38.0333 188.729 38.3 187.969 38.3 186.969C38.3 186.622 38.26 186.236 38.18 185.809C38.0867 185.369 37.9333 184.956 37.72 184.569C37.56 184.289 37.4933 184.042 37.52 183.829C37.5333 183.616 37.6067 183.449 37.74 183.329C37.8733 183.196 38.04 183.116 38.24 183.089C38.4267 183.062 38.62 183.102 38.82 183.209C39.02 183.302 39.1933 183.469 39.34 183.709C39.6333 184.176 39.8533 184.716 40 185.329C40.1333 185.929 40.2 186.489 40.2 187.009ZM35.64 179.815C35.64 180.108 35.5467 180.355 35.36 180.555C35.16 180.742 34.92 180.835 34.64 180.835C34.3467 180.835 34.1067 180.742 33.92 180.555C33.7333 180.355 33.64 180.108 33.64 179.815L33.64 175.555C33.64 175.275 33.7333 175.042 33.92 174.855C34.1067 174.655 34.3467 174.555 34.64 174.555C34.92 174.555 35.16 174.655 35.36 174.855C35.5467 175.042 35.64 175.275 35.64 175.555L35.64 179.815ZM40.16 170.623C40.16 170.997 40.0533 171.283 39.84 171.483C39.6267 171.683 39.3333 171.783 38.96 171.783L26.94 171.783C26.5533 171.783 26.26 171.677 26.06 171.463C25.8467 171.25 25.74 170.957 25.74 170.583C25.74 170.25 25.8067 169.99 25.94 169.803C26.06 169.603 26.2733 169.423 26.58 169.263L35.72 164.323L35.72 164.963L26.58 160.023C26.2733 159.863 26.06 159.69 25.94 159.503C25.8067 159.317 25.74 159.057 25.74 158.723C25.74 158.35 25.8467 158.063 26.06 157.863C26.26 157.663 26.5533 157.563 26.94 157.563L38.96 157.563C39.3333 157.563 39.6267 157.663 39.84 157.863C40.0533 158.05 40.16 158.337 40.16 158.723C40.16 159.097 40.0533 159.383 39.84 159.583C39.6267 159.783 39.3333 159.883 38.96 159.883L29.7 159.883L29.7 159.443L37.36 163.643C37.5867 163.777 37.7533 163.917 37.86 164.063C37.9667 164.21 38.02 164.41 38.02 164.663C38.02 164.917 37.9667 165.123 37.86 165.283C37.74 165.443 37.5733 165.583 37.36 165.703L29.68 169.943L29.68 169.463L38.96 169.463C39.3333 169.463 39.6267 169.563 39.84 169.763C40.0533 169.95 40.16 170.237 40.16 170.623ZM40.2 149.88C40.2 150.987 39.9933 151.94 39.58 152.74C39.1667 153.54 38.58 154.16 37.82 154.6C37.06 155.027 36.16 155.24 35.12 155.24C34.1067 155.24 33.22 155.033 32.46 154.62C31.7 154.193 31.1067 153.613 30.68 152.88C30.24 152.133 30.02 151.287 30.02 150.34C30.02 149.647 30.1333 149.027 30.36 148.48C30.5867 147.92 30.9133 147.447 31.34 147.06C31.7667 146.66 32.2867 146.36 32.9 146.16C33.5 145.947 34.18 145.84 34.94 145.84C35.18 145.84 35.3667 145.927 35.5 146.1C35.62 146.26 35.68 146.493 35.68 146.8L35.68 153.22L34.24 153.22L34.24 147.6L34.54 147.92C33.9267 147.92 33.4133 148.013 33 148.2C32.5867 148.373 32.2733 148.633 32.06 148.98C31.8333 149.313 31.72 149.733 31.72 150.24C31.72 150.8 31.8533 151.28 32.12 151.68C32.3733 152.067 32.74 152.367 33.22 152.58C33.6867 152.78 34.2467 152.88 34.9 152.88L35.04 152.88C36.1333 152.88 36.9533 152.627 37.5 152.12C38.0333 151.6 38.3 150.84 38.3 149.84C38.3 149.493 38.26 149.107 38.18 148.68C38.0867 148.24 37.9333 147.827 37.72 147.44C37.56 147.16 37.4933 146.913 37.52 146.7C37.5333 146.487 37.6067 146.32 37.74 146.2C37.8733 146.067 38.04 145.987 38.24 145.96C38.4267 145.933 38.62 145.973 38.82 146.08C39.02 146.173 39.1933 146.34 39.34 146.58C39.6333 147.047 39.8533 147.587 40 148.2C40.1333 148.8 40.2 149.36 40.2 149.88ZM40.16 142.62C40.16 143.02 40.0533 143.327 39.84 143.54C39.6133 143.753 39.2933 143.86 38.88 143.86L31.32 143.86C30.9067 143.86 30.5933 143.753 30.38 143.54C30.1667 143.327 30.06 143.027 30.06 142.64C30.06 142.253 30.1667 141.953 30.38 141.74C30.5933 141.527 30.9067 141.42 31.32 141.42L32.68 141.42L32.18 141.64C31.4733 141.347 30.94 140.893 30.58 140.28C30.2067 139.653 30.02 138.947 30.02 138.16C30.02 137.373 30.1667 136.727 30.46 136.22C30.7533 135.713 31.2 135.333 31.8 135.08C32.3867 134.827 33.1333 134.7 34.04 134.7L38.88 134.7C39.2933 134.7 39.6133 134.807 39.84 135.02C40.0533 135.233 40.16 135.54 40.16 135.94C40.16 136.34 40.0533 136.653 39.84 136.88C39.6133 137.093 39.2933 137.2 38.88 137.2L34.16 137.2C33.4 137.2 32.8467 137.347 32.5 137.64C32.1533 137.92 31.98 138.36 31.98 138.96C31.98 139.693 32.2133 140.28 32.68 140.72C33.1333 141.147 33.74 141.36 34.5 141.36L38.88 141.36C39.7333 141.36 40.16 141.78 40.16 142.62ZM40.2 128.621C40.2 129.434 40.0533 130.108 39.76 130.641C39.4533 131.174 39 131.574 38.4 131.841C37.8 132.094 37.0533 132.221 36.16 132.221L31.32 132.221C30.8933 132.221 30.58 132.114 30.38 131.901C30.1667 131.688 30.06 131.381 30.06 130.981C30.06 130.581 30.1667 130.274 30.38 130.061C30.58 129.834 30.8933 129.721 31.32 129.721L36.2 129.721C36.8933 129.721 37.4067 129.581 37.74 129.301C38.0733 129.021 38.24 128.574 38.24 127.961C38.24 127.294 38.0133 126.748 37.56 126.321C37.0933 125.894 36.48 125.681 35.72 125.681L31.32 125.681C30.8933 125.681 30.58 125.574 30.38 125.361C30.1667 125.148 30.06 124.841 30.06 124.441C30.06 124.041 30.1667 123.734 30.38 123.521C30.58 123.294 30.8933 123.181 31.32 123.181L38.88 123.181C39.7333 123.181 40.16 123.588 40.16 124.401C40.16 124.788 40.0533 125.088 39.84 125.301C39.6133 125.514 39.2933 125.621 38.88 125.621L37.36 125.621L37.96 125.341C38.68 125.621 39.2333 126.048 39.62 126.621C40.0067 127.181 40.2 127.848 40.2 128.621ZM28.12 125.781C28.12 126.181 28.0133 126.488 27.8 126.701C27.5867 126.914 27.28 127.021 26.88 127.021C26.4933 127.021 26.1933 126.914 25.98 126.701C25.7667 126.488 25.66 126.181 25.66 125.781C25.66 125.394 25.7667 125.094 25.98 124.881C26.1933 124.668 26.4933 124.561 26.88 124.561C27.28 124.561 27.5867 124.668 27.8 124.881C28.0133 125.081 28.12 125.381 28.12 125.781ZM28.12 129.561C28.12 129.948 28.0133 130.254 27.8 130.481C27.5867 130.694 27.28 130.801 26.88 130.801C26.4933 130.801 26.1933 130.694 25.98 130.481C25.7667 130.254 25.66 129.948 25.66 129.561C25.66 129.161 25.7667 128.854 25.98 128.641C26.1933 128.428 26.4933 128.321 26.88 128.321C27.28 128.321 27.5867 128.428 27.8 128.641C28.0133 128.854 28.12 129.161 28.12 129.561ZM40.2 110.689C40.2 111.703 39.9933 112.583 39.58 113.329C39.1667 114.076 38.58 114.656 37.82 115.069C37.0467 115.483 36.14 115.689 35.1 115.689C34.3133 115.689 33.6133 115.576 33 115.349C32.3733 115.109 31.84 114.769 31.4 114.329C30.9467 113.889 30.6067 113.363 30.38 112.749C30.14 112.136 30.02 111.449 30.02 110.689C30.02 109.676 30.2267 108.796 30.64 108.049C31.0533 107.303 31.64 106.723 32.4 106.309C33.16 105.896 34.06 105.689 35.1 105.689C35.8867 105.689 36.5933 105.809 37.22 106.049C37.8467 106.276 38.3867 106.609 38.84 107.049C39.28 107.489 39.62 108.016 39.86 108.629C40.0867 109.243 40.2 109.929 40.2 110.689ZM38.3 110.689C38.3 110.196 38.18 109.763 37.94 109.389C37.7 109.016 37.3467 108.729 36.88 108.529C36.4 108.316 35.8067 108.209 35.1 108.209C34.0333 108.209 33.24 108.436 32.72 108.889C32.1867 109.343 31.92 109.943 31.92 110.689C31.92 111.183 32.04 111.616 32.28 111.989C32.5067 112.363 32.86 112.656 33.34 112.869C33.8067 113.069 34.3933 113.169 35.1 113.169C36.1533 113.169 36.9533 112.943 37.5 112.489C38.0333 112.036 38.3 111.436 38.3 110.689ZM28.14 108.789C28.14 109.189 28.0333 109.496 27.82 109.709C27.6067 109.923 27.3 110.029 26.9 110.029C26.5133 110.029 26.2133 109.923 26 109.709C25.7867 109.496 25.68 109.189 25.68 108.789C25.68 108.403 25.7867 108.103 26 107.889C26.2133 107.676 26.5133 107.569 26.9 107.569C27.3 107.569 27.6067 107.676 27.82 107.889C28.0333 108.089 28.14 108.389 28.14 108.789ZM28.14 112.569C28.14 112.956 28.0333 113.263 27.82 113.489C27.6067 113.703 27.3 113.809 26.9 113.809C26.5133 113.809 26.2133 113.703 26 113.489C25.7867 113.263 25.68 112.956 25.68 112.569C25.68 112.169 25.7867 111.863 26 111.649C26.2133 111.436 26.5133 111.329 26.9 111.329C27.3 111.329 27.6067 111.436 27.82 111.649C28.0333 111.863 28.14 112.169 28.14 112.569ZM40.16 101.803C40.16 102.203 40.0533 102.517 39.84 102.743C39.6133 102.957 39.2933 103.063 38.88 103.063L32.1 103.063L32.1 103.983C32.1 104.303 32.02 104.55 31.86 104.723C31.6867 104.897 31.4533 104.983 31.16 104.983C30.8533 104.983 30.62 104.897 30.46 104.723C30.3 104.55 30.22 104.303 30.22 103.983L30.22 102.343L30.88 103.063L30.2 103.063C28.8267 103.063 27.8 102.717 27.12 102.023C26.4267 101.33 26.02 100.33 25.9 99.0234L25.84 98.3434C25.8133 98.0768 25.86 97.8634 25.98 97.7034C26.0867 97.5434 26.2333 97.4368 26.42 97.3834C26.5933 97.3301 26.7733 97.3234 26.96 97.3634C27.1467 97.4034 27.3133 97.4901 27.46 97.6234C27.5933 97.7434 27.6667 97.9034 27.68 98.1034L27.7 98.3834C27.7533 99.1434 27.9467 99.6968 28.28 100.043C28.6133 100.39 29.12 100.563 29.8 100.563L30.54 100.563L30.22 100.883L30.22 98.8634C30.22 98.5434 30.3 98.2968 30.46 98.1234C30.62 97.9501 30.8533 97.8634 31.16 97.8634C31.4533 97.8634 31.6867 97.9501 31.86 98.1234C32.02 98.2968 32.1 98.5434 32.1 98.8634L32.1 100.563L38.88 100.563C39.7333 100.563 40.16 100.977 40.16 101.803ZM40.16 94.9675C40.16 95.3675 40.0533 95.6808 39.84 95.9075C39.6133 96.1208 39.2933 96.2275 38.88 96.2275L32.1 96.2275L32.1 97.1475C32.1 97.4675 32.02 97.7142 31.86 97.8875C31.6867 98.0608 31.4533 98.1475 31.16 98.1475C30.8533 98.1475 30.62 98.0608 30.46 97.8875C30.3 97.7142 30.22 97.4675 30.22 97.1475L30.22 95.5075L30.88 96.2275L30.2 96.2275C28.8267 96.2275 27.8 95.8808 27.12 95.1875C26.4267 94.4942 26.02 93.4942 25.9 92.1875L25.84 91.5075C25.8133 91.2408 25.86 91.0275 25.98 90.8675C26.0867 90.7075 26.2333 90.6008 26.42 90.5475C26.5933 90.4942 26.7733 90.4875 26.96 90.5275C27.1467 90.5675 27.3133 90.6542 27.46 90.7875C27.5933 90.9075 27.6667 91.0675 27.68 91.2675L27.7 91.5475C27.7533 92.3075 27.9467 92.8608 28.28 93.2075C28.6133 93.5542 29.12 93.7275 29.8 93.7275L30.54 93.7275L30.22 94.0475L30.22 92.0275C30.22 91.7075 30.3 91.4608 30.46 91.2875C30.62 91.1142 30.8533 91.0275 31.16 91.0275C31.4533 91.0275 31.6867 91.1142 31.86 91.2875C32.02 91.4608 32.1 91.7075 32.1 92.0275L32.1 93.7275L38.88 93.7275C39.7333 93.7275 40.16 94.1408 40.16 94.9675ZM40.2 85.0362C40.2 86.1429 39.9933 87.0962 39.58 87.8962C39.1667 88.6962 38.58 89.3162 37.82 89.7562C37.06 90.1829 36.16 90.3962 35.12 90.3962C34.1067 90.3962 33.22 90.1896 32.46 89.7762C31.7 89.3496 31.1067 88.7696 30.68 88.0362C30.24 87.2896 30.02 86.4429 30.02 85.4962C30.02 84.8029 30.1333 84.1829 30.36 83.6362C30.5867 83.0762 30.9133 82.6029 31.34 82.2162C31.7667 81.8162 32.2867 81.5162 32.9 81.3162C33.5 81.1029 34.18 80.9962 34.94 80.9962C35.18 80.9962 35.3667 81.0829 35.5 81.2562C35.62 81.4162 35.68 81.6496 35.68 81.9562L35.68 88.3762L34.24 88.3762L34.24 82.7562L34.54 83.0762C33.9267 83.0762 33.4133 83.1696 33 83.3562C32.5867 83.5296 32.2733 83.7896 32.06 84.1362C31.8333 84.4696 31.72 84.8896 31.72 85.3962C31.72 85.9562 31.8533 86.4362 32.12 86.8362C32.3733 87.2229 32.74 87.5229 33.22 87.7362C33.6867 87.9362 34.2467 88.0362 34.9 88.0362L35.04 88.0362C36.1333 88.0362 36.9533 87.7829 37.5 87.2762C38.0333 86.7562 38.3 85.9962 38.3 84.9962C38.3 84.6496 38.26 84.2629 38.18 83.8362C38.0867 83.3962 37.9333 82.9829 37.72 82.5962C37.56 82.3162 37.4933 82.0696 37.52 81.8562C37.5333 81.6429 37.6067 81.4762 37.74 81.3562C37.8733 81.2229 38.04 81.1429 38.24 81.1162C38.4267 81.0896 38.62 81.1296 38.82 81.2362C39.02 81.3296 39.1933 81.4962 39.34 81.7362C39.6333 82.2029 39.8533 82.7429 40 83.3562C40.1333 83.9562 40.2 84.5162 40.2 85.0362ZM40.16 77.7764C40.16 78.1764 40.0533 78.4831 39.84 78.6964C39.6133 78.9097 39.2933 79.0164 38.88 79.0164L31.32 79.0164C30.9067 79.0164 30.5933 78.9097 30.38 78.6964C30.1667 78.4831 30.06 78.1831 30.06 77.7964C30.06 77.4097 30.1667 77.1097 30.38 76.8964C30.5933 76.6831 30.9067 76.5764 31.32 76.5764L32.68 76.5764L32.18 76.7964C31.4733 76.5031 30.94 76.0497 30.58 75.4364C30.2067 74.8097 30.02 74.1031 30.02 73.3164C30.02 72.5297 30.1667 71.8831 30.46 71.3764C30.7533 70.8697 31.2 70.4897 31.8 70.2364C32.3867 69.9831 33.1333 69.8564 34.04 69.8564L38.88 69.8564C39.2933 69.8564 39.6133 69.9631 39.84 70.1764C40.0533 70.3897 40.16 70.6964 40.16 71.0964C40.16 71.4964 40.0533 71.8097 39.84 72.0364C39.6133 72.2497 39.2933 72.3564 38.88 72.3564L34.16 72.3564C33.4 72.3564 32.8467 72.5031 32.5 72.7964C32.1533 73.0764 31.98 73.5164 31.98 74.1164C31.98 74.8497 32.2133 75.4364 32.68 75.8764C33.1333 76.3031 33.74 76.5164 34.5 76.5164L38.88 76.5164C39.7333 76.5164 40.16 76.9364 40.16 77.7764Z" fill="#535AF1"/>
</g>
<defs>
<filter id="filter0_d_1854_19299" x="0" y="0" width="74" height="320" filterUnits="userSpaceOnUse" color-interpolation-filters="sRGB">
<feFlood flood-opacity="0" result="BackgroundImageFix"/>
<feColorMatrix in="SourceAlpha" type="matrix" values="0 0 0 0 0 0 0 0 0 0 0 0 0 0 0 0 0 0 127 0" result="hardAlpha"/>
<feOffset dx="4" dy="4"/>
<feGaussianBlur stdDeviation="3.5"/>
<feComposite in2="hardAlpha" operator="out"/>
<feColorMatrix type="matrix" values="0 0 0 0 0 0 0 0 0 0 0 0 0 0 0 0 0 0 0.2 0"/>
<feBlend mode="normal" in2="BackgroundImageFix" result="effect1_dropShadow_1854_19299"/>
<feBlend mode="normal" in="SourceGraphic" in2="effect1_dropShadow_1854_19299" result="shape"/>
</filter>
</defs>
</svg>
