<svg width="74" height="361" viewBox="0 0 74 361" fill="none" xmlns="http://www.w3.org/2000/svg">
<g filter="url(#filter0_d_1854_19285)">
<path d="M3 3H33C49.5685 3 63 16.4315 63 33V320C63 336.569 49.5685 350 33 350H3V3Z" fill="white"/>
<rect x="25" y="37" width="16" height="16" rx="1" stroke="#444DF2" stroke-width="2.5"/>
<path d="M30.7144 37V53" stroke="#444DF2" stroke-width="2.5"/>
<path d="M36.4283 47.2856L34.4961 45.3535C34.3009 45.1582 34.3009 44.8416 34.4961 44.6464L36.4283 42.7142" stroke="#444DF2" stroke-width="2.5" stroke-linecap="round"/>
<path d="M40.16 320.5C40.16 320.86 40.0733 321.153 39.9 321.38C39.7267 321.593 39.4533 321.767 39.08 321.9L27.26 326.08C26.8333 326.227 26.4733 326.2 26.18 326C25.8867 325.787 25.74 325.433 25.74 324.94C25.74 324.58 25.8267 324.3 26 324.1C26.16 323.9 26.42 323.74 26.78 323.62L37.46 320.02L37.46 320.82L26.8 317.06C26.44 316.927 26.1733 316.76 26 316.56C25.8267 316.36 25.74 316.1 25.74 315.78C25.74 315.46 25.8267 315.207 26 315.02C26.1733 314.833 26.4467 314.673 26.82 314.54L37.46 310.9L37.46 311.6L26.78 307.94C26.4333 307.82 26.1733 307.66 26 307.46C25.8267 307.26 25.74 306.987 25.74 306.64C25.74 306.213 25.8867 305.9 26.18 305.7C26.4733 305.5 26.8333 305.473 27.26 305.62L39.1 309.84C39.46 309.973 39.7267 310.147 39.9 310.36C40.0733 310.573 40.16 310.86 40.16 311.22C40.16 311.58 40.0733 311.867 39.9 312.08C39.7267 312.293 39.4533 312.467 39.08 312.6L29.16 316.08L29.16 315.62L39.1 319.14C39.46 319.273 39.7267 319.447 39.9 319.66C40.0733 319.86 40.16 320.14 40.16 320.5ZM40.2 300.224C40.2 301.238 39.9933 302.118 39.58 302.864C39.1667 303.611 38.58 304.191 37.82 304.604C37.0467 305.018 36.14 305.224 35.1 305.224C34.3133 305.224 33.6133 305.111 33 304.884C32.3733 304.644 31.84 304.304 31.4 303.864C30.9467 303.424 30.6067 302.898 30.38 302.284C30.14 301.671 30.02 300.984 30.02 300.224C30.02 299.211 30.2267 298.331 30.64 297.584C31.0533 296.838 31.64 296.258 32.4 295.844C33.16 295.431 34.06 295.224 35.1 295.224C35.8867 295.224 36.5933 295.344 37.22 295.584C37.8467 295.811 38.3867 296.144 38.84 296.584C39.28 297.024 39.62 297.551 39.86 298.164C40.0867 298.778 40.2 299.464 40.2 300.224ZM38.3 300.224C38.3 299.731 38.18 299.298 37.94 298.924C37.7 298.551 37.3467 298.264 36.88 298.064C36.4 297.851 35.8067 297.744 35.1 297.744C34.0333 297.744 33.24 297.971 32.72 298.424C32.1867 298.878 31.92 299.478 31.92 300.224C31.92 300.718 32.04 301.151 32.28 301.524C32.5067 301.898 32.86 302.191 33.34 302.404C33.8067 302.604 34.3933 302.704 35.1 302.704C36.1533 302.704 36.9533 302.478 37.5 302.024C38.0333 301.571 38.3 300.971 38.3 300.224ZM40.16 291.881C40.16 292.294 40.0533 292.614 39.84 292.841C39.6133 293.054 39.2933 293.161 38.88 293.161L31.32 293.161C30.9067 293.161 30.5933 293.054 30.38 292.841C30.1667 292.628 30.06 292.328 30.06 291.941C30.06 291.554 30.1667 291.254 30.38 291.041C30.5933 290.828 30.9067 290.721 31.32 290.721L32.58 290.721L32.58 290.921C31.78 290.734 31.1733 290.368 30.76 289.821C30.3467 289.274 30.1 288.548 30.02 287.641C29.9933 287.361 30.0667 287.141 30.24 286.981C30.4 286.808 30.6533 286.708 31 286.681C31.3333 286.654 31.6067 286.734 31.82 286.921C32.02 287.094 32.14 287.361 32.18 287.721L32.22 288.161C32.3 288.974 32.5533 289.588 32.98 290.001C33.3933 290.414 33.98 290.621 34.74 290.621L38.88 290.621C39.2933 290.621 39.6133 290.728 39.84 290.941C40.0533 291.154 40.16 291.468 40.16 291.881ZM40.16 284.089C40.16 284.489 40.0533 284.796 39.84 285.009C39.6133 285.222 39.2933 285.329 38.88 285.329L27 285.329C26.5867 285.329 26.2733 285.222 26.06 285.009C25.8467 284.796 25.74 284.489 25.74 284.089C25.74 283.689 25.8467 283.382 26.06 283.169C26.2733 282.942 26.5867 282.829 27 282.829L34.38 282.829L34.38 282.789L30.9 279.489C30.6333 279.222 30.4267 278.989 30.28 278.789C30.1333 278.589 30.06 278.316 30.06 277.969C30.06 277.622 30.1533 277.362 30.34 277.189C30.5133 277.002 30.7267 276.909 30.98 276.909C31.2333 276.909 31.4867 277.029 31.74 277.269L35.42 280.749L34.38 280.749L38.5 276.929C38.7533 276.689 39.0133 276.582 39.28 276.609C39.5333 276.622 39.7467 276.729 39.92 276.929C40.08 277.129 40.16 277.382 40.16 277.689C40.16 278.062 40.0867 278.362 39.94 278.589C39.7933 278.802 39.5733 279.042 39.28 279.309L35.64 282.789L35.64 282.829L38.88 282.829C39.7333 282.829 40.16 283.249 40.16 284.089ZM40.2 271.182C40.2 271.756 40.14 272.362 40.02 273.002C39.9 273.642 39.6933 274.216 39.4 274.722C39.2667 274.936 39.1133 275.089 38.94 275.182C38.7533 275.262 38.5733 275.296 38.4 275.282C38.2133 275.256 38.0533 275.189 37.92 275.082C37.7867 274.962 37.7 274.816 37.66 274.642C37.62 274.456 37.6533 274.256 37.76 274.042C38.0133 273.509 38.1933 273.009 38.3 272.542C38.3933 272.076 38.44 271.616 38.44 271.162C38.44 270.522 38.3333 270.049 38.12 269.742C37.8933 269.422 37.6 269.262 37.24 269.262C36.9333 269.262 36.7 269.369 36.54 269.582C36.3667 269.782 36.24 270.089 36.16 270.502L35.78 272.502C35.62 273.329 35.32 273.962 34.88 274.402C34.4267 274.829 33.8467 275.042 33.14 275.042C32.5 275.042 31.9467 274.869 31.48 274.522C31.0133 274.162 30.6533 273.669 30.4 273.042C30.1467 272.416 30.02 271.696 30.02 270.882C30.02 270.296 30.0867 269.749 30.22 269.242C30.34 268.722 30.5333 268.222 30.8 267.742C30.9067 267.542 31.0467 267.409 31.22 267.342C31.3933 267.262 31.5733 267.242 31.76 267.282C31.9333 267.322 32.0933 267.402 32.24 267.522C32.3733 267.642 32.46 267.796 32.5 267.982C32.5267 268.156 32.4867 268.356 32.38 268.582C32.1667 268.996 32.0133 269.396 31.92 269.782C31.8267 270.156 31.78 270.516 31.78 270.862C31.78 271.516 31.8933 272.002 32.12 272.322C32.3467 272.629 32.6467 272.782 33.02 272.782C33.3 272.782 33.5333 272.689 33.72 272.502C33.9067 272.316 34.0333 272.029 34.1 271.642L34.48 269.642C34.64 268.776 34.9333 268.122 35.36 267.682C35.7867 267.229 36.36 267.002 37.08 267.002C38.0533 267.002 38.82 267.382 39.38 268.142C39.9267 268.902 40.2 269.916 40.2 271.182ZM43.76 263.757C43.76 264.157 43.6533 264.464 43.44 264.677C43.2267 264.89 42.9133 264.997 42.5 264.997L31.32 264.997C30.9067 264.997 30.5933 264.89 30.38 264.677C30.1667 264.464 30.06 264.164 30.06 263.777C30.06 263.377 30.1667 263.07 30.38 262.857C30.5933 262.644 30.9067 262.537 31.32 262.537L32.88 262.537L32.28 262.757C31.6 262.557 31.0533 262.15 30.64 261.537C30.2267 260.91 30.02 260.184 30.02 259.357C30.02 258.504 30.2267 257.757 30.64 257.117C31.0533 256.464 31.64 255.957 32.4 255.597C33.1467 255.237 34.0467 255.057 35.1 255.057C36.14 255.057 37.0467 255.237 37.82 255.597C38.58 255.957 39.1667 256.457 39.58 257.097C39.9933 257.737 40.2 258.49 40.2 259.357C40.2 260.17 40 260.884 39.6 261.497C39.1867 262.11 38.6533 262.524 38 262.737L38 262.497L42.5 262.497C42.9133 262.497 43.2267 262.61 43.44 262.837C43.6533 263.05 43.76 263.357 43.76 263.757ZM38.3 260.057C38.3 259.564 38.18 259.13 37.94 258.757C37.7 258.384 37.3467 258.097 36.88 257.897C36.4 257.684 35.8067 257.577 35.1 257.577C34.0333 257.577 33.24 257.804 32.72 258.257C32.1867 258.71 31.92 259.31 31.92 260.057C31.92 260.55 32.04 260.984 32.28 261.357C32.5067 261.73 32.86 262.024 33.34 262.237C33.8067 262.437 34.3933 262.537 35.1 262.537C36.1533 262.537 36.9533 262.31 37.5 261.857C38.0333 261.404 38.3 260.804 38.3 260.057ZM40.2 249.785C40.2 250.491 40.0667 251.125 39.8 251.685C39.52 252.231 39.1467 252.665 38.68 252.985C38.2133 253.291 37.6867 253.445 37.1 253.445C36.38 253.445 35.8133 253.258 35.4 252.885C34.9733 252.511 34.6667 251.905 34.48 251.065C34.2933 250.225 34.2 249.098 34.2 247.685L34.2 246.685L35.64 246.685L35.64 247.665C35.64 248.491 35.68 249.151 35.76 249.645C35.84 250.138 35.98 250.491 36.18 250.705C36.3667 250.905 36.6333 251.005 36.98 251.005C37.42 251.005 37.78 250.851 38.06 250.545C38.34 250.238 38.48 249.811 38.48 249.265C38.48 248.825 38.38 248.438 38.18 248.105C37.9667 247.758 37.68 247.485 37.32 247.285C36.96 247.085 36.5467 246.985 36.08 246.985L33.78 246.985C33.1133 246.985 32.6333 247.131 32.34 247.425C32.0467 247.718 31.9 248.211 31.9 248.905C31.9 249.291 31.9467 249.711 32.04 250.165C32.1333 250.605 32.2933 251.071 32.52 251.565C32.64 251.818 32.6733 252.045 32.62 252.245C32.5667 252.431 32.46 252.578 32.3 252.685C32.1267 252.791 31.94 252.845 31.74 252.845C31.54 252.845 31.3467 252.791 31.16 252.685C30.96 252.578 30.8133 252.398 30.72 252.145C30.4667 251.531 30.2867 250.945 30.18 250.385C30.0733 249.811 30.02 249.291 30.02 248.825C30.02 247.865 30.1667 247.078 30.46 246.465C30.7533 245.838 31.2 245.371 31.8 245.065C32.3867 244.758 33.1467 244.605 34.08 244.605L38.88 244.605C39.2933 244.605 39.6133 244.705 39.84 244.905C40.0533 245.105 40.16 245.391 40.16 245.765C40.16 246.138 40.0533 246.431 39.84 246.645C39.6133 246.845 39.2933 246.945 38.88 246.945L37.92 246.945L37.92 246.785C38.3867 246.878 38.7933 247.065 39.14 247.345C39.4733 247.611 39.7333 247.951 39.92 248.365C40.1067 248.778 40.2 249.251 40.2 249.785ZM40.2 237.547C40.2 238.574 39.9933 239.467 39.58 240.227C39.1533 240.987 38.5533 241.574 37.78 241.987C37.0067 242.401 36.1 242.607 35.06 242.607C34.2733 242.607 33.5733 242.494 32.96 242.267C32.3333 242.027 31.8067 241.687 31.38 241.247C30.94 240.807 30.6067 240.274 30.38 239.647C30.14 239.021 30.02 238.321 30.02 237.547C30.02 237.107 30.08 236.634 30.2 236.127C30.32 235.607 30.52 235.121 30.8 234.667C30.9333 234.454 31.0933 234.314 31.28 234.247C31.4667 234.181 31.66 234.167 31.86 234.207C32.0467 234.247 32.2133 234.334 32.36 234.467C32.4933 234.587 32.58 234.741 32.62 234.927C32.6467 235.114 32.6 235.321 32.48 235.547C32.3067 235.841 32.18 236.141 32.1 236.447C32.0067 236.754 31.96 237.047 31.96 237.327C31.96 237.767 32.0333 238.154 32.18 238.487C32.3133 238.821 32.5133 239.107 32.78 239.347C33.0333 239.574 33.3533 239.747 33.74 239.867C34.1267 239.987 34.5733 240.047 35.08 240.047C36.0667 240.047 36.8467 239.814 37.42 239.347C37.98 238.867 38.26 238.194 38.26 237.327C38.26 237.047 38.22 236.761 38.14 236.467C38.06 236.161 37.9333 235.854 37.76 235.547C37.64 235.321 37.6 235.121 37.64 234.947C37.68 234.761 37.7733 234.607 37.92 234.487C38.0533 234.367 38.22 234.294 38.42 234.267C38.6067 234.241 38.7933 234.267 38.98 234.347C39.1667 234.414 39.32 234.547 39.44 234.747C39.7067 235.187 39.9 235.654 40.02 236.147C40.14 236.641 40.2 237.107 40.2 237.547ZM40.2 228.009C40.2 229.116 39.9933 230.069 39.58 230.869C39.1667 231.669 38.58 232.289 37.82 232.729C37.06 233.156 36.16 233.369 35.12 233.369C34.1067 233.369 33.22 233.162 32.46 232.749C31.7 232.322 31.1067 231.742 30.68 231.009C30.24 230.262 30.02 229.416 30.02 228.469C30.02 227.776 30.1333 227.156 30.36 226.609C30.5867 226.049 30.9133 225.576 31.34 225.189C31.7667 224.789 32.2867 224.489 32.9 224.289C33.5 224.076 34.18 223.969 34.94 223.969C35.18 223.969 35.3667 224.056 35.5 224.229C35.62 224.389 35.68 224.622 35.68 224.929L35.68 231.349L34.24 231.349L34.24 225.729L34.54 226.049C33.9267 226.049 33.4133 226.142 33 226.329C32.5867 226.502 32.2733 226.762 32.06 227.109C31.8333 227.442 31.72 227.862 31.72 228.369C31.72 228.929 31.8533 229.409 32.12 229.809C32.3733 230.196 32.74 230.496 33.22 230.709C33.6867 230.909 34.2467 231.009 34.9 231.009L35.04 231.009C36.1333 231.009 36.9533 230.756 37.5 230.249C38.0333 229.729 38.3 228.969 38.3 227.969C38.3 227.622 38.26 227.236 38.18 226.809C38.0867 226.369 37.9333 225.956 37.72 225.569C37.56 225.289 37.4933 225.042 37.52 224.829C37.5333 224.616 37.6067 224.449 37.74 224.329C37.8733 224.196 38.04 224.116 38.24 224.089C38.4267 224.062 38.62 224.102 38.82 224.209C39.02 224.302 39.1933 224.469 39.34 224.709C39.6333 225.176 39.8533 225.716 40 226.329C40.1333 226.929 40.2 227.489 40.2 228.009ZM35.64 220.815C35.64 221.108 35.5467 221.355 35.36 221.555C35.16 221.742 34.92 221.835 34.64 221.835C34.3467 221.835 34.1067 221.742 33.92 221.555C33.7333 221.355 33.64 221.108 33.64 220.815L33.64 216.555C33.64 216.275 33.7333 216.042 33.92 215.855C34.1067 215.655 34.3467 215.555 34.64 215.555C34.92 215.555 35.16 215.655 35.36 215.855C35.5467 216.042 35.64 216.275 35.64 216.555L35.64 220.815ZM40.16 211.623C40.16 211.997 40.0533 212.283 39.84 212.483C39.6267 212.683 39.3333 212.783 38.96 212.783L26.94 212.783C26.5533 212.783 26.26 212.677 26.06 212.463C25.8467 212.25 25.74 211.957 25.74 211.583C25.74 211.25 25.8067 210.99 25.94 210.803C26.06 210.603 26.2733 210.423 26.58 210.263L35.72 205.323L35.72 205.963L26.58 201.023C26.2733 200.863 26.06 200.69 25.94 200.503C25.8067 200.317 25.74 200.057 25.74 199.723C25.74 199.35 25.8467 199.063 26.06 198.863C26.26 198.663 26.5533 198.563 26.94 198.563L38.96 198.563C39.3333 198.563 39.6267 198.663 39.84 198.863C40.0533 199.05 40.16 199.337 40.16 199.723C40.16 200.097 40.0533 200.383 39.84 200.583C39.6267 200.783 39.3333 200.883 38.96 200.883L29.7 200.883L29.7 200.443L37.36 204.643C37.5867 204.777 37.7533 204.917 37.86 205.063C37.9667 205.21 38.02 205.41 38.02 205.663C38.02 205.917 37.9667 206.123 37.86 206.283C37.74 206.443 37.5733 206.583 37.36 206.703L29.68 210.943L29.68 210.463L38.96 210.463C39.3333 210.463 39.6267 210.563 39.84 210.763C40.0533 210.95 40.16 211.237 40.16 211.623ZM40.2 190.88C40.2 191.987 39.9933 192.94 39.58 193.74C39.1667 194.54 38.58 195.16 37.82 195.6C37.06 196.027 36.16 196.24 35.12 196.24C34.1067 196.24 33.22 196.033 32.46 195.62C31.7 195.193 31.1067 194.613 30.68 193.88C30.24 193.133 30.02 192.287 30.02 191.34C30.02 190.647 30.1333 190.027 30.36 189.48C30.5867 188.92 30.9133 188.447 31.34 188.06C31.7667 187.66 32.2867 187.36 32.9 187.16C33.5 186.947 34.18 186.84 34.94 186.84C35.18 186.84 35.3667 186.927 35.5 187.1C35.62 187.26 35.68 187.493 35.68 187.8L35.68 194.22L34.24 194.22L34.24 188.6L34.54 188.92C33.9267 188.92 33.4133 189.013 33 189.2C32.5867 189.373 32.2733 189.633 32.06 189.98C31.8333 190.313 31.72 190.733 31.72 191.24C31.72 191.8 31.8533 192.28 32.12 192.68C32.3733 193.067 32.74 193.367 33.22 193.58C33.6867 193.78 34.2467 193.88 34.9 193.88L35.04 193.88C36.1333 193.88 36.9533 193.627 37.5 193.12C38.0333 192.6 38.3 191.84 38.3 190.84C38.3 190.493 38.26 190.107 38.18 189.68C38.0867 189.24 37.9333 188.827 37.72 188.44C37.56 188.16 37.4933 187.913 37.52 187.7C37.5333 187.487 37.6067 187.32 37.74 187.2C37.8733 187.067 38.04 186.987 38.24 186.96C38.4267 186.933 38.62 186.973 38.82 187.08C39.02 187.173 39.1933 187.34 39.34 187.58C39.6333 188.047 39.8533 188.587 40 189.2C40.1333 189.8 40.2 190.36 40.2 190.88ZM40.16 183.62C40.16 184.02 40.0533 184.327 39.84 184.54C39.6133 184.753 39.2933 184.86 38.88 184.86L31.32 184.86C30.9067 184.86 30.5933 184.753 30.38 184.54C30.1667 184.327 30.06 184.027 30.06 183.64C30.06 183.253 30.1667 182.953 30.38 182.74C30.5933 182.527 30.9067 182.42 31.32 182.42L32.68 182.42L32.18 182.64C31.4733 182.347 30.94 181.893 30.58 181.28C30.2067 180.653 30.02 179.947 30.02 179.16C30.02 178.373 30.1667 177.727 30.46 177.22C30.7533 176.713 31.2 176.333 31.8 176.08C32.3867 175.827 33.1333 175.7 34.04 175.7L38.88 175.7C39.2933 175.7 39.6133 175.807 39.84 176.02C40.0533 176.233 40.16 176.54 40.16 176.94C40.16 177.34 40.0533 177.653 39.84 177.88C39.6133 178.093 39.2933 178.2 38.88 178.2L34.16 178.2C33.4 178.2 32.8467 178.347 32.5 178.64C32.1533 178.92 31.98 179.36 31.98 179.96C31.98 180.693 32.2133 181.28 32.68 181.72C33.1333 182.147 33.74 182.36 34.5 182.36L38.88 182.36C39.7333 182.36 40.16 182.78 40.16 183.62ZM40.2 169.621C40.2 170.434 40.0533 171.108 39.76 171.641C39.4533 172.174 39 172.574 38.4 172.841C37.8 173.094 37.0533 173.221 36.16 173.221L31.32 173.221C30.8933 173.221 30.58 173.114 30.38 172.901C30.1667 172.688 30.06 172.381 30.06 171.981C30.06 171.581 30.1667 171.274 30.38 171.061C30.58 170.834 30.8933 170.721 31.32 170.721L36.2 170.721C36.8933 170.721 37.4067 170.581 37.74 170.301C38.0733 170.021 38.24 169.574 38.24 168.961C38.24 168.294 38.0133 167.748 37.56 167.321C37.0933 166.894 36.48 166.681 35.72 166.681L31.32 166.681C30.8933 166.681 30.58 166.574 30.38 166.361C30.1667 166.148 30.06 165.841 30.06 165.441C30.06 165.041 30.1667 164.734 30.38 164.521C30.58 164.294 30.8933 164.181 31.32 164.181L38.88 164.181C39.7333 164.181 40.16 164.588 40.16 165.401C40.16 165.788 40.0533 166.088 39.84 166.301C39.6133 166.514 39.2933 166.621 38.88 166.621L37.36 166.621L37.96 166.341C38.68 166.621 39.2333 167.048 39.62 167.621C40.0067 168.181 40.2 168.848 40.2 169.621ZM28.12 166.781C28.12 167.181 28.0133 167.488 27.8 167.701C27.5867 167.914 27.28 168.021 26.88 168.021C26.4933 168.021 26.1933 167.914 25.98 167.701C25.7667 167.488 25.66 167.181 25.66 166.781C25.66 166.394 25.7667 166.094 25.98 165.881C26.1933 165.668 26.4933 165.561 26.88 165.561C27.28 165.561 27.5867 165.668 27.8 165.881C28.0133 166.081 28.12 166.381 28.12 166.781ZM28.12 170.561C28.12 170.948 28.0133 171.254 27.8 171.481C27.5867 171.694 27.28 171.801 26.88 171.801C26.4933 171.801 26.1933 171.694 25.98 171.481C25.7667 171.254 25.66 170.948 25.66 170.561C25.66 170.161 25.7667 169.854 25.98 169.641C26.1933 169.428 26.4933 169.321 26.88 169.321C27.28 169.321 27.5867 169.428 27.8 169.641C28.0133 169.854 28.12 170.161 28.12 170.561ZM40.2 152.569C40.2 153.143 40.14 153.749 40.02 154.389C39.9 155.029 39.6933 155.603 39.4 156.109C39.2667 156.323 39.1133 156.476 38.94 156.569C38.7533 156.649 38.5733 156.683 38.4 156.669C38.2133 156.643 38.0533 156.576 37.92 156.469C37.7867 156.349 37.7 156.203 37.66 156.029C37.62 155.843 37.6533 155.643 37.76 155.429C38.0133 154.896 38.1933 154.396 38.3 153.929C38.3933 153.463 38.44 153.003 38.44 152.549C38.44 151.909 38.3333 151.436 38.12 151.129C37.8933 150.809 37.6 150.649 37.24 150.649C36.9333 150.649 36.7 150.756 36.54 150.969C36.3667 151.169 36.24 151.476 36.16 151.889L35.78 153.889C35.62 154.716 35.32 155.349 34.88 155.789C34.4267 156.216 33.8467 156.429 33.14 156.429C32.5 156.429 31.9467 156.256 31.48 155.909C31.0133 155.549 30.6533 155.056 30.4 154.429C30.1467 153.803 30.02 153.083 30.02 152.269C30.02 151.683 30.0867 151.136 30.22 150.629C30.34 150.109 30.5333 149.609 30.8 149.129C30.9067 148.929 31.0467 148.796 31.22 148.729C31.3933 148.649 31.5733 148.629 31.76 148.669C31.9333 148.709 32.0933 148.789 32.24 148.909C32.3733 149.029 32.46 149.183 32.5 149.369C32.5267 149.543 32.4867 149.743 32.38 149.969C32.1667 150.383 32.0133 150.783 31.92 151.169C31.8267 151.543 31.78 151.903 31.78 152.249C31.78 152.903 31.8933 153.389 32.12 153.709C32.3467 154.016 32.6467 154.169 33.02 154.169C33.3 154.169 33.5333 154.076 33.72 153.889C33.9067 153.703 34.0333 153.416 34.1 153.029L34.48 151.029C34.64 150.163 34.9333 149.509 35.36 149.069C35.7867 148.616 36.36 148.389 37.08 148.389C38.0533 148.389 38.82 148.769 39.38 149.529C39.9267 150.289 40.2 151.303 40.2 152.569ZM40.2 141.864C40.2 142.89 39.9933 143.784 39.58 144.544C39.1533 145.304 38.5533 145.89 37.78 146.304C37.0067 146.717 36.1 146.924 35.06 146.924C34.2733 146.924 33.5733 146.81 32.96 146.584C32.3333 146.344 31.8067 146.004 31.38 145.564C30.94 145.124 30.6067 144.59 30.38 143.964C30.14 143.337 30.02 142.637 30.02 141.864C30.02 141.424 30.08 140.95 30.2 140.444C30.32 139.924 30.52 139.437 30.8 138.984C30.9333 138.77 31.0933 138.63 31.28 138.564C31.4667 138.497 31.66 138.484 31.86 138.524C32.0467 138.564 32.2133 138.65 32.36 138.784C32.4933 138.904 32.58 139.057 32.62 139.244C32.6467 139.43 32.6 139.637 32.48 139.864C32.3067 140.157 32.18 140.457 32.1 140.764C32.0067 141.07 31.96 141.364 31.96 141.644C31.96 142.084 32.0333 142.47 32.18 142.804C32.3133 143.137 32.5133 143.424 32.78 143.664C33.0333 143.89 33.3533 144.064 33.74 144.184C34.1267 144.304 34.5733 144.364 35.08 144.364C36.0667 144.364 36.8467 144.13 37.42 143.664C37.98 143.184 38.26 142.51 38.26 141.644C38.26 141.364 38.22 141.077 38.14 140.784C38.06 140.477 37.9333 140.17 37.76 139.864C37.64 139.637 37.6 139.437 37.64 139.264C37.68 139.077 37.7733 138.924 37.92 138.804C38.0533 138.684 38.22 138.61 38.42 138.584C38.6067 138.557 38.7933 138.584 38.98 138.664C39.1667 138.73 39.32 138.864 39.44 139.064C39.7067 139.504 39.9 139.97 40.02 140.464C40.14 140.957 40.2 141.424 40.2 141.864ZM40.16 135.71C40.16 136.11 40.0533 136.417 39.84 136.63C39.6133 136.843 39.2933 136.95 38.88 136.95L27 136.95C26.5867 136.95 26.2733 136.843 26.06 136.63C25.8467 136.417 25.74 136.11 25.74 135.71C25.74 135.31 25.8467 135.003 26.06 134.79C26.2733 134.563 26.5867 134.45 27 134.45L32.18 134.45L32.18 134.73C31.4733 134.437 30.94 133.983 30.58 133.37C30.2067 132.743 30.02 132.037 30.02 131.25C30.02 130.463 30.1667 129.817 30.46 129.31C30.7533 128.803 31.2 128.423 31.8 128.17C32.3867 127.917 33.1333 127.79 34.04 127.79L38.88 127.79C39.2933 127.79 39.6133 127.897 39.84 128.11C40.0533 128.323 40.16 128.63 40.16 129.03C40.16 129.43 40.0533 129.743 39.84 129.97C39.6133 130.183 39.2933 130.29 38.88 130.29L34.16 130.29C33.4 130.29 32.8467 130.437 32.5 130.73C32.1533 131.01 31.98 131.45 31.98 132.05C31.98 132.783 32.2133 133.37 32.68 133.81C33.1333 134.237 33.74 134.45 34.5 134.45L38.88 134.45C39.7333 134.45 40.16 134.87 40.16 135.71ZM40.2 121.911C40.2 123.017 39.8867 123.851 39.26 124.411C38.62 124.971 37.6867 125.251 36.46 125.251L27 125.251C26.5867 125.251 26.2733 125.144 26.06 124.931C25.8467 124.717 25.74 124.411 25.74 124.011C25.74 123.611 25.8467 123.304 26.06 123.091C26.2733 122.864 26.5867 122.751 27 122.751L36.34 122.751C36.9533 122.751 37.4067 122.624 37.7 122.371C37.9933 122.104 38.14 121.731 38.14 121.251C38.14 121.144 38.14 121.044 38.14 120.951C38.1267 120.857 38.1133 120.764 38.1 120.671C38.0733 120.484 38.1267 120.357 38.26 120.291C38.38 120.224 38.6333 120.191 39.02 120.191C39.3533 120.191 39.6133 120.257 39.8 120.391C39.9867 120.524 40.1 120.744 40.14 121.051C40.1533 121.184 40.1667 121.324 40.18 121.471C40.1933 121.617 40.2 121.764 40.2 121.911ZM40.14 117.624C40.14 118.024 40.02 118.331 39.78 118.544C39.54 118.757 39.2067 118.864 38.78 118.864L31.44 118.864C31 118.864 30.6667 118.757 30.44 118.544C30.2 118.331 30.08 118.024 30.08 117.624C30.08 117.224 30.2 116.917 30.44 116.704C30.6667 116.477 31 116.364 31.44 116.364L38.78 116.364C39.2067 116.364 39.54 116.471 39.78 116.684C40.02 116.897 40.14 117.211 40.14 117.624ZM28.22 117.624C28.22 118.091 28.1067 118.457 27.88 118.724C27.64 118.977 27.3133 119.104 26.9 119.104C26.4733 119.104 26.1467 118.977 25.92 118.724C25.6933 118.457 25.58 118.091 25.58 117.624C25.58 117.144 25.6933 116.777 25.92 116.524C26.1467 116.271 26.4733 116.144 26.9 116.144C27.3133 116.144 27.64 116.271 27.88 116.524C28.1067 116.777 28.22 117.144 28.22 117.624ZM40.2 108.946C40.2 110.053 39.9933 111.006 39.58 111.806C39.1667 112.606 38.58 113.226 37.82 113.666C37.06 114.093 36.16 114.306 35.12 114.306C34.1067 114.306 33.22 114.1 32.46 113.686C31.7 113.26 31.1067 112.68 30.68 111.946C30.24 111.2 30.02 110.353 30.02 109.406C30.02 108.713 30.1333 108.093 30.36 107.546C30.5867 106.986 30.9133 106.513 31.34 106.126C31.7667 105.726 32.2867 105.426 32.9 105.226C33.5 105.013 34.18 104.906 34.94 104.906C35.18 104.906 35.3667 104.993 35.5 105.166C35.62 105.326 35.68 105.56 35.68 105.866L35.68 112.286L34.24 112.286L34.24 106.666L34.54 106.986C33.9267 106.986 33.4133 107.08 33 107.266C32.5867 107.44 32.2733 107.7 32.06 108.046C31.8333 108.38 31.72 108.8 31.72 109.306C31.72 109.866 31.8533 110.346 32.12 110.746C32.3733 111.133 32.74 111.433 33.22 111.646C33.6867 111.846 34.2467 111.946 34.9 111.946L35.04 111.946C36.1333 111.946 36.9533 111.693 37.5 111.186C38.0333 110.666 38.3 109.906 38.3 108.906C38.3 108.56 38.26 108.173 38.18 107.746C38.0867 107.306 37.9333 106.893 37.72 106.506C37.56 106.226 37.4933 105.98 37.52 105.766C37.5333 105.553 37.6067 105.386 37.74 105.266C37.8733 105.133 38.04 105.053 38.24 105.026C38.4267 105 38.62 105.04 38.82 105.146C39.02 105.24 39.1933 105.406 39.34 105.646C39.6333 106.113 39.8533 106.653 40 107.266C40.1333 107.866 40.2 108.426 40.2 108.946ZM40.2 95.5066C40.2 96.0799 40.1267 96.6666 39.98 97.2666C39.8333 97.8532 39.6133 98.3932 39.32 98.8866C39.1867 99.0999 39.0267 99.2466 38.84 99.3266C38.6533 99.4066 38.4667 99.4332 38.28 99.4066C38.08 99.3666 37.9133 99.2866 37.78 99.1666C37.6333 99.0332 37.5467 98.8732 37.52 98.6866C37.48 98.4999 37.52 98.2999 37.64 98.0866C37.8933 97.6466 38.0733 97.1932 38.18 96.7266C38.2733 96.2466 38.32 95.8266 38.32 95.4666C38.32 94.9732 38.22 94.5866 38.02 94.3066C37.82 94.0266 37.5333 93.8866 37.16 93.8866C36.8533 93.8866 36.6 94.0266 36.4 94.3066C36.1867 94.5732 35.9733 95.0666 35.76 95.7866C35.44 96.8399 35.06 97.5799 34.62 98.0066C34.18 98.4332 33.6333 98.6466 32.98 98.6466C32.7 98.6466 32.4267 98.6066 32.16 98.5266C31.8933 98.4466 31.6133 98.2999 31.32 98.0866C31.0267 97.8732 30.7067 97.5799 30.36 97.2066C30.0267 96.8599 29.74 96.6199 29.5 96.4866C29.2467 96.3399 28.98 96.2666 28.7 96.2666C28.34 96.2666 28.0533 96.3999 27.84 96.6666C27.6267 96.9199 27.52 97.2999 27.52 97.8066C27.52 98.6599 27.7733 99.3132 28.28 99.7666C28.7867 100.207 29.5067 100.427 30.44 100.427L38.88 100.427C39.2933 100.427 39.6133 100.54 39.84 100.767C40.0533 100.98 40.16 101.287 40.16 101.687C40.16 102.087 40.0533 102.393 39.84 102.607C39.6133 102.82 39.2933 102.927 38.88 102.927L30.82 102.927C29.18 102.927 27.92 102.487 27.04 101.607C26.1467 100.713 25.7 99.4399 25.7 97.7866C25.7 96.9732 25.8133 96.2799 26.04 95.7066C26.2667 95.1199 26.5867 94.6732 27 94.3666C27.4133 94.0599 27.9067 93.9066 28.48 93.9066C28.9467 93.9066 29.38 94.0066 29.78 94.2066C30.18 94.4066 30.6133 94.7599 31.08 95.2666C31.3467 95.5466 31.5733 95.7666 31.76 95.9266C31.9333 96.0866 32.0933 96.1999 32.24 96.2666C32.3733 96.3199 32.52 96.3466 32.68 96.3466C32.96 96.3466 33.2067 96.2132 33.42 95.9466C33.62 95.6666 33.8333 95.1466 34.06 94.3866C34.3533 93.3999 34.74 92.6932 35.22 92.2666C35.7 91.8266 36.3 91.6066 37.02 91.6066C37.66 91.6066 38.22 91.7666 38.7 92.0866C39.1667 92.4066 39.5333 92.8599 39.8 93.4466C40.0667 94.0332 40.2 94.7199 40.2 95.5066ZM40.2 85.0402C40.2 86.1468 39.9933 87.1002 39.58 87.9002C39.1667 88.7002 38.58 89.3202 37.82 89.7602C37.06 90.1868 36.16 90.4002 35.12 90.4002C34.1067 90.4002 33.22 90.1935 32.46 89.7802C31.7 89.3535 31.1067 88.7735 30.68 88.0402C30.24 87.2935 30.02 86.4468 30.02 85.5002C30.02 84.8068 30.1333 84.1868 30.36 83.6402C30.5867 83.0802 30.9133 82.6068 31.34 82.2202C31.7667 81.8202 32.2867 81.5202 32.9 81.3202C33.5 81.1068 34.18 81.0002 34.94 81.0002C35.18 81.0002 35.3667 81.0868 35.5 81.2602C35.62 81.4202 35.68 81.6535 35.68 81.9602L35.68 88.3802L34.24 88.3802L34.24 82.7602L34.54 83.0802C33.9267 83.0802 33.4133 83.1735 33 83.3602C32.5867 83.5335 32.2733 83.7935 32.06 84.1402C31.8333 84.4735 31.72 84.8935 31.72 85.4002C31.72 85.9602 31.8533 86.4402 32.12 86.8402C32.3733 87.2268 32.74 87.5268 33.22 87.7402C33.6867 87.9402 34.2467 88.0402 34.9 88.0402L35.04 88.0402C36.1333 88.0402 36.9533 87.7868 37.5 87.2802C38.0333 86.7602 38.3 86.0002 38.3 85.0002C38.3 84.6535 38.26 84.2668 38.18 83.8402C38.0867 83.4002 37.9333 82.9868 37.72 82.6002C37.56 82.3202 37.4933 82.0735 37.52 81.8602C37.5333 81.6468 37.6067 81.4802 37.74 81.3602C37.8733 81.2268 38.04 81.1468 38.24 81.1202C38.4267 81.0935 38.62 81.1335 38.82 81.2402C39.02 81.3335 39.1933 81.5002 39.34 81.7402C39.6333 82.2068 39.8533 82.7468 40 83.3602C40.1333 83.9602 40.2 84.5202 40.2 85.0402ZM40.16 77.7803C40.16 78.1803 40.0533 78.487 39.84 78.7003C39.6133 78.9136 39.2933 79.0203 38.88 79.0203L31.32 79.0203C30.9067 79.0203 30.5933 78.9136 30.38 78.7003C30.1667 78.487 30.06 78.187 30.06 77.8003C30.06 77.4136 30.1667 77.1136 30.38 76.9003C30.5933 76.687 30.9067 76.5803 31.32 76.5803L32.68 76.5803L32.18 76.8003C31.4733 76.507 30.94 76.0536 30.58 75.4403C30.2067 74.8136 30.02 74.107 30.02 73.3203C30.02 72.5336 30.1667 71.887 30.46 71.3803C30.7533 70.8736 31.2 70.4936 31.8 70.2403C32.3867 69.987 33.1333 69.8603 34.04 69.8603L38.88 69.8603C39.2933 69.8603 39.6133 69.967 39.84 70.1803C40.0533 70.3936 40.16 70.7003 40.16 71.1003C40.16 71.5003 40.0533 71.8136 39.84 72.0403C39.6133 72.2536 39.2933 72.3603 38.88 72.3603L34.16 72.3603C33.4 72.3603 32.8467 72.507 32.5 72.8003C32.1533 73.0803 31.98 73.5203 31.98 74.1203C31.98 74.8536 32.2133 75.4403 32.68 75.8803C33.1333 76.307 33.74 76.5203 34.5 76.5203L38.88 76.5203C39.7333 76.5203 40.16 76.9403 40.16 77.7803Z" fill="#535AF1"/>
</g>
<defs>
<filter id="filter0_d_1854_19285" x="0" y="0" width="74" height="361" filterUnits="userSpaceOnUse" color-interpolation-filters="sRGB">
<feFlood flood-opacity="0" result="BackgroundImageFix"/>
<feColorMatrix in="SourceAlpha" type="matrix" values="0 0 0 0 0 0 0 0 0 0 0 0 0 0 0 0 0 0 127 0" result="hardAlpha"/>
<feOffset dx="4" dy="4"/>
<feGaussianBlur stdDeviation="3.5"/>
<feComposite in2="hardAlpha" operator="out"/>
<feColorMatrix type="matrix" values="0 0 0 0 0 0 0 0 0 0 0 0 0 0 0 0 0 0 0.2 0"/>
<feBlend mode="normal" in2="BackgroundImageFix" result="effect1_dropShadow_1854_19285"/>
<feBlend mode="normal" in="SourceGraphic" in2="effect1_dropShadow_1854_19285" result="shape"/>
</filter>
</defs>
</svg>
