<svg width="74" height="320" viewBox="0 0 74 320" fill="none" xmlns="http://www.w3.org/2000/svg">
<g filter="url(#filter0_d_1854_19292)">
<path d="M3 3H33C49.5685 3 63 16.4315 63 33V279C63 295.569 49.5685 309 33 309H3V3Z" fill="white"/>
<rect x="25" y="37" width="16" height="16" rx="1" stroke="black" stroke-width="2"/>
<path d="M30.7144 37V53" stroke="black" stroke-width="2"/>
<path d="M34.143 47.2856L36.0752 45.3535C36.2704 45.1582 36.2704 44.8416 36.0752 44.6464L34.143 42.7142" stroke="black" stroke-width="2" stroke-linecap="round"/>
<path d="M40.14 276.68C40.14 276.947 40.0733 277.16 39.94 277.32C39.8067 277.48 39.5933 277.613 39.3 277.72L26.86 282.08C26.5533 282.2 26.2933 282.187 26.08 282.04C25.8667 281.88 25.76 281.62 25.76 281.26C25.76 281.007 25.82 280.807 25.94 280.66C26.06 280.513 26.26 280.393 26.54 280.3L38.34 276.28L38.34 277L26.58 272.88C26.3 272.773 26.0933 272.647 25.96 272.5C25.8267 272.353 25.76 272.16 25.76 271.92C25.76 271.667 25.8267 271.473 25.96 271.34C26.0933 271.193 26.3067 271.073 26.6 270.98L38.34 266.94L38.34 267.58L26.54 263.52C26.2733 263.427 26.08 263.307 25.96 263.16C25.8267 263.013 25.76 262.807 25.76 262.54C25.76 262.233 25.8667 262.007 26.08 261.86C26.2933 261.713 26.5533 261.693 26.86 261.8L39.32 266.2C39.6 266.293 39.8067 266.42 39.94 266.58C40.0733 266.74 40.14 266.953 40.14 267.22C40.14 267.5 40.0733 267.72 39.94 267.88C39.8067 268.04 39.5933 268.173 39.3 268.28L28.1 272.18L28.1 271.74L39.32 275.66C39.6 275.767 39.8067 275.9 39.94 276.06C40.0733 276.207 40.14 276.413 40.14 276.68ZM40.18 256.521C40.18 257.481 39.9733 258.314 39.56 259.021C39.1467 259.728 38.56 260.274 37.8 260.661C37.04 261.048 36.1467 261.241 35.12 261.241C34.3467 261.241 33.6533 261.134 33.04 260.921C32.4133 260.694 31.88 260.374 31.44 259.961C31 259.548 30.6667 259.054 30.44 258.481C30.2 257.894 30.08 257.241 30.08 256.521C30.08 255.561 30.2867 254.728 30.7 254.021C31.1133 253.314 31.7 252.768 32.46 252.381C33.2067 251.994 34.0933 251.801 35.12 251.801C35.8933 251.801 36.5933 251.914 37.22 252.141C37.8467 252.354 38.38 252.668 38.82 253.081C39.26 253.494 39.6 253.994 39.84 254.581C40.0667 255.154 40.18 255.801 40.18 256.521ZM38.74 256.521C38.74 255.934 38.6 255.428 38.32 255.001C38.04 254.561 37.6333 254.228 37.1 254.001C36.5667 253.761 35.9067 253.641 35.12 253.641C33.9467 253.641 33.0533 253.901 32.44 254.421C31.8267 254.941 31.52 255.641 31.52 256.521C31.52 257.094 31.66 257.601 31.94 258.041C32.2067 258.468 32.6067 258.801 33.14 259.041C33.6733 259.281 34.3333 259.401 35.12 259.401C36.2933 259.401 37.1933 259.141 37.82 258.621C38.4333 258.088 38.74 257.388 38.74 256.521ZM40.14 248.53C40.14 248.836 40.06 249.07 39.9 249.23C39.74 249.39 39.5067 249.47 39.2 249.47L31.04 249.47C30.7333 249.47 30.5067 249.39 30.36 249.23C30.2 249.07 30.12 248.85 30.12 248.57C30.12 248.29 30.2 248.076 30.36 247.93C30.5067 247.77 30.7333 247.69 31.04 247.69L32.58 247.69L32.58 247.89C31.78 247.676 31.1733 247.276 30.76 246.69C30.3467 246.103 30.1133 245.363 30.06 244.47C30.0467 244.256 30.1 244.083 30.22 243.95C30.3267 243.816 30.5133 243.743 30.78 243.73C31.0333 243.716 31.24 243.776 31.4 243.91C31.5467 244.043 31.6333 244.25 31.66 244.53L31.68 244.89C31.7733 245.77 32.06 246.45 32.54 246.93C33.02 247.396 33.68 247.63 34.52 247.63L39.2 247.63C39.5067 247.63 39.74 247.71 39.9 247.87C40.06 248.016 40.14 248.236 40.14 248.53ZM40.14 241.265C40.14 241.545 40.06 241.765 39.9 241.925C39.74 242.085 39.5067 242.165 39.2 242.165L26.68 242.165C26.3733 242.165 26.1467 242.085 26 241.925C25.84 241.765 25.76 241.545 25.76 241.265C25.76 240.972 25.84 240.745 26 240.585C26.1467 240.425 26.3733 240.345 26.68 240.345L34.56 240.345L34.56 240.305L30.74 236.385C30.54 236.185 30.3867 236.005 30.28 235.845C30.1733 235.685 30.12 235.478 30.12 235.225C30.12 234.972 30.1867 234.778 30.32 234.645C30.44 234.512 30.6 234.445 30.8 234.445C30.9867 234.445 31.1733 234.538 31.36 234.725L35.4 238.885L34.5 238.885L38.88 234.345C39.0667 234.158 39.26 234.072 39.46 234.085C39.66 234.085 39.8267 234.158 39.96 234.305C40.08 234.438 40.14 234.618 40.14 234.845C40.14 235.112 40.0867 235.332 39.98 235.505C39.8733 235.665 39.7067 235.852 39.48 236.065L35.48 240.305L35.48 240.345L39.2 240.345C39.8267 240.345 40.14 240.652 40.14 241.265ZM40.18 228.825C40.18 229.425 40.1133 230.031 39.98 230.645C39.8333 231.245 39.5867 231.811 39.24 232.345C39.1467 232.491 39.0333 232.598 38.9 232.665C38.7533 232.718 38.6133 232.738 38.48 232.725C38.3333 232.698 38.2067 232.638 38.1 232.545C37.9933 232.451 37.9333 232.338 37.92 232.205C37.8933 232.058 37.9267 231.905 38.02 231.745C38.3133 231.225 38.52 230.725 38.64 230.245C38.76 229.751 38.82 229.265 38.82 228.785C38.82 228.051 38.6867 227.498 38.42 227.125C38.1533 226.751 37.8 226.565 37.36 226.565C36.9867 226.565 36.7 226.691 36.5 226.945C36.2867 227.185 36.1267 227.565 36.02 228.085L35.64 229.945C35.4533 230.771 35.1467 231.398 34.72 231.825C34.28 232.238 33.72 232.445 33.04 232.445C32.44 232.445 31.92 232.285 31.48 231.965C31.0267 231.631 30.68 231.171 30.44 230.585C30.2 229.998 30.08 229.325 30.08 228.565C30.08 227.978 30.16 227.425 30.32 226.905C30.4667 226.371 30.6933 225.891 31 225.465C31.0933 225.305 31.2133 225.205 31.36 225.165C31.4933 225.111 31.6333 225.105 31.78 225.145C31.9133 225.171 32.0267 225.231 32.12 225.325C32.2133 225.418 32.2733 225.538 32.3 225.685C32.3133 225.831 32.2733 225.991 32.18 226.165C31.9133 226.551 31.7267 226.951 31.62 227.365C31.5 227.765 31.44 228.165 31.44 228.565C31.44 229.285 31.58 229.831 31.86 230.205C32.14 230.565 32.5067 230.745 32.96 230.745C33.3067 230.745 33.5933 230.638 33.82 230.425C34.0467 230.198 34.2133 229.845 34.32 229.365L34.7 227.505C34.8867 226.638 35.1867 225.985 35.6 225.545C36 225.105 36.5467 224.885 37.24 224.885C38.1467 224.885 38.8667 225.245 39.4 225.965C39.92 226.671 40.18 227.625 40.18 228.825ZM43.74 221.617C43.74 221.897 43.66 222.117 43.5 222.277C43.34 222.437 43.1133 222.517 42.82 222.517L31.04 222.517C30.7333 222.517 30.5067 222.437 30.36 222.277C30.2 222.117 30.12 221.897 30.12 221.617C30.12 221.323 30.2 221.103 30.36 220.957C30.5067 220.797 30.7333 220.717 31.04 220.717L32.86 220.717L32.5 220.937C31.7667 220.723 31.18 220.303 30.74 219.677C30.3 219.05 30.08 218.297 30.08 217.417C30.08 216.55 30.2867 215.797 30.7 215.157C31.1 214.517 31.68 214.017 32.44 213.657C33.1867 213.297 34.08 213.117 35.12 213.117C36.1467 213.117 37.0467 213.297 37.82 213.657C38.58 214.003 39.1667 214.503 39.58 215.157C39.98 215.797 40.18 216.55 40.18 217.417C40.18 218.283 39.96 219.03 39.52 219.657C39.08 220.283 38.5 220.703 37.78 220.917L37.78 220.697L42.82 220.697C43.1133 220.697 43.34 220.777 43.5 220.937C43.66 221.097 43.74 221.323 43.74 221.617ZM38.74 217.837C38.74 217.263 38.6 216.763 38.32 216.337C38.04 215.897 37.6333 215.557 37.1 215.317C36.5667 215.077 35.9067 214.957 35.12 214.957C33.9467 214.957 33.0533 215.217 32.44 215.737C31.8267 216.257 31.52 216.957 31.52 217.837C31.52 218.423 31.66 218.937 31.94 219.377C32.2067 219.803 32.6067 220.137 33.14 220.377C33.6733 220.603 34.3333 220.717 35.12 220.717C36.2933 220.717 37.1933 220.457 37.82 219.937C38.4333 219.417 38.74 218.717 38.74 217.837ZM40.18 207.678C40.18 208.345 40.0467 208.952 39.78 209.498C39.5133 210.032 39.1533 210.452 38.7 210.758C38.2467 211.052 37.74 211.198 37.18 211.198C36.46 211.198 35.8933 211.018 35.48 210.658C35.0667 210.298 34.7733 209.692 34.6 208.838C34.4133 207.985 34.32 206.838 34.32 205.398L34.32 204.458L35.48 204.458L35.48 205.358C35.48 206.385 35.5267 207.198 35.62 207.798C35.7133 208.385 35.88 208.798 36.12 209.038C36.3467 209.278 36.6667 209.398 37.08 209.398C37.6 209.398 38.0267 209.218 38.36 208.858C38.6933 208.485 38.86 207.978 38.86 207.338C38.86 206.832 38.74 206.385 38.5 205.998C38.2467 205.612 37.9133 205.305 37.5 205.078C37.0733 204.852 36.5867 204.738 36.04 204.738L33.74 204.738C32.9533 204.738 32.3867 204.898 32.04 205.218C31.68 205.538 31.5 206.078 31.5 206.838C31.5 207.278 31.56 207.732 31.68 208.198C31.8 208.665 31.9867 209.152 32.24 209.658C32.3333 209.858 32.3667 210.032 32.34 210.178C32.3 210.325 32.22 210.445 32.1 210.538C31.9667 210.618 31.8267 210.665 31.68 210.678C31.52 210.678 31.3667 210.645 31.22 210.578C31.0733 210.498 30.9667 210.365 30.9 210.178C30.6067 209.592 30.4 209.012 30.28 208.438C30.1467 207.852 30.08 207.305 30.08 206.798C30.08 205.932 30.22 205.218 30.5 204.658C30.7667 204.098 31.1867 203.678 31.76 203.398C32.32 203.118 33.04 202.978 33.92 202.978L39.2 202.978C39.5067 202.978 39.74 203.052 39.9 203.198C40.06 203.345 40.14 203.558 40.14 203.838C40.14 204.105 40.06 204.318 39.9 204.478C39.74 204.625 39.5067 204.698 39.2 204.698L37.78 204.698L37.78 204.518C38.2733 204.625 38.7 204.825 39.06 205.118C39.42 205.412 39.7 205.778 39.9 206.218C40.0867 206.645 40.18 207.132 40.18 207.678ZM40.18 195.894C40.18 196.881 39.9733 197.734 39.56 198.454C39.1333 199.174 38.54 199.728 37.78 200.114C37.0067 200.501 36.1 200.694 35.06 200.694C34.2867 200.694 33.5933 200.588 32.98 200.374C32.3667 200.148 31.8467 199.828 31.42 199.414C30.98 199.001 30.6467 198.501 30.42 197.914C30.1933 197.314 30.08 196.641 30.08 195.894C30.08 195.428 30.1533 194.934 30.3 194.414C30.4467 193.894 30.6867 193.414 31.02 192.974C31.1267 192.828 31.2533 192.734 31.4 192.694C31.5333 192.654 31.6733 192.654 31.82 192.694C31.9667 192.721 32.0933 192.788 32.2 192.894C32.2933 192.988 32.3467 193.114 32.36 193.274C32.3733 193.421 32.3267 193.581 32.22 193.754C31.98 194.074 31.8067 194.414 31.7 194.774C31.5933 195.121 31.54 195.454 31.54 195.774C31.54 196.268 31.62 196.708 31.78 197.094C31.94 197.468 32.1733 197.788 32.48 198.054C32.7733 198.308 33.14 198.501 33.58 198.634C34.0067 198.768 34.5067 198.834 35.08 198.834C36.2133 198.834 37.1067 198.568 37.76 198.034C38.4 197.501 38.72 196.748 38.72 195.774C38.72 195.454 38.6733 195.121 38.58 194.774C38.4733 194.428 38.3 194.088 38.06 193.754C37.9533 193.581 37.9133 193.421 37.94 193.274C37.9533 193.128 38.0133 193.008 38.12 192.914C38.2133 192.808 38.3333 192.741 38.48 192.714C38.6133 192.688 38.7533 192.701 38.9 192.754C39.0467 192.794 39.1667 192.888 39.26 193.034C39.58 193.461 39.8133 193.928 39.96 194.434C40.1067 194.941 40.18 195.428 40.18 195.894ZM40.18 186.513C40.18 187.566 39.98 188.473 39.58 189.233C39.1667 189.979 38.5867 190.559 37.84 190.973C37.08 191.386 36.1867 191.593 35.16 191.593C34.1467 191.593 33.26 191.393 32.5 190.993C31.74 190.579 31.1467 190.019 30.72 189.313C30.2933 188.593 30.08 187.773 30.08 186.853C30.08 186.199 30.1933 185.613 30.42 185.093C30.6333 184.559 30.9467 184.106 31.36 183.733C31.7733 183.359 32.28 183.079 32.88 182.893C33.4667 182.693 34.1333 182.593 34.88 182.593C35.0933 182.593 35.26 182.659 35.38 182.793C35.4867 182.913 35.54 183.093 35.54 183.333L35.54 190.173L34.38 190.173L34.38 183.793L34.66 184.133C33.9667 184.133 33.38 184.239 32.9 184.453C32.4067 184.653 32.0333 184.953 31.78 185.353C31.5267 185.739 31.4 186.226 31.4 186.813C31.4 187.453 31.5533 187.999 31.86 188.453C32.1533 188.906 32.5733 189.253 33.12 189.493C33.6533 189.733 34.2733 189.853 34.98 189.853L35.1 189.853C36.3 189.853 37.2067 189.566 37.82 188.993C38.4333 188.419 38.74 187.593 38.74 186.513C38.74 186.086 38.6867 185.653 38.58 185.213C38.4733 184.759 38.28 184.326 38 183.913C37.88 183.713 37.8267 183.533 37.84 183.373C37.84 183.199 37.8933 183.059 38 182.953C38.0933 182.846 38.2133 182.779 38.36 182.753C38.4933 182.726 38.64 182.746 38.8 182.813C38.96 182.879 39.1 183.006 39.22 183.193C39.5267 183.633 39.7667 184.159 39.94 184.773C40.1 185.373 40.18 185.953 40.18 186.513ZM35.42 179.515C35.42 179.728 35.3467 179.908 35.2 180.055C35.0533 180.201 34.8733 180.275 34.66 180.275C34.4467 180.275 34.2733 180.201 34.14 180.055C33.9933 179.908 33.92 179.728 33.92 179.515L33.92 175.055C33.92 174.855 33.9933 174.681 34.14 174.535C34.2733 174.375 34.4467 174.295 34.66 174.295C34.8733 174.295 35.0533 174.375 35.2 174.535C35.3467 174.681 35.42 174.855 35.42 175.055L35.42 179.515ZM40.14 170.44C40.14 170.706 40.06 170.913 39.9 171.06C39.74 171.206 39.5267 171.28 39.26 171.28L26.64 171.28C26.36 171.28 26.1467 171.206 26 171.06C25.84 170.9 25.76 170.686 25.76 170.42C25.76 170.18 25.8067 169.993 25.9 169.86C25.9933 169.713 26.1533 169.58 26.38 169.46L36.44 164.1L36.44 164.72L26.38 159.36C26.1533 159.24 25.9933 159.113 25.9 158.98C25.8067 158.846 25.76 158.66 25.76 158.42C25.76 158.153 25.84 157.946 26 157.8C26.1467 157.653 26.36 157.58 26.64 157.58L39.26 157.58C39.5267 157.58 39.74 157.653 39.9 157.8C40.06 157.933 40.14 158.14 40.14 158.42C40.14 158.7 40.06 158.913 39.9 159.06C39.74 159.193 39.5267 159.26 39.26 159.26L28.48 159.26L28.48 158.82L37.46 163.62C37.6333 163.726 37.7667 163.84 37.86 163.96C37.94 164.066 37.98 164.22 37.98 164.42C37.98 164.606 37.9333 164.766 37.84 164.9C37.7467 165.02 37.62 165.126 37.46 165.22L28.46 170.08L28.46 169.6L39.26 169.6C39.5267 169.6 39.74 169.673 39.9 169.82C40.06 169.953 40.14 170.16 40.14 170.44ZM40.18 149.892C40.18 150.945 39.98 151.852 39.58 152.612C39.1667 153.358 38.5867 153.938 37.84 154.352C37.08 154.765 36.1867 154.972 35.16 154.972C34.1467 154.972 33.26 154.772 32.5 154.372C31.74 153.958 31.1467 153.398 30.72 152.692C30.2933 151.972 30.08 151.152 30.08 150.232C30.08 149.578 30.1933 148.992 30.42 148.472C30.6333 147.938 30.9467 147.485 31.36 147.112C31.7733 146.738 32.28 146.458 32.88 146.272C33.4667 146.072 34.1333 145.972 34.88 145.972C35.0933 145.972 35.26 146.038 35.38 146.172C35.4867 146.292 35.54 146.472 35.54 146.712L35.54 153.552L34.38 153.552L34.38 147.172L34.66 147.512C33.9667 147.512 33.38 147.618 32.9 147.832C32.4067 148.032 32.0333 148.332 31.78 148.732C31.5267 149.118 31.4 149.605 31.4 150.192C31.4 150.832 31.5533 151.378 31.86 151.832C32.1533 152.285 32.5733 152.632 33.12 152.872C33.6533 153.112 34.2733 153.232 34.98 153.232L35.1 153.232C36.3 153.232 37.2067 152.945 37.82 152.372C38.4333 151.798 38.74 150.972 38.74 149.892C38.74 149.465 38.6867 149.032 38.58 148.592C38.4733 148.138 38.28 147.705 38 147.292C37.88 147.092 37.8267 146.912 37.84 146.752C37.84 146.578 37.8933 146.438 38 146.332C38.0933 146.225 38.2133 146.158 38.36 146.132C38.4933 146.105 38.64 146.125 38.8 146.192C38.96 146.258 39.1 146.385 39.22 146.572C39.5267 147.012 39.7667 147.538 39.94 148.152C40.1 148.752 40.18 149.332 40.18 149.892ZM40.14 142.808C40.14 143.088 40.06 143.308 39.9 143.468C39.74 143.628 39.5067 143.708 39.2 143.708L31.04 143.708C30.7333 143.708 30.5067 143.628 30.36 143.468C30.2 143.308 30.12 143.088 30.12 142.808C30.12 142.528 30.2 142.315 30.36 142.168C30.5067 142.008 30.7333 141.928 31.04 141.928L32.68 141.928L32.38 142.148C31.62 141.868 31.0467 141.415 30.66 140.788C30.2733 140.148 30.08 139.421 30.08 138.608C30.08 137.821 30.22 137.175 30.5 136.668C30.78 136.161 31.2067 135.781 31.78 135.528C32.3533 135.275 33.08 135.148 33.96 135.148L39.2 135.148C39.5067 135.148 39.74 135.228 39.9 135.388C40.06 135.535 40.14 135.755 40.14 136.048C40.14 136.341 40.06 136.568 39.9 136.728C39.74 136.888 39.5067 136.968 39.2 136.968L34.06 136.968C33.1933 136.968 32.56 137.135 32.16 137.468C31.76 137.801 31.56 138.335 31.56 139.068C31.56 139.921 31.8267 140.608 32.36 141.128C32.88 141.635 33.5867 141.888 34.48 141.888L39.2 141.888C39.8267 141.888 40.14 142.195 40.14 142.808ZM40.18 128.783C40.18 129.569 40.0333 130.229 39.74 130.763C39.4467 131.283 39.0133 131.669 38.44 131.923C37.8667 132.176 37.1467 132.303 36.28 132.303L31.04 132.303C30.7333 132.303 30.5067 132.229 30.36 132.083C30.2 131.923 30.12 131.696 30.12 131.403C30.12 131.109 30.2 130.883 30.36 130.723C30.5067 130.563 30.7333 130.483 31.04 130.483L36.28 130.483C37.1067 130.483 37.72 130.316 38.12 129.983C38.5067 129.649 38.7 129.123 38.7 128.403C38.7 127.603 38.4333 126.956 37.9 126.463C37.3667 125.956 36.66 125.703 35.78 125.703L31.04 125.703C30.7333 125.703 30.5067 125.629 30.36 125.483C30.2 125.323 30.12 125.096 30.12 124.803C30.12 124.509 30.2 124.283 30.36 124.123C30.5067 123.963 30.7333 123.883 31.04 123.883L39.2 123.883C39.8267 123.883 40.14 124.176 40.14 124.763C40.14 125.056 40.06 125.283 39.9 125.443C39.74 125.589 39.5067 125.663 39.2 125.663L37.46 125.663L37.8 125.403C38.5733 125.669 39.1667 126.103 39.58 126.703C39.98 127.289 40.18 127.983 40.18 128.783ZM27.92 126.303C27.92 126.623 27.8333 126.869 27.66 127.043C27.4867 127.216 27.24 127.303 26.92 127.303C26.6 127.303 26.36 127.216 26.2 127.043C26.0267 126.869 25.94 126.623 25.94 126.303C25.94 125.983 26.0267 125.736 26.2 125.563C26.36 125.389 26.6 125.303 26.92 125.303C27.24 125.303 27.4867 125.389 27.66 125.563C27.8333 125.723 27.92 125.969 27.92 126.303ZM27.92 129.843C27.92 130.163 27.8333 130.416 27.66 130.603C27.4867 130.776 27.24 130.863 26.92 130.863C26.6 130.863 26.36 130.776 26.2 130.603C26.0267 130.416 25.94 130.163 25.94 129.843C25.94 129.523 26.0267 129.276 26.2 129.103C26.36 128.929 26.6 128.843 26.92 128.843C27.24 128.843 27.4867 128.929 27.66 129.103C27.8333 129.276 27.92 129.523 27.92 129.843ZM40.18 111.599C40.18 112.559 39.9733 113.393 39.56 114.099C39.1467 114.806 38.56 115.353 37.8 115.739C37.04 116.126 36.1467 116.319 35.12 116.319C34.3467 116.319 33.6533 116.213 33.04 115.999C32.4133 115.773 31.88 115.453 31.44 115.039C31 114.626 30.6667 114.133 30.44 113.559C30.2 112.973 30.08 112.319 30.08 111.599C30.08 110.639 30.2867 109.806 30.7 109.099C31.1133 108.393 31.7 107.846 32.46 107.459C33.2067 107.073 34.0933 106.879 35.12 106.879C35.8933 106.879 36.5933 106.993 37.22 107.219C37.8467 107.433 38.38 107.746 38.82 108.159C39.26 108.573 39.6 109.073 39.84 109.659C40.0667 110.233 40.18 110.879 40.18 111.599ZM38.74 111.599C38.74 111.013 38.6 110.506 38.32 110.079C38.04 109.639 37.6333 109.306 37.1 109.079C36.5667 108.839 35.9067 108.719 35.12 108.719C33.9467 108.719 33.0533 108.979 32.44 109.499C31.8267 110.019 31.52 110.719 31.52 111.599C31.52 112.173 31.66 112.679 31.94 113.119C32.2067 113.546 32.6067 113.879 33.14 114.119C33.6733 114.359 34.3333 114.479 35.12 114.479C36.2933 114.479 37.1933 114.219 37.82 113.699C38.4333 113.166 38.74 112.466 38.74 111.599ZM27.94 109.819C27.94 110.139 27.8533 110.386 27.68 110.559C27.5067 110.733 27.26 110.819 26.94 110.819C26.62 110.819 26.38 110.733 26.22 110.559C26.0467 110.386 25.96 110.139 25.96 109.819C25.96 109.499 26.0467 109.253 26.22 109.079C26.38 108.906 26.62 108.819 26.94 108.819C27.26 108.819 27.5067 108.906 27.68 109.079C27.8533 109.239 27.94 109.486 27.94 109.819ZM27.94 113.359C27.94 113.679 27.8533 113.933 27.68 114.119C27.5067 114.293 27.26 114.379 26.94 114.379C26.62 114.379 26.38 114.293 26.22 114.119C26.0467 113.933 25.96 113.679 25.96 113.359C25.96 113.039 26.0467 112.793 26.22 112.619C26.38 112.446 26.62 112.359 26.94 112.359C27.26 112.359 27.5067 112.446 27.68 112.619C27.8533 112.793 27.94 113.039 27.94 113.359ZM40.14 103.165C40.14 103.459 40.06 103.685 39.9 103.845C39.74 104.005 39.5067 104.085 39.2 104.085L31.66 104.085L31.66 105.285C31.66 105.525 31.6 105.712 31.48 105.845C31.3467 105.979 31.1733 106.045 30.96 106.045C30.7333 106.045 30.56 105.979 30.44 105.845C30.32 105.712 30.26 105.525 30.26 105.285L30.26 103.585L30.74 104.085L30 104.085C28.7067 104.085 27.7267 103.772 27.06 103.145C26.38 102.505 25.9867 101.572 25.88 100.345L25.84 99.7255C25.8133 99.5255 25.8467 99.3655 25.94 99.2455C26.02 99.1255 26.1267 99.0455 26.26 99.0055C26.3933 98.9655 26.5333 98.9655 26.68 99.0055C26.8133 99.0321 26.9333 99.0921 27.04 99.1855C27.1467 99.2788 27.2067 99.3988 27.22 99.5455L27.24 99.9855C27.3067 100.785 27.5467 101.365 27.96 101.725C28.36 102.085 28.96 102.265 29.76 102.265L30.56 102.265L30.26 102.525L30.26 100.225C30.26 99.9721 30.32 99.7788 30.44 99.6455C30.56 99.5121 30.7333 99.4455 30.96 99.4455C31.1733 99.4455 31.3467 99.5121 31.48 99.6455C31.6 99.7788 31.66 99.9721 31.66 100.225L31.66 102.265L39.2 102.265C39.8267 102.265 40.14 102.565 40.14 103.165ZM40.14 96.7202C40.14 97.0135 40.06 97.2402 39.9 97.4002C39.74 97.5602 39.5067 97.6402 39.2 97.6402L31.66 97.6402L31.66 98.8402C31.66 99.0802 31.6 99.2668 31.48 99.4002C31.3467 99.5335 31.1733 99.6002 30.96 99.6002C30.7333 99.6002 30.56 99.5335 30.44 99.4002C30.32 99.2668 30.26 99.0802 30.26 98.8402L30.26 97.1402L30.74 97.6402L30 97.6402C28.7067 97.6402 27.7267 97.3268 27.06 96.7002C26.38 96.0602 25.9867 95.1268 25.88 93.9002L25.84 93.2802C25.8133 93.0802 25.8467 92.9202 25.94 92.8002C26.02 92.6802 26.1267 92.6002 26.26 92.5602C26.3933 92.5202 26.5333 92.5202 26.68 92.5602C26.8133 92.5868 26.9333 92.6468 27.04 92.7402C27.1467 92.8335 27.2067 92.9535 27.22 93.1002L27.24 93.5402C27.3067 94.3402 27.5467 94.9202 27.96 95.2802C28.36 95.6402 28.96 95.8202 29.76 95.8202L30.56 95.8202L30.26 96.0802L30.26 93.7802C30.26 93.5268 30.32 93.3335 30.44 93.2002C30.56 93.0668 30.7333 93.0002 30.96 93.0002C31.1733 93.0002 31.3467 93.0668 31.48 93.2002C31.6 93.3335 31.66 93.5268 31.66 93.7802L31.66 95.8202L39.2 95.8202C39.8267 95.8202 40.14 96.1202 40.14 96.7202ZM40.18 87.1767C40.18 88.2301 39.98 89.1367 39.58 89.8967C39.1667 90.6434 38.5867 91.2234 37.84 91.6367C37.08 92.0501 36.1867 92.2567 35.16 92.2567C34.1467 92.2567 33.26 92.0567 32.5 91.6567C31.74 91.2434 31.1467 90.6834 30.72 89.9767C30.2933 89.2567 30.08 88.4367 30.08 87.5167C30.08 86.8634 30.1933 86.2767 30.42 85.7567C30.6333 85.2234 30.9467 84.7701 31.36 84.3967C31.7733 84.0234 32.28 83.7434 32.88 83.5567C33.4667 83.3567 34.1333 83.2567 34.88 83.2567C35.0933 83.2567 35.26 83.3234 35.38 83.4567C35.4867 83.5767 35.54 83.7567 35.54 83.9967L35.54 90.8367L34.38 90.8367L34.38 84.4567L34.66 84.7967C33.9667 84.7967 33.38 84.9034 32.9 85.1167C32.4067 85.3167 32.0333 85.6167 31.78 86.0167C31.5267 86.4034 31.4 86.8901 31.4 87.4767C31.4 88.1167 31.5533 88.6634 31.86 89.1167C32.1533 89.5701 32.5733 89.9167 33.12 90.1567C33.6533 90.3967 34.2733 90.5167 34.98 90.5167L35.1 90.5167C36.3 90.5167 37.2067 90.2301 37.82 89.6567C38.4333 89.0834 38.74 88.2567 38.74 87.1767C38.74 86.7501 38.6867 86.3167 38.58 85.8767C38.4733 85.4234 38.28 84.9901 38 84.5767C37.88 84.3767 37.8267 84.1967 37.84 84.0367C37.84 83.8634 37.8933 83.7234 38 83.6167C38.0933 83.5101 38.2133 83.4434 38.36 83.4167C38.4933 83.3901 38.64 83.4101 38.8 83.4767C38.96 83.5434 39.1 83.6701 39.22 83.8567C39.5267 84.2967 39.7667 84.8234 39.94 85.4367C40.1 86.0367 40.18 86.6167 40.18 87.1767ZM40.14 80.0931C40.14 80.3731 40.06 80.5931 39.9 80.7531C39.74 80.9131 39.5067 80.9931 39.2 80.9931L31.04 80.9931C30.7333 80.9931 30.5067 80.9131 30.36 80.7531C30.2 80.5931 30.12 80.3731 30.12 80.0931C30.12 79.8131 30.2 79.5998 30.36 79.4531C30.5067 79.2931 30.7333 79.2131 31.04 79.2131L32.68 79.2131L32.38 79.4331C31.62 79.1531 31.0467 78.6998 30.66 78.0731C30.2733 77.4331 30.08 76.7065 30.08 75.8931C30.08 75.1065 30.22 74.4598 30.5 73.9531C30.78 73.4465 31.2067 73.0665 31.78 72.8131C32.3533 72.5598 33.08 72.4331 33.96 72.4331L39.2 72.4331C39.5067 72.4331 39.74 72.5131 39.9 72.6731C40.06 72.8198 40.14 73.0398 40.14 73.3331C40.14 73.6265 40.06 73.8531 39.9 74.0131C39.74 74.1731 39.5067 74.2531 39.2 74.2531L34.06 74.2531C33.1933 74.2531 32.56 74.4198 32.16 74.7531C31.76 75.0865 31.56 75.6198 31.56 76.3531C31.56 77.2065 31.8267 77.8931 32.36 78.4131C32.88 78.9198 33.5867 79.1731 34.48 79.1731L39.2 79.1731C39.8267 79.1731 40.14 79.4798 40.14 80.0931Z" fill="black"/>
</g>
<defs>
<filter id="filter0_d_1854_19292" x="0" y="0" width="74" height="320" filterUnits="userSpaceOnUse" color-interpolation-filters="sRGB">
<feFlood flood-opacity="0" result="BackgroundImageFix"/>
<feColorMatrix in="SourceAlpha" type="matrix" values="0 0 0 0 0 0 0 0 0 0 0 0 0 0 0 0 0 0 127 0" result="hardAlpha"/>
<feOffset dx="4" dy="4"/>
<feGaussianBlur stdDeviation="3.5"/>
<feComposite in2="hardAlpha" operator="out"/>
<feColorMatrix type="matrix" values="0 0 0 0 0 0 0 0 0 0 0 0 0 0 0 0 0 0 0.2 0"/>
<feBlend mode="normal" in2="BackgroundImageFix" result="effect1_dropShadow_1854_19292"/>
<feBlend mode="normal" in="SourceGraphic" in2="effect1_dropShadow_1854_19292" result="shape"/>
</filter>
</defs>
</svg>
