<svg width="74" height="361" viewBox="0 0 74 361" fill="none" xmlns="http://www.w3.org/2000/svg">
<g filter="url(#filter0_d_1854_19283)">
<path d="M3 3H33C49.5685 3 63 16.4315 63 33V320C63 336.569 49.5685 350 33 350H3V3Z" fill="white"/>
<rect x="25" y="37" width="16" height="16" rx="1" stroke="black" stroke-width="2"/>
<path d="M30.7144 37V53" stroke="black" stroke-width="2"/>
<path d="M36.4283 47.2856L34.4961 45.3535C34.3009 45.1582 34.3009 44.8416 34.4961 44.6464L36.4283 42.7142" stroke="black" stroke-width="2" stroke-linecap="round"/>
<path d="M40.14 317.68C40.14 317.947 40.0733 318.16 39.94 318.32C39.8067 318.48 39.5933 318.613 39.3 318.72L26.86 323.08C26.5533 323.2 26.2933 323.187 26.08 323.04C25.8667 322.88 25.76 322.62 25.76 322.26C25.76 322.007 25.82 321.807 25.94 321.66C26.06 321.513 26.26 321.393 26.54 321.3L38.34 317.28L38.34 318L26.58 313.88C26.3 313.773 26.0933 313.647 25.96 313.5C25.8267 313.353 25.76 313.16 25.76 312.92C25.76 312.667 25.8267 312.473 25.96 312.34C26.0933 312.193 26.3067 312.073 26.6 311.98L38.34 307.94L38.34 308.58L26.54 304.52C26.2733 304.427 26.08 304.307 25.96 304.16C25.8267 304.013 25.76 303.807 25.76 303.54C25.76 303.233 25.8667 303.007 26.08 302.86C26.2933 302.713 26.5533 302.693 26.86 302.8L39.32 307.2C39.6 307.293 39.8067 307.42 39.94 307.58C40.0733 307.74 40.14 307.953 40.14 308.22C40.14 308.5 40.0733 308.72 39.94 308.88C39.8067 309.04 39.5933 309.173 39.3 309.28L28.1 313.18L28.1 312.74L39.32 316.66C39.6 316.767 39.8067 316.9 39.94 317.06C40.0733 317.207 40.14 317.413 40.14 317.68ZM40.18 297.521C40.18 298.481 39.9733 299.314 39.56 300.021C39.1467 300.728 38.56 301.274 37.8 301.661C37.04 302.048 36.1467 302.241 35.12 302.241C34.3467 302.241 33.6533 302.134 33.04 301.921C32.4133 301.694 31.88 301.374 31.44 300.961C31 300.548 30.6667 300.054 30.44 299.481C30.2 298.894 30.08 298.241 30.08 297.521C30.08 296.561 30.2867 295.728 30.7 295.021C31.1133 294.314 31.7 293.768 32.46 293.381C33.2067 292.994 34.0933 292.801 35.12 292.801C35.8933 292.801 36.5933 292.914 37.22 293.141C37.8467 293.354 38.38 293.668 38.82 294.081C39.26 294.494 39.6 294.994 39.84 295.581C40.0667 296.154 40.18 296.801 40.18 297.521ZM38.74 297.521C38.74 296.934 38.6 296.428 38.32 296.001C38.04 295.561 37.6333 295.228 37.1 295.001C36.5667 294.761 35.9067 294.641 35.12 294.641C33.9467 294.641 33.0533 294.901 32.44 295.421C31.8267 295.941 31.52 296.641 31.52 297.521C31.52 298.094 31.66 298.601 31.94 299.041C32.2067 299.468 32.6067 299.801 33.14 300.041C33.6733 300.281 34.3333 300.401 35.12 300.401C36.2933 300.401 37.1933 300.141 37.82 299.621C38.4333 299.088 38.74 298.388 38.74 297.521ZM40.14 289.53C40.14 289.836 40.06 290.07 39.9 290.23C39.74 290.39 39.5067 290.47 39.2 290.47L31.04 290.47C30.7333 290.47 30.5067 290.39 30.36 290.23C30.2 290.07 30.12 289.85 30.12 289.57C30.12 289.29 30.2 289.076 30.36 288.93C30.5067 288.77 30.7333 288.69 31.04 288.69L32.58 288.69L32.58 288.89C31.78 288.676 31.1733 288.276 30.76 287.69C30.3467 287.103 30.1133 286.363 30.06 285.47C30.0467 285.256 30.1 285.083 30.22 284.95C30.3267 284.816 30.5133 284.743 30.78 284.73C31.0333 284.716 31.24 284.776 31.4 284.91C31.5467 285.043 31.6333 285.25 31.66 285.53L31.68 285.89C31.7733 286.77 32.06 287.45 32.54 287.93C33.02 288.396 33.68 288.63 34.52 288.63L39.2 288.63C39.5067 288.63 39.74 288.71 39.9 288.87C40.06 289.016 40.14 289.236 40.14 289.53ZM40.14 282.265C40.14 282.545 40.06 282.765 39.9 282.925C39.74 283.085 39.5067 283.165 39.2 283.165L26.68 283.165C26.3733 283.165 26.1467 283.085 26 282.925C25.84 282.765 25.76 282.545 25.76 282.265C25.76 281.972 25.84 281.745 26 281.585C26.1467 281.425 26.3733 281.345 26.68 281.345L34.56 281.345L34.56 281.305L30.74 277.385C30.54 277.185 30.3867 277.005 30.28 276.845C30.1733 276.685 30.12 276.478 30.12 276.225C30.12 275.972 30.1867 275.778 30.32 275.645C30.44 275.512 30.6 275.445 30.8 275.445C30.9867 275.445 31.1733 275.538 31.36 275.725L35.4 279.885L34.5 279.885L38.88 275.345C39.0667 275.158 39.26 275.072 39.46 275.085C39.66 275.085 39.8267 275.158 39.96 275.305C40.08 275.438 40.14 275.618 40.14 275.845C40.14 276.112 40.0867 276.332 39.98 276.505C39.8733 276.665 39.7067 276.852 39.48 277.065L35.48 281.305L35.48 281.345L39.2 281.345C39.8267 281.345 40.14 281.652 40.14 282.265ZM40.18 269.825C40.18 270.425 40.1133 271.031 39.98 271.645C39.8333 272.245 39.5867 272.811 39.24 273.345C39.1467 273.491 39.0333 273.598 38.9 273.665C38.7533 273.718 38.6133 273.738 38.48 273.725C38.3333 273.698 38.2067 273.638 38.1 273.545C37.9933 273.451 37.9333 273.338 37.92 273.205C37.8933 273.058 37.9267 272.905 38.02 272.745C38.3133 272.225 38.52 271.725 38.64 271.245C38.76 270.751 38.82 270.265 38.82 269.785C38.82 269.051 38.6867 268.498 38.42 268.125C38.1533 267.751 37.8 267.565 37.36 267.565C36.9867 267.565 36.7 267.691 36.5 267.945C36.2867 268.185 36.1267 268.565 36.02 269.085L35.64 270.945C35.4533 271.771 35.1467 272.398 34.72 272.825C34.28 273.238 33.72 273.445 33.04 273.445C32.44 273.445 31.92 273.285 31.48 272.965C31.0267 272.631 30.68 272.171 30.44 271.585C30.2 270.998 30.08 270.325 30.08 269.565C30.08 268.978 30.16 268.425 30.32 267.905C30.4667 267.371 30.6933 266.891 31 266.465C31.0933 266.305 31.2133 266.205 31.36 266.165C31.4933 266.111 31.6333 266.105 31.78 266.145C31.9133 266.171 32.0267 266.231 32.12 266.325C32.2133 266.418 32.2733 266.538 32.3 266.685C32.3133 266.831 32.2733 266.991 32.18 267.165C31.9133 267.551 31.7267 267.951 31.62 268.365C31.5 268.765 31.44 269.165 31.44 269.565C31.44 270.285 31.58 270.831 31.86 271.205C32.14 271.565 32.5067 271.745 32.96 271.745C33.3067 271.745 33.5933 271.638 33.82 271.425C34.0467 271.198 34.2133 270.845 34.32 270.365L34.7 268.505C34.8867 267.638 35.1867 266.985 35.6 266.545C36 266.105 36.5467 265.885 37.24 265.885C38.1467 265.885 38.8667 266.245 39.4 266.965C39.92 267.671 40.18 268.625 40.18 269.825ZM43.74 262.617C43.74 262.897 43.66 263.117 43.5 263.277C43.34 263.437 43.1133 263.517 42.82 263.517L31.04 263.517C30.7333 263.517 30.5067 263.437 30.36 263.277C30.2 263.117 30.12 262.897 30.12 262.617C30.12 262.323 30.2 262.103 30.36 261.957C30.5067 261.797 30.7333 261.717 31.04 261.717L32.86 261.717L32.5 261.937C31.7667 261.723 31.18 261.303 30.74 260.677C30.3 260.05 30.08 259.297 30.08 258.417C30.08 257.55 30.2867 256.797 30.7 256.157C31.1 255.517 31.68 255.017 32.44 254.657C33.1867 254.297 34.08 254.117 35.12 254.117C36.1467 254.117 37.0467 254.297 37.82 254.657C38.58 255.003 39.1667 255.503 39.58 256.157C39.98 256.797 40.18 257.55 40.18 258.417C40.18 259.283 39.96 260.03 39.52 260.657C39.08 261.283 38.5 261.703 37.78 261.917L37.78 261.697L42.82 261.697C43.1133 261.697 43.34 261.777 43.5 261.937C43.66 262.097 43.74 262.323 43.74 262.617ZM38.74 258.837C38.74 258.263 38.6 257.763 38.32 257.337C38.04 256.897 37.6333 256.557 37.1 256.317C36.5667 256.077 35.9067 255.957 35.12 255.957C33.9467 255.957 33.0533 256.217 32.44 256.737C31.8267 257.257 31.52 257.957 31.52 258.837C31.52 259.423 31.66 259.937 31.94 260.377C32.2067 260.803 32.6067 261.137 33.14 261.377C33.6733 261.603 34.3333 261.717 35.12 261.717C36.2933 261.717 37.1933 261.457 37.82 260.937C38.4333 260.417 38.74 259.717 38.74 258.837ZM40.18 248.678C40.18 249.345 40.0467 249.952 39.78 250.498C39.5133 251.032 39.1533 251.452 38.7 251.758C38.2467 252.052 37.74 252.198 37.18 252.198C36.46 252.198 35.8933 252.018 35.48 251.658C35.0667 251.298 34.7733 250.692 34.6 249.838C34.4133 248.985 34.32 247.838 34.32 246.398L34.32 245.458L35.48 245.458L35.48 246.358C35.48 247.385 35.5267 248.198 35.62 248.798C35.7133 249.385 35.88 249.798 36.12 250.038C36.3467 250.278 36.6667 250.398 37.08 250.398C37.6 250.398 38.0267 250.218 38.36 249.858C38.6933 249.485 38.86 248.978 38.86 248.338C38.86 247.832 38.74 247.385 38.5 246.998C38.2467 246.612 37.9133 246.305 37.5 246.078C37.0733 245.852 36.5867 245.738 36.04 245.738L33.74 245.738C32.9533 245.738 32.3867 245.898 32.04 246.218C31.68 246.538 31.5 247.078 31.5 247.838C31.5 248.278 31.56 248.732 31.68 249.198C31.8 249.665 31.9867 250.152 32.24 250.658C32.3333 250.858 32.3667 251.032 32.34 251.178C32.3 251.325 32.22 251.445 32.1 251.538C31.9667 251.618 31.8267 251.665 31.68 251.678C31.52 251.678 31.3667 251.645 31.22 251.578C31.0733 251.498 30.9667 251.365 30.9 251.178C30.6067 250.592 30.4 250.012 30.28 249.438C30.1467 248.852 30.08 248.305 30.08 247.798C30.08 246.932 30.22 246.218 30.5 245.658C30.7667 245.098 31.1867 244.678 31.76 244.398C32.32 244.118 33.04 243.978 33.92 243.978L39.2 243.978C39.5067 243.978 39.74 244.052 39.9 244.198C40.06 244.345 40.14 244.558 40.14 244.838C40.14 245.105 40.06 245.318 39.9 245.478C39.74 245.625 39.5067 245.698 39.2 245.698L37.78 245.698L37.78 245.518C38.2733 245.625 38.7 245.825 39.06 246.118C39.42 246.412 39.7 246.778 39.9 247.218C40.0867 247.645 40.18 248.132 40.18 248.678ZM40.18 236.894C40.18 237.881 39.9733 238.734 39.56 239.454C39.1333 240.174 38.54 240.728 37.78 241.114C37.0067 241.501 36.1 241.694 35.06 241.694C34.2867 241.694 33.5933 241.588 32.98 241.374C32.3667 241.148 31.8467 240.828 31.42 240.414C30.98 240.001 30.6467 239.501 30.42 238.914C30.1933 238.314 30.08 237.641 30.08 236.894C30.08 236.428 30.1533 235.934 30.3 235.414C30.4467 234.894 30.6867 234.414 31.02 233.974C31.1267 233.828 31.2533 233.734 31.4 233.694C31.5333 233.654 31.6733 233.654 31.82 233.694C31.9667 233.721 32.0933 233.788 32.2 233.894C32.2933 233.988 32.3467 234.114 32.36 234.274C32.3733 234.421 32.3267 234.581 32.22 234.754C31.98 235.074 31.8067 235.414 31.7 235.774C31.5933 236.121 31.54 236.454 31.54 236.774C31.54 237.268 31.62 237.708 31.78 238.094C31.94 238.468 32.1733 238.788 32.48 239.054C32.7733 239.308 33.14 239.501 33.58 239.634C34.0067 239.768 34.5067 239.834 35.08 239.834C36.2133 239.834 37.1067 239.568 37.76 239.034C38.4 238.501 38.72 237.748 38.72 236.774C38.72 236.454 38.6733 236.121 38.58 235.774C38.4733 235.428 38.3 235.088 38.06 234.754C37.9533 234.581 37.9133 234.421 37.94 234.274C37.9533 234.128 38.0133 234.008 38.12 233.914C38.2133 233.808 38.3333 233.741 38.48 233.714C38.6133 233.688 38.7533 233.701 38.9 233.754C39.0467 233.794 39.1667 233.888 39.26 234.034C39.58 234.461 39.8133 234.928 39.96 235.434C40.1067 235.941 40.18 236.428 40.18 236.894ZM40.18 227.513C40.18 228.566 39.98 229.473 39.58 230.233C39.1667 230.979 38.5867 231.559 37.84 231.973C37.08 232.386 36.1867 232.593 35.16 232.593C34.1467 232.593 33.26 232.393 32.5 231.993C31.74 231.579 31.1467 231.019 30.72 230.313C30.2933 229.593 30.08 228.773 30.08 227.853C30.08 227.199 30.1933 226.613 30.42 226.093C30.6333 225.559 30.9467 225.106 31.36 224.733C31.7733 224.359 32.28 224.079 32.88 223.893C33.4667 223.693 34.1333 223.593 34.88 223.593C35.0933 223.593 35.26 223.659 35.38 223.793C35.4867 223.913 35.54 224.093 35.54 224.333L35.54 231.173L34.38 231.173L34.38 224.793L34.66 225.133C33.9667 225.133 33.38 225.239 32.9 225.453C32.4067 225.653 32.0333 225.953 31.78 226.353C31.5267 226.739 31.4 227.226 31.4 227.813C31.4 228.453 31.5533 228.999 31.86 229.453C32.1533 229.906 32.5733 230.253 33.12 230.493C33.6533 230.733 34.2733 230.853 34.98 230.853L35.1 230.853C36.3 230.853 37.2067 230.566 37.82 229.993C38.4333 229.419 38.74 228.593 38.74 227.513C38.74 227.086 38.6867 226.653 38.58 226.213C38.4733 225.759 38.28 225.326 38 224.913C37.88 224.713 37.8267 224.533 37.84 224.373C37.84 224.199 37.8933 224.059 38 223.953C38.0933 223.846 38.2133 223.779 38.36 223.753C38.4933 223.726 38.64 223.746 38.8 223.813C38.96 223.879 39.1 224.006 39.22 224.193C39.5267 224.633 39.7667 225.159 39.94 225.773C40.1 226.373 40.18 226.953 40.18 227.513ZM35.42 220.515C35.42 220.728 35.3467 220.908 35.2 221.055C35.0533 221.201 34.8733 221.275 34.66 221.275C34.4467 221.275 34.2733 221.201 34.14 221.055C33.9933 220.908 33.92 220.728 33.92 220.515L33.92 216.055C33.92 215.855 33.9933 215.681 34.14 215.535C34.2733 215.375 34.4467 215.295 34.66 215.295C34.8733 215.295 35.0533 215.375 35.2 215.535C35.3467 215.681 35.42 215.855 35.42 216.055L35.42 220.515ZM40.14 211.44C40.14 211.706 40.06 211.913 39.9 212.06C39.74 212.206 39.5267 212.28 39.26 212.28L26.64 212.28C26.36 212.28 26.1467 212.206 26 212.06C25.84 211.9 25.76 211.686 25.76 211.42C25.76 211.18 25.8067 210.993 25.9 210.86C25.9933 210.713 26.1533 210.58 26.38 210.46L36.44 205.1L36.44 205.72L26.38 200.36C26.1533 200.24 25.9933 200.113 25.9 199.98C25.8067 199.846 25.76 199.66 25.76 199.42C25.76 199.153 25.84 198.946 26 198.8C26.1467 198.653 26.36 198.58 26.64 198.58L39.26 198.58C39.5267 198.58 39.74 198.653 39.9 198.8C40.06 198.933 40.14 199.14 40.14 199.42C40.14 199.7 40.06 199.913 39.9 200.06C39.74 200.193 39.5267 200.26 39.26 200.26L28.48 200.26L28.48 199.82L37.46 204.62C37.6333 204.726 37.7667 204.84 37.86 204.96C37.94 205.066 37.98 205.22 37.98 205.42C37.98 205.606 37.9333 205.766 37.84 205.9C37.7467 206.02 37.62 206.126 37.46 206.22L28.46 211.08L28.46 210.6L39.26 210.6C39.5267 210.6 39.74 210.673 39.9 210.82C40.06 210.953 40.14 211.16 40.14 211.44ZM40.18 190.892C40.18 191.945 39.98 192.852 39.58 193.612C39.1667 194.358 38.5867 194.938 37.84 195.352C37.08 195.765 36.1867 195.972 35.16 195.972C34.1467 195.972 33.26 195.772 32.5 195.372C31.74 194.958 31.1467 194.398 30.72 193.692C30.2933 192.972 30.08 192.152 30.08 191.232C30.08 190.578 30.1933 189.992 30.42 189.472C30.6333 188.938 30.9467 188.485 31.36 188.112C31.7733 187.738 32.28 187.458 32.88 187.272C33.4667 187.072 34.1333 186.972 34.88 186.972C35.0933 186.972 35.26 187.038 35.38 187.172C35.4867 187.292 35.54 187.472 35.54 187.712L35.54 194.552L34.38 194.552L34.38 188.172L34.66 188.512C33.9667 188.512 33.38 188.618 32.9 188.832C32.4067 189.032 32.0333 189.332 31.78 189.732C31.5267 190.118 31.4 190.605 31.4 191.192C31.4 191.832 31.5533 192.378 31.86 192.832C32.1533 193.285 32.5733 193.632 33.12 193.872C33.6533 194.112 34.2733 194.232 34.98 194.232L35.1 194.232C36.3 194.232 37.2067 193.945 37.82 193.372C38.4333 192.798 38.74 191.972 38.74 190.892C38.74 190.465 38.6867 190.032 38.58 189.592C38.4733 189.138 38.28 188.705 38 188.292C37.88 188.092 37.8267 187.912 37.84 187.752C37.84 187.578 37.8933 187.438 38 187.332C38.0933 187.225 38.2133 187.158 38.36 187.132C38.4933 187.105 38.64 187.125 38.8 187.192C38.96 187.258 39.1 187.385 39.22 187.572C39.5267 188.012 39.7667 188.538 39.94 189.152C40.1 189.752 40.18 190.332 40.18 190.892ZM40.14 183.808C40.14 184.088 40.06 184.308 39.9 184.468C39.74 184.628 39.5067 184.708 39.2 184.708L31.04 184.708C30.7333 184.708 30.5067 184.628 30.36 184.468C30.2 184.308 30.12 184.088 30.12 183.808C30.12 183.528 30.2 183.315 30.36 183.168C30.5067 183.008 30.7333 182.928 31.04 182.928L32.68 182.928L32.38 183.148C31.62 182.868 31.0467 182.415 30.66 181.788C30.2733 181.148 30.08 180.421 30.08 179.608C30.08 178.821 30.22 178.175 30.5 177.668C30.78 177.161 31.2067 176.781 31.78 176.528C32.3533 176.275 33.08 176.148 33.96 176.148L39.2 176.148C39.5067 176.148 39.74 176.228 39.9 176.388C40.06 176.535 40.14 176.755 40.14 177.048C40.14 177.341 40.06 177.568 39.9 177.728C39.74 177.888 39.5067 177.968 39.2 177.968L34.06 177.968C33.1933 177.968 32.56 178.135 32.16 178.468C31.76 178.801 31.56 179.335 31.56 180.068C31.56 180.921 31.8267 181.608 32.36 182.128C32.88 182.635 33.5867 182.888 34.48 182.888L39.2 182.888C39.8267 182.888 40.14 183.195 40.14 183.808ZM40.18 169.783C40.18 170.569 40.0333 171.229 39.74 171.763C39.4467 172.283 39.0133 172.669 38.44 172.923C37.8667 173.176 37.1467 173.303 36.28 173.303L31.04 173.303C30.7333 173.303 30.5067 173.229 30.36 173.083C30.2 172.923 30.12 172.696 30.12 172.403C30.12 172.109 30.2 171.883 30.36 171.723C30.5067 171.563 30.7333 171.483 31.04 171.483L36.28 171.483C37.1067 171.483 37.72 171.316 38.12 170.983C38.5067 170.649 38.7 170.123 38.7 169.403C38.7 168.603 38.4333 167.956 37.9 167.463C37.3667 166.956 36.66 166.703 35.78 166.703L31.04 166.703C30.7333 166.703 30.5067 166.629 30.36 166.483C30.2 166.323 30.12 166.096 30.12 165.803C30.12 165.509 30.2 165.283 30.36 165.123C30.5067 164.963 30.7333 164.883 31.04 164.883L39.2 164.883C39.8267 164.883 40.14 165.176 40.14 165.763C40.14 166.056 40.06 166.283 39.9 166.443C39.74 166.589 39.5067 166.663 39.2 166.663L37.46 166.663L37.8 166.403C38.5733 166.669 39.1667 167.103 39.58 167.703C39.98 168.289 40.18 168.983 40.18 169.783ZM27.92 167.303C27.92 167.623 27.8333 167.869 27.66 168.043C27.4867 168.216 27.24 168.303 26.92 168.303C26.6 168.303 26.36 168.216 26.2 168.043C26.0267 167.869 25.94 167.623 25.94 167.303C25.94 166.983 26.0267 166.736 26.2 166.563C26.36 166.389 26.6 166.303 26.92 166.303C27.24 166.303 27.4867 166.389 27.66 166.563C27.8333 166.723 27.92 166.969 27.92 167.303ZM27.92 170.843C27.92 171.163 27.8333 171.416 27.66 171.603C27.4867 171.776 27.24 171.863 26.92 171.863C26.6 171.863 26.36 171.776 26.2 171.603C26.0267 171.416 25.94 171.163 25.94 170.843C25.94 170.523 26.0267 170.276 26.2 170.103C26.36 169.929 26.6 169.843 26.92 169.843C27.24 169.843 27.4867 169.929 27.66 170.103C27.8333 170.276 27.92 170.523 27.92 170.843ZM40.18 153.379C40.18 153.979 40.1133 154.586 39.98 155.199C39.8333 155.799 39.5867 156.366 39.24 156.899C39.1467 157.046 39.0333 157.153 38.9 157.219C38.7533 157.273 38.6133 157.293 38.48 157.279C38.3333 157.253 38.2067 157.193 38.1 157.099C37.9933 157.006 37.9333 156.893 37.92 156.759C37.8933 156.613 37.9267 156.459 38.02 156.299C38.3133 155.779 38.52 155.279 38.64 154.799C38.76 154.306 38.82 153.819 38.82 153.339C38.82 152.606 38.6867 152.053 38.42 151.679C38.1533 151.306 37.8 151.119 37.36 151.119C36.9867 151.119 36.7 151.246 36.5 151.499C36.2867 151.739 36.1267 152.119 36.02 152.639L35.64 154.499C35.4533 155.326 35.1467 155.953 34.72 156.379C34.28 156.793 33.72 156.999 33.04 156.999C32.44 156.999 31.92 156.839 31.48 156.519C31.0267 156.186 30.68 155.726 30.44 155.139C30.2 154.553 30.08 153.879 30.08 153.119C30.08 152.533 30.16 151.979 30.32 151.459C30.4667 150.926 30.6933 150.446 31 150.019C31.0933 149.859 31.2133 149.759 31.36 149.719C31.4933 149.666 31.6333 149.659 31.78 149.699C31.9133 149.726 32.0267 149.786 32.12 149.879C32.2133 149.973 32.2733 150.093 32.3 150.239C32.3133 150.386 32.2733 150.546 32.18 150.719C31.9133 151.106 31.7267 151.506 31.62 151.919C31.5 152.319 31.44 152.719 31.44 153.119C31.44 153.839 31.58 154.386 31.86 154.759C32.14 155.119 32.5067 155.299 32.96 155.299C33.3067 155.299 33.5933 155.193 33.82 154.979C34.0467 154.753 34.2133 154.399 34.32 153.919L34.7 152.059C34.8867 151.193 35.1867 150.539 35.6 150.099C36 149.659 36.5467 149.439 37.24 149.439C38.1467 149.439 38.8667 149.799 39.4 150.519C39.92 151.226 40.18 152.179 40.18 153.379ZM40.18 142.851C40.18 143.838 39.9733 144.691 39.56 145.411C39.1333 146.131 38.54 146.685 37.78 147.071C37.0067 147.458 36.1 147.651 35.06 147.651C34.2867 147.651 33.5933 147.545 32.98 147.331C32.3667 147.105 31.8467 146.785 31.42 146.371C30.98 145.958 30.6467 145.458 30.42 144.871C30.1933 144.271 30.08 143.598 30.08 142.851C30.08 142.385 30.1533 141.891 30.3 141.371C30.4467 140.851 30.6867 140.371 31.02 139.931C31.1267 139.785 31.2533 139.691 31.4 139.651C31.5333 139.611 31.6733 139.611 31.82 139.651C31.9667 139.678 32.0933 139.745 32.2 139.851C32.2933 139.945 32.3467 140.071 32.36 140.231C32.3733 140.378 32.3267 140.538 32.22 140.711C31.98 141.031 31.8067 141.371 31.7 141.731C31.5933 142.078 31.54 142.411 31.54 142.731C31.54 143.225 31.62 143.665 31.78 144.051C31.94 144.425 32.1733 144.745 32.48 145.011C32.7733 145.265 33.14 145.458 33.58 145.591C34.0067 145.725 34.5067 145.791 35.08 145.791C36.2133 145.791 37.1067 145.525 37.76 144.991C38.4 144.458 38.72 143.705 38.72 142.731C38.72 142.411 38.6733 142.078 38.58 141.731C38.4733 141.385 38.3 141.045 38.06 140.711C37.9533 140.538 37.9133 140.378 37.94 140.231C37.9533 140.085 38.0133 139.965 38.12 139.871C38.2133 139.765 38.3333 139.698 38.48 139.671C38.6133 139.645 38.7533 139.658 38.9 139.711C39.0467 139.751 39.1667 139.845 39.26 139.991C39.58 140.418 39.8133 140.885 39.96 141.391C40.1067 141.898 40.18 142.385 40.18 142.851ZM40.14 136.874C40.14 137.154 40.06 137.374 39.9 137.534C39.74 137.694 39.5067 137.774 39.2 137.774L26.68 137.774C26.3733 137.774 26.1467 137.694 26 137.534C25.84 137.374 25.76 137.154 25.76 136.874C25.76 136.581 25.84 136.354 26 136.194C26.1467 136.034 26.3733 135.954 26.68 135.954L32.38 135.954L32.38 136.214C31.62 135.934 31.0467 135.481 30.66 134.854C30.2733 134.214 30.08 133.488 30.08 132.674C30.08 131.888 30.2267 131.241 30.52 130.734C30.8 130.228 31.2267 129.848 31.8 129.594C32.3733 129.341 33.0933 129.214 33.96 129.214L39.2 129.214C39.5067 129.214 39.74 129.294 39.9 129.454C40.06 129.601 40.14 129.821 40.14 130.114C40.14 130.408 40.06 130.634 39.9 130.794C39.74 130.954 39.5067 131.034 39.2 131.034L34.06 131.034C33.1933 131.034 32.56 131.201 32.16 131.534C31.76 131.868 31.56 132.401 31.56 133.134C31.56 133.988 31.8267 134.674 32.36 135.194C32.88 135.701 33.5867 135.954 34.48 135.954L39.2 135.954C39.8267 135.954 40.14 136.261 40.14 136.874ZM40.18 123.269C40.18 124.269 39.8867 125.029 39.3 125.549C38.7 126.069 37.84 126.329 36.72 126.329L26.68 126.329C26.3733 126.329 26.1467 126.249 26 126.089C25.84 125.929 25.76 125.709 25.76 125.429C25.76 125.136 25.84 124.909 26 124.749C26.1467 124.589 26.3733 124.509 26.68 124.509L36.58 124.509C37.2733 124.509 37.7933 124.369 38.14 124.089C38.4733 123.796 38.64 123.382 38.64 122.849C38.64 122.729 38.64 122.622 38.64 122.529C38.6267 122.436 38.6133 122.342 38.6 122.249C38.5867 122.102 38.6267 121.996 38.72 121.929C38.8133 121.862 39 121.829 39.28 121.829C39.5333 121.829 39.7333 121.889 39.88 122.009C40.0133 122.116 40.1 122.296 40.14 122.549C40.1533 122.669 40.16 122.789 40.16 122.909C40.1733 123.029 40.18 123.149 40.18 123.269ZM40.1 119.413C40.1 119.693 40.0133 119.913 39.84 120.073C39.6667 120.233 39.4267 120.313 39.12 120.313L31.14 120.313C30.82 120.313 30.58 120.233 30.42 120.073C30.2467 119.913 30.16 119.693 30.16 119.413C30.16 119.12 30.2467 118.893 30.42 118.733C30.58 118.573 30.82 118.493 31.14 118.493L39.12 118.493C39.4267 118.493 39.6667 118.573 39.84 118.733C40.0133 118.88 40.1 119.107 40.1 119.413ZM28 119.413C28 119.773 27.9067 120.06 27.72 120.273C27.52 120.473 27.26 120.573 26.94 120.573C26.5933 120.573 26.3333 120.473 26.16 120.273C25.9733 120.06 25.88 119.773 25.88 119.413C25.88 119.027 25.9733 118.74 26.16 118.553C26.3333 118.353 26.5933 118.253 26.94 118.253C27.26 118.253 27.52 118.353 27.72 118.553C27.9067 118.74 28 119.027 28 119.413ZM40.18 111.067C40.18 112.121 39.98 113.027 39.58 113.787C39.1667 114.534 38.5867 115.114 37.84 115.527C37.08 115.941 36.1867 116.147 35.16 116.147C34.1467 116.147 33.26 115.947 32.5 115.547C31.74 115.134 31.1467 114.574 30.72 113.867C30.2933 113.147 30.08 112.327 30.08 111.407C30.08 110.754 30.1933 110.167 30.42 109.647C30.6333 109.114 30.9467 108.661 31.36 108.287C31.7733 107.914 32.28 107.634 32.88 107.447C33.4667 107.247 34.1333 107.147 34.88 107.147C35.0933 107.147 35.26 107.214 35.38 107.347C35.4867 107.467 35.54 107.647 35.54 107.887L35.54 114.727L34.38 114.727L34.38 108.347L34.66 108.687C33.9667 108.687 33.38 108.794 32.9 109.007C32.4067 109.207 32.0333 109.507 31.78 109.907C31.5267 110.294 31.4 110.781 31.4 111.367C31.4 112.007 31.5533 112.554 31.86 113.007C32.1533 113.461 32.5733 113.807 33.12 114.047C33.6533 114.287 34.2733 114.407 34.98 114.407L35.1 114.407C36.3 114.407 37.2067 114.121 37.82 113.547C38.4333 112.974 38.74 112.147 38.74 111.067C38.74 110.641 38.6867 110.207 38.58 109.767C38.4733 109.314 38.28 108.881 38 108.467C37.88 108.267 37.8267 108.087 37.84 107.927C37.84 107.754 37.8933 107.614 38 107.507C38.0933 107.401 38.2133 107.334 38.36 107.307C38.4933 107.281 38.64 107.301 38.8 107.367C38.96 107.434 39.1 107.561 39.22 107.747C39.5267 108.187 39.7667 108.714 39.94 109.327C40.1 109.927 40.18 110.507 40.18 111.067ZM40.18 98.1237C40.18 98.6971 40.1 99.2837 39.94 99.8837C39.78 100.47 39.54 100.997 39.22 101.464C39.1267 101.624 39.0067 101.73 38.86 101.784C38.7133 101.837 38.5667 101.85 38.42 101.824C38.2733 101.797 38.1467 101.737 38.04 101.644C37.9333 101.537 37.8733 101.41 37.86 101.264C37.8333 101.117 37.8733 100.957 37.98 100.784C38.26 100.344 38.46 99.8904 38.58 99.4237C38.7 98.9437 38.76 98.5037 38.76 98.1037C38.76 97.4904 38.6333 97.0104 38.38 96.6637C38.1133 96.3171 37.7533 96.1437 37.3 96.1437C36.9267 96.1437 36.6133 96.2971 36.36 96.6037C36.1067 96.8971 35.8667 97.4304 35.64 98.2037C35.3067 99.2704 34.9267 100.017 34.5 100.444C34.0733 100.87 33.54 101.084 32.9 101.084C32.62 101.084 32.3533 101.044 32.1 100.964C31.8333 100.87 31.56 100.71 31.28 100.484C30.9867 100.257 30.6667 99.9504 30.32 99.5637C29.9733 99.1637 29.66 98.8837 29.38 98.7237C29.1 98.5637 28.8 98.4837 28.48 98.4837C28.0533 98.4837 27.72 98.6371 27.48 98.9437C27.24 99.2371 27.12 99.6637 27.12 100.224C27.12 101.144 27.3933 101.85 27.94 102.344C28.4867 102.824 29.26 103.064 30.26 103.064L39.2 103.064C39.5067 103.064 39.74 103.144 39.9 103.304C40.06 103.464 40.14 103.69 40.14 103.984C40.14 104.264 40.06 104.484 39.9 104.644C39.74 104.804 39.5067 104.884 39.2 104.884L30.5 104.884C28.98 104.884 27.8067 104.477 26.98 103.664C26.14 102.85 25.72 101.704 25.72 100.224C25.72 99.4904 25.8267 98.8637 26.04 98.3437C26.2533 97.8237 26.5533 97.4237 26.94 97.1437C27.3267 96.8637 27.7933 96.7237 28.34 96.7237C28.8333 96.7237 29.28 96.8371 29.68 97.0637C30.08 97.2904 30.52 97.6704 31 98.2037C31.2667 98.5104 31.5 98.7504 31.7 98.9237C31.8867 99.0971 32.06 99.2171 32.22 99.2837C32.3667 99.3371 32.5333 99.3637 32.72 99.3637C33.0533 99.3637 33.34 99.2171 33.58 98.9237C33.82 98.6171 34.06 98.0704 34.3 97.2837C34.62 96.2571 35.0133 95.5237 35.48 95.0837C35.9333 94.6437 36.5133 94.4237 37.22 94.4237C37.82 94.4237 38.34 94.5771 38.78 94.8837C39.22 95.1904 39.5667 95.6237 39.82 96.1837C40.06 96.7437 40.18 97.3904 40.18 98.1237ZM40.18 87.9033C40.18 88.9566 39.98 89.8633 39.58 90.6233C39.1667 91.3699 38.5867 91.9499 37.84 92.3633C37.08 92.7766 36.1867 92.9833 35.16 92.9833C34.1467 92.9833 33.26 92.7833 32.5 92.3833C31.74 91.9699 31.1467 91.4099 30.72 90.7033C30.2933 89.9833 30.08 89.1633 30.08 88.2433C30.08 87.5899 30.1933 87.0033 30.42 86.4833C30.6333 85.9499 30.9467 85.4966 31.36 85.1233C31.7733 84.7499 32.28 84.4699 32.88 84.2833C33.4667 84.0833 34.1333 83.9833 34.88 83.9833C35.0933 83.9833 35.26 84.0499 35.38 84.1833C35.4867 84.3033 35.54 84.4833 35.54 84.7233L35.54 91.5633L34.38 91.5633L34.38 85.1833L34.66 85.5233C33.9667 85.5233 33.38 85.6299 32.9 85.8433C32.4067 86.0433 32.0333 86.3433 31.78 86.7433C31.5267 87.1299 31.4 87.6166 31.4 88.2033C31.4 88.8433 31.5533 89.3899 31.86 89.8433C32.1533 90.2966 32.5733 90.6433 33.12 90.8833C33.6533 91.1233 34.2733 91.2433 34.98 91.2433L35.1 91.2433C36.3 91.2433 37.2067 90.9566 37.82 90.3833C38.4333 89.8099 38.74 88.9833 38.74 87.9033C38.74 87.4766 38.6867 87.0433 38.58 86.6033C38.4733 86.1499 38.28 85.7166 38 85.3033C37.88 85.1033 37.8267 84.9233 37.84 84.7633C37.84 84.5899 37.8933 84.4499 38 84.3433C38.0933 84.2366 38.2133 84.1699 38.36 84.1433C38.4933 84.1166 38.64 84.1366 38.8 84.2033C38.96 84.2699 39.1 84.3966 39.22 84.5833C39.5267 85.0233 39.7667 85.5499 39.94 86.1633C40.1 86.7633 40.18 87.3433 40.18 87.9033ZM40.14 80.8197C40.14 81.0997 40.06 81.3197 39.9 81.4797C39.74 81.6397 39.5067 81.7197 39.2 81.7197L31.04 81.7197C30.7333 81.7197 30.5067 81.6397 30.36 81.4797C30.2 81.3197 30.12 81.0997 30.12 80.8197C30.12 80.5397 30.2 80.3264 30.36 80.1797C30.5067 80.0197 30.7333 79.9397 31.04 79.9397L32.68 79.9397L32.38 80.1597C31.62 79.8797 31.0467 79.4264 30.66 78.7997C30.2733 78.1597 30.08 77.433 30.08 76.6197C30.08 75.833 30.22 75.1864 30.5 74.6797C30.78 74.173 31.2067 73.793 31.78 73.5397C32.3533 73.2864 33.08 73.1597 33.96 73.1597L39.2 73.1597C39.5067 73.1597 39.74 73.2397 39.9 73.3997C40.06 73.5464 40.14 73.7664 40.14 74.0597C40.14 74.353 40.06 74.5797 39.9 74.7397C39.74 74.8997 39.5067 74.9797 39.2 74.9797L34.06 74.9797C33.1933 74.9797 32.56 75.1464 32.16 75.4797C31.76 75.813 31.56 76.3464 31.56 77.0797C31.56 77.933 31.8267 78.6197 32.36 79.1397C32.88 79.6464 33.5867 79.8997 34.48 79.8997L39.2 79.8997C39.8267 79.8997 40.14 80.2064 40.14 80.8197Z" fill="black"/>
</g>
<defs>
<filter id="filter0_d_1854_19283" x="0" y="0" width="74" height="361" filterUnits="userSpaceOnUse" color-interpolation-filters="sRGB">
<feFlood flood-opacity="0" result="BackgroundImageFix"/>
<feColorMatrix in="SourceAlpha" type="matrix" values="0 0 0 0 0 0 0 0 0 0 0 0 0 0 0 0 0 0 127 0" result="hardAlpha"/>
<feOffset dx="4" dy="4"/>
<feGaussianBlur stdDeviation="3.5"/>
<feComposite in2="hardAlpha" operator="out"/>
<feColorMatrix type="matrix" values="0 0 0 0 0 0 0 0 0 0 0 0 0 0 0 0 0 0 0.2 0"/>
<feBlend mode="normal" in2="BackgroundImageFix" result="effect1_dropShadow_1854_19283"/>
<feBlend mode="normal" in="SourceGraphic" in2="effect1_dropShadow_1854_19283" result="shape"/>
</filter>
</defs>
</svg>
